{
.appVersion = "1147";
classes = (
{
automatic = 1;
code = "A Aacute Abreve Acircumflex Adieresis Agrave Amacron Aogonek Aring Aringacute Atilde AE AEacute B C Cacute Ccaron Ccedilla Ccircumflex Cdotaccent D DZ DZcaron Eth Dcaron Dcroat Ddotbelow Dz Dzcaron E Eacute Ebreve Ecaron Ecircumflex Edieresis Edotaccent Edotbelow Egrave Emacron Eogonek Etilde F G Gbreve Gcircumflex Gcommaaccent Gdotaccent H Hbar Hcircumflex Hdotbelow I IJ Iacute Ibreve Icircumflex Idieresis Idotaccent Idotbelow Igrave Imacron Iogonek Itilde J Jcircumflex K Kcommaaccent L LJ Lacute Lcaron Lcommaaccent Ldot Lj Lslash M N NJ Nacute Ncaron Ncommaaccent Ndotaccent Eng Nj Ntilde O Oacute Obreve Ocircumflex Odieresis Odotbelow Ograve Ohungarumlaut Omacron Oogonek Oslash Oslashacute Otilde OE P Thorn Q R Racute Rcaron Rcommaaccent Rdotbelow S Sacute Scaron Scedilla Scircumflex Scommaaccent Sdotbelow Germandbls Schwa T Tbar Tcaron Tcedilla Tcommaaccent Tdotbelow U Uacute Ubreve Ucircumflex Udieresis Udotbelow Ugrave Uhungarumlaut Umacron Uogonek Uring Utilde V W Wacute Wcircumflex Wdieresis Wgrave X Y Yacute Ycircumflex Ydieresis Ygrave Ytilde Z Zacute Zcaron Zdotaccent Zdotbelow Iacute_J.loclNLD Y.loclGUA Yacute.loclGUA Ycircumflex.loclGUA Ydieresis.loclGUA Ygrave.loclGUA Ytilde.loclGUA Cacute.loclPLK Nacute.loclPLK Oacute.loclPLK Sacute.loclPLK Zacute.loclPLK Delta Omega";
name = Uppercase;
}
);
copyright = "Copyright 2015 The Sansita Project Authors (https://github.com/Omnibus-Type/Sansita)";
customParameters = (
{
name = vendorID;
value = OMNI;
},
{
name = fsType;
value = (
);
},
{
name = "Make morx table";
value = 1;
},
{
name = license;
value = "This Font Software is licensed under the SIL Open Font License, Version 1.1. This license is available with a FAQ at: http://scripts.sil.org/OFL";
},
{
name = licenseURL;
value = "http://scripts.sil.org/OFL";
},
{
name = "Use Typo Metrics";
value = 1;
},
{
name = "Disable Last Change";
value = 1;
},
{
name = "Use Line Breaks";
value = 1;
}
);

glyphs = (
{
glyphname = A;
layers = (
{
anchors = (
{
name = ogonek;
position = "{500, 10}";
},
{
name = top;
position = "{335, 660}";
}
);
layerId = UUID0;
paths = (
{
closed = 1;
nodes = (
"271 660 LINE",
"-27 0 LINE",
"88 0 LINE",
"114 63 OFFCURVE",
"133 111 OFFCURVE",
"157 168 CURVE",
"344 168 LINE",
"345 153 OFFCURVE",
"350 108 OFFCURVE",
"352 93 CURVE SMOOTH",
"359 37 OFFCURVE",
"373 -20 OFFCURVE",
"431 -20 CURVE SMOOTH",
"464 -20 OFFCURVE",
"493 -2 OFFCURVE",
"501 30 CURVE",
"473 48 OFFCURVE",
"465 89 OFFCURVE",
"462 122 CURVE SMOOTH",
"416 660 LINE"
);
},
{
closed = 1;
nodes = (
"338 239 LINE",
"185 239 LINE",
"223 334 OFFCURVE",
"261 433 OFFCURVE",
"319 579 CURVE"
);
}
);
width = 535;
},
{
anchors = (
{
name = ogonek;
position = "{541, 10}";
},
{
name = top;
position = "{364, 660}";
}
);
layerId = "8C7E3CD8-8122-4AAB-8613-74D9DEE9A67D";
paths = (
{
closed = 1;
nodes = (
"255 660 LINE",
"-60 0 LINE",
"80 0 LINE",
"96 48 OFFCURVE",
"115 99 OFFCURVE",
"140 160 CURVE",
"313 160 LINE",
"317 129 OFFCURVE",
"319 114 OFFCURVE",
"324 93 CURVE SMOOTH",
"341 23 OFFCURVE",
"376 -20 OFFCURVE",
"451 -20 CURVE SMOOTH",
"505 -20 OFFCURVE",
"547 3 OFFCURVE",
"565 40 CURVE",
"530 61 OFFCURVE",
"516 117 OFFCURVE",
"512 174 CURVE SMOOTH",
"480 660 LINE"
);
},
{
closed = 1;
nodes = (
"309 239 LINE",
"171 239 LINE",
"204 316 OFFCURVE",
"241 404 OFFCURVE",
"294 519 CURVE"
);
}
);
width = 589;
},
{
anchors = (
{
name = ogonek;
position = "{585, 10}";
},
{
name = top;
position = "{391, 660}";
}
);
layerId = "C4C1D9D9-3F21-4BC7-A2AB-A5431E2D31D1";
paths = (
{
closed = 1;
nodes = (
"267 660 LINE",
"-56 0 LINE",
"96 0 LINE",
"107 41 OFFCURVE",
"126 93 OFFCURVE",
"152 156 CURVE",
"318 156 LINE",
"323 117 OFFCURVE",
"324 117 OFFCURVE",
"330 93 CURVE SMOOTH",
"352 16 OFFCURVE",
"397 -20 OFFCURVE",
"481 -20 CURVE SMOOTH",
"545 -20 OFFCURVE",
"593 5 OFFCURVE",
"616 45 CURVE",
"578 67 OFFCURVE",
"561 131 OFFCURVE",
"556 199 CURVE SMOOTH",
"531 660 LINE"
);
},
{
closed = 1;
nodes = (
"315 239 LINE",
"184 239 LINE",
"215 307 OFFCURVE",
"251 390 OFFCURVE",
"302 490 CURVE"
);
}
);
width = 615;
}
);
leftKerningGroup = A;
rightKerningGroup = A;
unicode = 0041;
},
{
glyphname = Aringacute;
layers = (
{
components = (
{
name = A;
},
{
name = acute.case;
transform = "{1, 0, 0, 1, 208, 83}";
}
);
layerId = UUID0;
paths = (
{
closed = 1;
nodes = (
"461 769 OFFCURVE",
"425 793 OFFCURVE",
"372 793 CURVE SMOOTH",
"315 793 OFFCURVE",
"256 757 OFFCURVE",
"256 696 CURVE SMOOTH",
"256 652 OFFCURVE",
"289 628 OFFCURVE",
"343 628 CURVE SMOOTH",
"400 628 OFFCURVE",
"461 664 OFFCURVE",
"461 725 CURVE SMOOTH"
);
},
{
closed = 1;
nodes = (
"401 688 OFFCURVE",
"374 660 OFFCURVE",
"349 660 CURVE SMOOTH",
"324 660 OFFCURVE",
"314 674 OFFCURVE",
"314 695 CURVE SMOOTH",
"314 731 OFFCURVE",
"337 758 OFFCURVE",
"362 758 CURVE SMOOTH",
"388 758 OFFCURVE",
"401 744 OFFCURVE",
"401 722 CURVE SMOOTH"
);
}
);
width = 535;
},
{
components = (
{
name = A;
},
{
name = acute.case;
transform = "{1, 0, 0, 1, 215, 83}";
}
);
layerId = "8C7E3CD8-8122-4AAB-8613-74D9DEE9A67D";
paths = (
{
closed = 1;
nodes = (
"488 762 OFFCURVE",
"452 786 OFFCURVE",
"398 786 CURVE SMOOTH",
"331 786 OFFCURVE",
"267 750 OFFCURVE",
"267 692 CURVE SMOOTH",
"267 649 OFFCURVE",
"304 625 OFFCURVE",
"359 625 CURVE SMOOTH",
"425 625 OFFCURVE",
"488 659 OFFCURVE",
"488 718 CURVE SMOOTH"
);
},
{
closed = 1;
nodes = (
"420 682 OFFCURVE",
"401 660 OFFCURVE",
"367 660 CURVE SMOOTH",
"344 660 OFFCURVE",
"335 671 OFFCURVE",
"335 692 CURVE SMOOTH",
"335 725 OFFCURVE",
"354 747 OFFCURVE",
"388 747 CURVE SMOOTH",
"411 747 OFFCURVE",
"420 736 OFFCURVE",
"420 715 CURVE SMOOTH"
);
}
);
width = 589;
},
{
components = (
{
name = A;
},
{
name = acute.case;
transform = "{1, 0, 0, 1, 237, 83}";
}
);
layerId = "C4C1D9D9-3F21-4BC7-A2AB-A5431E2D31D1";
paths = (
{
closed = 1;
nodes = (
"515 762 OFFCURVE",
"479 786 OFFCURVE",
"425 786 CURVE SMOOTH",
"353 786 OFFCURVE",
"286 750 OFFCURVE",
"286 691 CURVE SMOOTH",
"286 647 OFFCURVE",
"325 622 OFFCURVE",
"381 622 CURVE SMOOTH",
"451 622 OFFCURVE",
"515 657 OFFCURVE",
"515 716 CURVE SMOOTH"
);
},
{
closed = 1;
nodes = (
"443 681 OFFCURVE",
"428 660 OFFCURVE",
"390 660 CURVE SMOOTH",
"368 660 OFFCURVE",
"359 669 OFFCURVE",
"359 692 CURVE SMOOTH",
"359 724 OFFCURVE",
"376 745 OFFCURVE",
"415 745 CURVE SMOOTH",
"436 745 OFFCURVE",
"443 735 OFFCURVE",
"443 713 CURVE SMOOTH"
);
}
);
width = 615;
}
);
leftKerningGroup = A;
leftMetricsKey = A;
rightKerningGroup = A;
rightMetricsKey = A;
unicode = 01FA;
},
{
glyphname = AE;
layers = (
{
anchors = (
{
name = top;
position = "{390, 660}";
}
);
layerId = UUID0;
paths = (
{
closed = 1;
nodes = (
"287 177 LINE",
"285 161 OFFCURVE",
"284 138 OFFCURVE",
"284 126 CURVE SMOOTH",
"284 30 OFFCURVE",
"350 -20 OFFCURVE",
"451 -20 CURVE SMOOTH",
"507 -20 OFFCURVE",
"588 -5 OFFCURVE",
"588 52 CURVE SMOOTH",
"588 61 OFFCURVE",
"586 72 OFFCURVE",
"582 80 CURVE",
"560 72 OFFCURVE",
"532 66 OFFCURVE",
"498 66 CURVE SMOOTH",
"435 66 OFFCURVE",
"396 87 OFFCURVE",
"396 160 CURVE SMOOTH",
"396 180 OFFCURVE",
"399 221 OFFCURVE",
"408 314 CURVE",
"433 303 OFFCURVE",
"469 295 OFFCURVE",
"502 295 CURVE SMOOTH",
"558 295 OFFCURVE",
"599 317 OFFCURVE",
"599 377 CURVE",
"414 377 LINE",
"433 592 LINE",
"470 577 OFFCURVE",
"528 565 OFFCURVE",
"568 565 CURVE SMOOTH",
"631 565 OFFCURVE",
"676 595 OFFCURVE",
"676 660 CURVE",
"287 660 LINE",
"-71 0 LINE",
"44 0 LINE",
"44 0 OFFCURVE",
"134 177 OFFCURVE",
"134 177 CURVE"
);
},
{
closed = 1;
nodes = (
"173 254 LINE",
"220 348 OFFCURVE",
"274 454 OFFCURVE",
"333 569 CURVE",
"320 441 OFFCURVE",
"308 342 OFFCURVE",
"298 254 CURVE"
);
}
);
width = 668;
},
{
anchors = (
{
name = top;
position = "{466, 660}";
}
);
layerId = "8C7E3CD8-8122-4AAB-8613-74D9DEE9A67D";
paths = (
{
closed = 1;
nodes = (
"332 177 LINE",
"332 172 OFFCURVE",
"331 160 OFFCURVE",
"331 147 CURVE SMOOTH",
"331 28 OFFCURVE",
"421 -20 OFFCURVE",
"544 -20 CURVE SMOOTH",
"624 -20 OFFCURVE",
"717 0 OFFCURVE",
"717 90 CURVE SMOOTH",
"717 103 OFFCURVE",
"715 122 OFFCURVE",
"708 139 CURVE",
"676 127 OFFCURVE",
"637 123 OFFCURVE",
"605 123 CURVE SMOOTH",
"542 123 OFFCURVE",
"514 139 OFFCURVE",
"514 202 CURVE SMOOTH",
"514 229 OFFCURVE",
"519 262 OFFCURVE",
"526 298 CURVE",
"555 283 OFFCURVE",
"595 275 OFFCURVE",
"624 275 CURVE SMOOTH",
"689 275 OFFCURVE",
"727 314 OFFCURVE",
"727 387 CURVE",
"538 387 LINE",
"562 562 LINE",
"600 544 OFFCURVE",
"646 535 OFFCURVE",
"680 535 CURVE SMOOTH",
"751 535 OFFCURVE",
"801 575 OFFCURVE",
"801 660 CURVE",
"323 660 LINE",
"-64 0 LINE",
"92 0 LINE",
"118 59 OFFCURVE",
"146 118 OFFCURVE",
"175 177 CURVE"
);
},
{
closed = 1;
nodes = (
"213 254 LINE",
"266 357 OFFCURVE",
"323 459 OFFCURVE",
"386 562 CURVE",
"363 405 OFFCURVE",
"350 312 OFFCURVE",
"342 254 CURVE"
);
}
);
width = 759;
},
{
anchors = (
{
name = top;
position = "{502, 660}";
}
);
layerId = "C4C1D9D9-3F21-4BC7-A2AB-A5431E2D31D1";
paths = (
{
closed = 1;
nodes = (
"354 177 LINE",
"355 177 OFFCURVE",
"354 171 OFFCURVE",
"354 157 CURVE SMOOTH",
"354 27 OFFCURVE",
"456 -20 OFFCURVE",
"589 -20 CURVE SMOOTH",
"681 -20 OFFCURVE",
"780 2 OFFCURVE",
"780 109 CURVE SMOOTH",
"780 124 OFFCURVE",
"778 146 OFFCURVE",
"770 168 CURVE",
"733 154 OFFCURVE",
"688 151 OFFCURVE",
"657 151 CURVE SMOOTH",
"594 151 OFFCURVE",
"572 164 OFFCURVE",
"572 223 CURVE SMOOTH",
"572 253 OFFCURVE",
"578 282 OFFCURVE",
"584 290 CURVE",
"615 273 OFFCURVE",
"657 265 OFFCURVE",
"684 265 CURVE SMOOTH",
"753 265 OFFCURVE",
"790 313 OFFCURVE",
"790 392 CURVE",
"599 392 LINE",
"625 547 LINE",
"664 528 OFFCURVE",
"704 520 OFFCURVE",
"735 520 CURVE SMOOTH",
"810 520 OFFCURVE",
"862 565 OFFCURVE",
"862 660 CURVE",
"341 660 LINE",
"-61 0 LINE",
"115 0 LINE",
"154 88 OFFCURVE",
"152 89 OFFCURVE",
"195 177 CURVE"
);
},
{
closed = 1;
nodes = (
"233 254 LINE",
"288 361 OFFCURVE",
"347 461 OFFCURVE",
"412 559 CURVE",
"384 387 OFFCURVE",
"371 297 OFFCURVE",
"364 254 CURVE"
);
}
);
width = 803;
}
);
leftKerningGroup = AE;
unicode = 00C6;
},
{
glyphname = B;
layers = (
{
layerId = UUID0;
paths = (
{
closed = 1;
nodes = (
"23 0 LINE",
"80 -5 OFFCURVE",
"153 -9 OFFCURVE",
"192 -9 CURVE SMOOTH",
"363 -9 OFFCURVE",
"511 71 OFFCURVE",
"511 227 CURVE SMOOTH",
"511 295 OFFCURVE",
"483 347 OFFCURVE",
"409 369 CURVE",
"475 402 OFFCURVE",
"519 455 OFFCURVE",
"519 534 CURVE SMOOTH",
"519 650 OFFCURVE",
"426 669 OFFCURVE",
"318 669 CURVE SMOOTH",
"263 669 OFFCURVE",
"191 664 OFFCURVE",
"149 660 CURVE"
);
},
{
closed = 1;
nodes = (
"255 596 LINE",
"272 600 OFFCURVE",
"290 603 OFFCURVE",
"311 603 CURVE SMOOTH",
"370 603 OFFCURVE",
"395 578 OFFCURVE",
"395 519 CURVE SMOOTH",
"395 436 OFFCURVE",
"346 385 OFFCURVE",
"261 385 CURVE SMOOTH",
"249 385 OFFCURVE",
"228 386 OFFCURVE",
"214 388 CURVE"
);
},
{
closed = 1;
nodes = (
"200 317 LINE",
"307 317 OFFCURVE",
"386 314 OFFCURVE",
"386 210 CURVE SMOOTH",
"386 117 OFFCURVE",
"321 60 OFFCURVE",
"220 60 CURVE SMOOTH",
"197 60 OFFCURVE",
"169 63 OFFCURVE",
"151 67 CURVE"
);
}
);
width = 545;
},
{
layerId = "8C7E3CD8-8122-4AAB-8613-74D9DEE9A67D";
paths = (
{
closed = 1;
nodes = (
"-6 0 LINE",
"85 -4 OFFCURVE",
"162 -5 OFFCURVE",
"191 -5 CURVE SMOOTH",
"420 -5 OFFCURVE",
"575 56 OFFCURVE",
"575 222 CURVE SMOOTH",
"575 328 OFFCURVE",
"511 361 OFFCURVE",
"455 373 CURVE",
"528 398 OFFCURVE",
"587 453 OFFCURVE",
"587 533 CURVE SMOOTH",
"587 656 OFFCURVE",
"449 665 OFFCURVE",
"316 665 CURVE SMOOTH",
"254 665 OFFCURVE",
"195 663 OFFCURVE",
"120 660 CURVE"
);
},
{
closed = 1;
nodes = (
"319 599 LINE",
"326 600 OFFCURVE",
"332 600 OFFCURVE",
"338 600 CURVE SMOOTH",
"394 600 OFFCURVE",
"418 575 OFFCURVE",
"418 517 CURVE SMOOTH",
"418 449 OFFCURVE",
"385 385 OFFCURVE",
"287 385 CURVE SMOOTH",
"284 385 OFFCURVE",
"280 385 OFFCURVE",
"277 385 CURVE"
);
},
{
closed = 1;
nodes = (
"264 317 LINE",
"338 313 OFFCURVE",
"379 289 OFFCURVE",
"379 213 CURVE SMOOTH",
"379 141 OFFCURVE",
"343 67 OFFCURVE",
"236 67 CURVE SMOOTH",
"232 67 OFFCURVE",
"225 67 OFFCURVE",
"216 68 CURVE"
);
}
);
width = 601;
},
{
layerId = "C4C1D9D9-3F21-4BC7-A2AB-A5431E2D31D1";
paths = (
{
closed = 1;
nodes = (
"-10 0 LINE",
"97 -4 OFFCURVE",
"176 -3 OFFCURVE",
"201 -3 CURVE SMOOTH",
"458 -3 OFFCURVE",
"616 49 OFFCURVE",
"616 220 CURVE SMOOTH",
"616 344 OFFCURVE",
"535 368 OFFCURVE",
"487 375 CURVE",
"564 396 OFFCURVE",
"630 452 OFFCURVE",
"630 533 CURVE SMOOTH",
"630 659 OFFCURVE",
"470 663 OFFCURVE",
"325 663 CURVE SMOOTH",
"260 663 OFFCURVE",
"207 663 OFFCURVE",
"116 660 CURVE"
);
},
{
closed = 1;
nodes = (
"360 600 LINE",
"362 600 OFFCURVE",
"363 599 OFFCURVE",
"361 599 CURVE SMOOTH",
"416 599 OFFCURVE",
"439 574 OFFCURVE",
"439 516 CURVE SMOOTH",
"439 455 OFFCURVE",
"414 385 OFFCURVE",
"310 385 CURVE SMOOTH",
"311 385 OFFCURVE",
"315 385 OFFCURVE",
"318 384 CURVE"
);
},
{
closed = 1;
nodes = (
"305 317 LINE",
"363 311 OFFCURVE",
"386 277 OFFCURVE",
"386 214 CURVE SMOOTH",
"386 153 OFFCURVE",
"364 70 OFFCURVE",
"254 70 CURVE SMOOTH",
"259 70 OFFCURVE",
"262 69 OFFCURVE",
"258 68 CURVE"
);
}
);
width = 632;
}
);
leftMetricsKey = H;
unicode = 0042;
},
{
glyphname = C;
layers = (
{
anchors = (
{
name = bottom;
position = "{257, 0}";
},
{
name = top;
position = "{360, 660}";
}
);
layerId = UUID0;
paths = (
{
closed = 1;
nodes = (
"139 680 OFFCURVE",
"27 426 OFFCURVE",
"27 224 CURVE SMOOTH",
"27 64 OFFCURVE",
"98 -20 OFFCURVE",
"227 -20 CURVE SMOOTH",
"339 -20 OFFCURVE",
"448 43 OFFCURVE",
"448 137 CURVE SMOOTH",
"448 165 OFFCURVE",
"438 180 OFFCURVE",
"416 192 CURVE",
"381 128 OFFCURVE",
"335 76 OFFCURVE",
"261 76 CURVE SMOOTH",
"175 76 OFFCURVE",
"152 146 OFFCURVE",
"152 231 CURVE SMOOTH",
"152 364 OFFCURVE",
"209 609 OFFCURVE",
"342 609 CURVE SMOOTH",
"387 609 OFFCURVE",
"411 581 OFFCURVE",
"411 539 CURVE SMOOTH",
"411 519 OFFCURVE",
"405 487 OFFCURVE",
"396 465 CURVE",
"406 454 OFFCURVE",
"427 449 OFFCURVE",
"445 449 CURVE SMOOTH",
"493 449 OFFCURVE",
"533 482 OFFCURVE",
"533 548 CURVE SMOOTH",
"533 633 OFFCURVE",
"466 680 OFFCURVE",
"368 680 CURVE SMOOTH"
);
}
);
width = 511;
},
{
anchors = (
{
name = bottom;
position = "{302, 0}";
},
{
name = top;
position = "{411, 660}";
}
);
layerId = "8C7E3CD8-8122-4AAB-8613-74D9DEE9A67D";
paths = (
{
closed = 1;
nodes = (
"166 680 OFFCURVE",
"21 491 OFFCURVE",
"21 254 CURVE SMOOTH",
"21 68 OFFCURVE",
"110 -20 OFFCURVE",
"287 -20 CURVE SMOOTH",
"451 -20 OFFCURVE",
"557 56 OFFCURVE",
"557 142 CURVE SMOOTH",
"557 159 OFFCURVE",
"553 191 OFFCURVE",
"531 207 CURVE",
"494 160 OFFCURVE",
"435 133 OFFCURVE",
"366 133 CURVE SMOOTH",
"276 133 OFFCURVE",
"237 180 OFFCURVE",
"237 272 CURVE SMOOTH",
"237 383 OFFCURVE",
"294 609 OFFCURVE",
"396 609 CURVE SMOOTH",
"447 609 OFFCURVE",
"451 554 OFFCURVE",
"451 518 CURVE SMOOTH",
"451 486 OFFCURVE",
"448 462 OFFCURVE",
"444 441 CURVE",
"458 436 OFFCURVE",
"476 434 OFFCURVE",
"490 434 CURVE SMOOTH",
"562 434 OFFCURVE",
"626 484 OFFCURVE",
"626 559 CURVE SMOOTH",
"626 654 OFFCURVE",
"521 680 OFFCURVE",
"425 680 CURVE SMOOTH"
);
}
);
width = 605;
},
{
anchors = (
{
name = bottom;
position = "{330, 0}";
},
{
name = top;
position = "{450, 660}";
}
);
layerId = "C4C1D9D9-3F21-4BC7-A2AB-A5431E2D31D1";
paths = (
{
closed = 1;
nodes = (
"195 680 OFFCURVE",
"34 523 OFFCURVE",
"34 269 CURVE SMOOTH",
"34 70 OFFCURVE",
"132 -20 OFFCURVE",
"332 -20 CURVE SMOOTH",
"522 -20 OFFCURVE",
"626 62 OFFCURVE",
"626 144 CURVE SMOOTH",
"626 156 OFFCURVE",
"625 196 OFFCURVE",
"603 214 CURVE",
"565 176 OFFCURVE",
"500 161 OFFCURVE",
"433 161 CURVE SMOOTH",
"341 161 OFFCURVE",
"295 197 OFFCURVE",
"295 292 CURVE SMOOTH",
"295 392 OFFCURVE",
"352 609 OFFCURVE",
"438 609 CURVE SMOOTH",
"481 609 OFFCURVE",
"492 564 OFFCURVE",
"492 516 CURVE SMOOTH",
"492 483 OFFCURVE",
"487 450 OFFCURVE",
"483 429 CURVE",
"499 427 OFFCURVE",
"516 427 OFFCURVE",
"528 427 CURVE SMOOTH",
"612 427 OFFCURVE",
"687 485 OFFCURVE",
"687 564 CURVE SMOOTH",
"687 664 OFFCURVE",
"564 680 OFFCURVE",
"469 680 CURVE SMOOTH"
);
}
);
width = 659;
}
);
leftKerningGroup = O;
leftMetricsKey = O;
unicode = 0043;
},
{
glyphname = D;
layers = (
{
anchors = (
{
name = bottom;
position = "{221, 0}";
},
{
name = center;
position = "{295, 330}";
},
{
name = top;
position = "{351, 660}";
}
);
layerId = UUID0;
paths = (
{
closed = 1;
nodes = (
"21 0 LINE",
"81 -5 OFFCURVE",
"166 -9 OFFCURVE",
"201 -9 CURVE SMOOTH",
"458 -9 OFFCURVE",
"569 213 OFFCURVE",
"569 436 CURVE SMOOTH",
"569 593 OFFCURVE",
"514 669 OFFCURVE",
"338 669 CURVE SMOOTH",
"293 669 OFFCURVE",
"199 664 OFFCURVE",
"149 660 CURVE"
);
},
{
closed = 1;
nodes = (
"253 592 LINE",
"276 596 OFFCURVE",
"303 599 OFFCURVE",
"325 599 CURVE SMOOTH",
"413 599 OFFCURVE",
"444 552 OFFCURVE",
"444 463 CURVE SMOOTH",
"444 400 OFFCURVE",
"428 312 OFFCURVE",
"415 260 CURVE SMOOTH",
"388 152 OFFCURVE",
"339 60 OFFCURVE",
"232 60 CURVE SMOOTH",
"212 60 OFFCURVE",
"173 63 OFFCURVE",
"150 67 CURVE"
);
}
);
width = 597;
},
{
anchors = (
{
name = bottom;
position = "{262, 0}";
},
{
name = center;
position = "{338, 330}";
},
{
name = top;
position = "{371, 660}";
}
);
layerId = "8C7E3CD8-8122-4AAB-8613-74D9DEE9A67D";
paths = (
{
closed = 1;
nodes = (
"-7 0 LINE",
"44 -3 OFFCURVE",
"145 -5 OFFCURVE",
"182 -5 CURVE SMOOTH",
"485 -5 OFFCURVE",
"653 127 OFFCURVE",
"653 400 CURVE SMOOTH",
"653 617 OFFCURVE",
"546 665 OFFCURVE",
"301 665 CURVE SMOOTH",
"266 665 OFFCURVE",
"186 664 OFFCURVE",
"120 660 CURVE"
);
},
{
closed = 1;
nodes = (
"319 591 LINE",
"332 593 OFFCURVE",
"347 594 OFFCURVE",
"360 594 CURVE SMOOTH",
"429 594 OFFCURVE",
"457 566 OFFCURVE",
"457 495 CURVE SMOOTH",
"457 459 OFFCURVE",
"450 395 OFFCURVE",
"439 333 CURVE SMOOTH",
"410 171 OFFCURVE",
"361 67 OFFCURVE",
"252 67 CURVE SMOOTH",
"241 67 OFFCURVE",
"231 68 OFFCURVE",
"218 70 CURVE"
);
}
);
width = 676;
},
{
anchors = (
{
name = bottom;
position = "{295, 0}";
},
{
name = center;
position = "{355, 330}";
},
{
name = top;
position = "{355, 660}";
}
);
layerId = "C4C1D9D9-3F21-4BC7-A2AB-A5431E2D31D1";
paths = (
{
closed = 1;
nodes = (
"-11 0 LINE",
"36 -2 OFFCURVE",
"145 -3 OFFCURVE",
"183 -3 CURVE SMOOTH",
"508 -3 OFFCURVE",
"704 85 OFFCURVE",
"704 382 CURVE SMOOTH",
"704 629 OFFCURVE",
"572 663 OFFCURVE",
"293 663 CURVE SMOOTH",
"263 663 OFFCURVE",
"190 664 OFFCURVE",
"116 660 CURVE"
);
},
{
closed = 1;
nodes = (
"361 591 LINE",
"369 592 OFFCURVE",
"379 592 OFFCURVE",
"387 592 CURVE SMOOTH",
"447 592 OFFCURVE",
"473 573 OFFCURVE",
"473 511 CURVE SMOOTH",
"473 488 OFFCURVE",
"471 436 OFFCURVE",
"461 369 CURVE SMOOTH",
"431 180 OFFCURVE",
"382 70 OFFCURVE",
"272 70 CURVE SMOOTH",
"265 70 OFFCURVE",
"269 70 OFFCURVE",
"261 71 CURVE"
);
}
);
width = 709;
}
);
leftMetricsKey = H;
rightKerningGroup = O;
rightMetricsKey = O;
unicode = 0044;
},
{
glyphname = Dcroat;
layers = (
{
layerId = UUID0;
paths = (
{
closed = 1;
nodes = (
"92 367 LINE",
"59 367 LINE SMOOTH",
"23 367 OFFCURVE",
"4 350 OFFCURVE",
"3 319 CURVE SMOOTH",
"3 314 OFFCURVE",
"3 303 OFFCURVE",
"5 295 CURVE",
"78 295 LINE",
"21 0 LINE",
"81 -5 OFFCURVE",
"166 -9 OFFCURVE",
"201 -9 CURVE SMOOTH",
"458 -9 OFFCURVE",
"569 213 OFFCURVE",
"569 436 CURVE SMOOTH",
"569 593 OFFCURVE",
"514 669 OFFCURVE",
"338 669 CURVE SMOOTH",
"293 669 OFFCURVE",
"199 664 OFFCURVE",
"149 660 CURVE"
);
},
{
closed = 1;
nodes = (
"195 295 LINE",
"301 295 LINE SMOOTH",
"347 295 OFFCURVE",
"364 314 OFFCURVE",
"364 343 CURVE SMOOTH",
"364 350 OFFCURVE",
"363 360 OFFCURVE",
"361 367 CURVE",
"209 367 LINE",
"253 592 LINE",
"276 596 OFFCURVE",
"303 599 OFFCURVE",
"325 599 CURVE SMOOTH",
"413 599 OFFCURVE",
"444 552 OFFCURVE",
"444 463 CURVE SMOOTH",
"444 400 OFFCURVE",
"428 312 OFFCURVE",
"415 260 CURVE SMOOTH",
"388 152 OFFCURVE",
"339 60 OFFCURVE",
"232 60 CURVE SMOOTH",
"212 60 OFFCURVE",
"173 63 OFFCURVE",
"150 67 CURVE"
);
}
);
width = 597;
},
{
layerId = "8C7E3CD8-8122-4AAB-8613-74D9DEE9A67D";
paths = (
{
closed = 1;
nodes = (
"67 383 LINE",
"45 383 LINE SMOOTH",
"6 383 OFFCURVE",
"-22 357 OFFCURVE",
"-23 318 CURVE SMOOTH",
"-23 311 OFFCURVE",
"-23 300 OFFCURVE",
"-20 291 CURVE",
"49 291 LINE",
"-7 0 LINE",
"44 -3 OFFCURVE",
"145 -5 OFFCURVE",
"182 -5 CURVE SMOOTH",
"485 -5 OFFCURVE",
"653 127 OFFCURVE",
"653 400 CURVE SMOOTH",
"653 617 OFFCURVE",
"546 665 OFFCURVE",
"301 665 CURVE SMOOTH",
"266 665 OFFCURVE",
"186 664 OFFCURVE",
"120 660 CURVE"
);
},
{
closed = 1;
nodes = (
"261 291 LINE",
"294 291 LINE SMOOTH",
"345 291 OFFCURVE",
"370 319 OFFCURVE",
"370 355 CURVE SMOOTH",
"370 365 OFFCURVE",
"368 375 OFFCURVE",
"366 383 CURVE",
"279 383 LINE",
"319 591 LINE",
"332 593 OFFCURVE",
"347 594 OFFCURVE",
"360 594 CURVE SMOOTH",
"429 594 OFFCURVE",
"457 566 OFFCURVE",
"457 495 CURVE SMOOTH",
"457 459 OFFCURVE",
"450 395 OFFCURVE",
"439 333 CURVE SMOOTH",
"410 171 OFFCURVE",
"361 67 OFFCURVE",
"252 67 CURVE SMOOTH",
"241 67 OFFCURVE",
"231 68 OFFCURVE",
"218 70 CURVE"
);
}
);
width = 676;
},
{
layerId = "C4C1D9D9-3F21-4BC7-A2AB-A5431E2D31D1";
paths = (
{
closed = 1;
nodes = (
"94 391 LINE",
"77 391 LINE SMOOTH",
"37 391 OFFCURVE",
"4 360 OFFCURVE",
"3 318 CURVE SMOOTH",
"3 310 OFFCURVE",
"3 299 OFFCURVE",
"7 289 CURVE",
"74 289 LINE",
"18 0 LINE",
"65 -2 OFFCURVE",
"174 -3 OFFCURVE",
"212 -3 CURVE SMOOTH",
"537 -3 OFFCURVE",
"733 85 OFFCURVE",
"733 382 CURVE SMOOTH",
"733 629 OFFCURVE",
"601 663 OFFCURVE",
"322 663 CURVE SMOOTH",
"292 663 OFFCURVE",
"219 664 OFFCURVE",
"145 660 CURVE"
);
},
{
closed = 1;
nodes = (
"332 289 LINE",
"330 289 LINE SMOOTH",
"383 289 OFFCURVE",
"412 321 OFFCURVE",
"412 361 CURVE SMOOTH",
"412 372 OFFCURVE",
"409 382 OFFCURVE",
"407 391 CURVE",
"352 391 LINE",
"390 591 LINE",
"398 592 OFFCURVE",
"408 592 OFFCURVE",
"416 592 CURVE SMOOTH",
"476 592 OFFCURVE",
"502 573 OFFCURVE",
"502 511 CURVE SMOOTH",
"502 488 OFFCURVE",
"500 436 OFFCURVE",
"490 369 CURVE SMOOTH",
"460 180 OFFCURVE",
"411 70 OFFCURVE",
"301 70 CURVE SMOOTH",
"294 70 OFFCURVE",
"298 70 OFFCURVE",
"290 71 CURVE"
);
}
);
width = 738;
}
);
rightKerningGroup = O;
rightMetricsKey = D;
unicode = 0110;
},
{
glyphname = E;
layers = (
{
anchors = (
{
name = bottom;
position = "{201, 0}";
},
{
name = ogonek;
position = "{340, 10}";
},
{
name = top;
position = "{311, 660}";
}
);
layerId = UUID0;
paths = (
{
closed = 1;
nodes = (
"149 660 LINE",
"22 0 LINE",
"270 0 LINE SMOOTH",
"318 0 OFFCURVE",
"372 7 OFFCURVE",
"372 56 CURVE SMOOTH",
"372 72 OFFCURVE",
"366 90 OFFCURVE",
"358 101 CURVE",
"339 92 OFFCURVE",
"300 89 OFFCURVE",
"279 89 CURVE SMOOTH",
"158 89 LINE",
"199 318 LINE",
"226 305 OFFCURVE",
"260 295 OFFCURVE",
"296 295 CURVE SMOOTH",
"350 295 OFFCURVE",
"392 317 OFFCURVE",
"392 377 CURVE",
"212 377 LINE",
"249 592 LINE",
"286 577 OFFCURVE",
"331 565 OFFCURVE",
"371 565 CURVE SMOOTH",
"434 565 OFFCURVE",
"479 595 OFFCURVE",
"479 660 CURVE"
);
}
);
width = 440;
},
{
anchors = (
{
name = bottom;
position = "{220, 0}";
},
{
name = ogonek;
position = "{386, 10}";
},
{
name = top;
position = "{341, 660}";
}
);
layerId = "8C7E3CD8-8122-4AAB-8613-74D9DEE9A67D";
paths = (
{
closed = 1;
nodes = (
"120 660 LINE",
"-3 0 LINE",
"312 0 LINE SMOOTH",
"373 0 OFFCURVE",
"437 13 OFFCURVE",
"437 75 CURVE SMOOTH",
"437 91 OFFCURVE",
"433 117 OFFCURVE",
"423 130 CURVE",
"404 124 OFFCURVE",
"369 120 OFFCURVE",
"324 120 CURVE SMOOTH",
"235 120 LINE",
"268 298 LINE",
"272 294 OFFCURVE",
"314 275 OFFCURVE",
"361 275 CURVE SMOOTH",
"430 275 OFFCURVE",
"464 317 OFFCURVE",
"464 387 CURVE",
"286 387 LINE",
"317 562 LINE",
"334 554 OFFCURVE",
"380 535 OFFCURVE",
"433 535 CURVE SMOOTH",
"513 535 OFFCURVE",
"551 579 OFFCURVE",
"551 660 CURVE"
);
}
);
width = 497;
},
{
anchors = (
{
name = bottom;
position = "{226, 0}";
},
{
name = ogonek;
position = "{423, 10}";
},
{
name = top;
position = "{334, 660}";
}
);
layerId = "C4C1D9D9-3F21-4BC7-A2AB-A5431E2D31D1";
paths = (
{
closed = 1;
nodes = (
"116 660 LINE",
"-5 0 LINE",
"343 0 LINE SMOOTH",
"410 0 OFFCURVE",
"479 16 OFFCURVE",
"479 84 CURVE SMOOTH",
"479 100 OFFCURVE",
"476 130 OFFCURVE",
"465 144 CURVE",
"446 140 OFFCURVE",
"413 135 OFFCURVE",
"356 135 CURVE SMOOTH",
"283 135 LINE",
"312 288 LINE",
"305 289 OFFCURVE",
"350 265 OFFCURVE",
"403 265 CURVE SMOOTH",
"479 265 OFFCURVE",
"509 317 OFFCURVE",
"509 392 CURVE",
"332 392 LINE",
"360 547 LINE",
"367 543 OFFCURVE",
"414 520 OFFCURVE",
"473 520 CURVE SMOOTH",
"562 520 OFFCURVE",
"596 571 OFFCURVE",
"596 660 CURVE"
);
}
);
width = 535;
}
);
leftMetricsKey = H;
unicode = 0045;
},
{
glyphname = F;
layers = (
{
layerId = UUID0;
paths = (
{
closed = 1;
nodes = (
"149 660 LINE",
"22 0 LINE",
"142 0 LINE",
"199 318 LINE",
"226 305 OFFCURVE",
"260 295 OFFCURVE",
"296 295 CURVE SMOOTH",
"350 295 OFFCURVE",
"392 317 OFFCURVE",
"392 377 CURVE",
"212 377 LINE",
"249 592 LINE",
"286 577 OFFCURVE",
"331 565 OFFCURVE",
"371 565 CURVE SMOOTH",
"434 565 OFFCURVE",
"479 595 OFFCURVE",
"479 660 CURVE"
);
}
);
width = 431;
},
{
layerId = "8C7E3CD8-8122-4AAB-8613-74D9DEE9A67D";
paths = (
{
closed = 1;
nodes = (
"120 660 LINE",
"-3 0 LINE",
"215 0 LINE",
"268 299 LINE",
"283 292 OFFCURVE",
"326 275 OFFCURVE",
"371 275 CURVE SMOOTH",
"451 275 OFFCURVE",
"480 327 OFFCURVE",
"480 395 CURVE",
"287 395 LINE",
"317 557 LINE",
"347 543 OFFCURVE",
"404 530 OFFCURVE",
"449 530 CURVE SMOOTH",
"535 530 OFFCURVE",
"564 577 OFFCURVE",
"564 660 CURVE"
);
}
);
width = 511;
},
{
layerId = "C4C1D9D9-3F21-4BC7-A2AB-A5431E2D31D1";
paths = (
{
closed = 1;
nodes = (
"116 660 LINE",
"-5 0 LINE",
"261 0 LINE",
"312 290 LINE",
"321 286 OFFCURVE",
"368 265 OFFCURVE",
"418 265 CURVE SMOOTH",
"510 265 OFFCURVE",
"533 332 OFFCURVE",
"533 404 CURVE",
"334 404 LINE",
"360 540 LINE",
"387 526 OFFCURVE",
"450 513 OFFCURVE",
"497 513 CURVE SMOOTH",
"594 513 OFFCURVE",
"616 568 OFFCURVE",
"616 660 CURVE"
);
}
);
width = 556;
}
);
leftMetricsKey = H;
rightMetricsKey = E;
unicode = 0046;
},
{
glyphname = G;
layers = (
{
anchors = (
{
name = bottom;
position = "{251, 0}";
},
{
name = top;
position = "{366, 660}";
}
);
layerId = UUID0;
paths = (
{
closed = 1;
nodes = (
"380 308 LINE",
"348 97 LINE",
"326 81 OFFCURVE",
"289 76 OFFCURVE",
"264 76 CURVE SMOOTH",
"175 76 OFFCURVE",
"152 142 OFFCURVE",
"152 229 CURVE SMOOTH",
"152 364 OFFCURVE",
"208 609 OFFCURVE",
"343 609 CURVE SMOOTH",
"386 609 OFFCURVE",
"411 581 OFFCURVE",
"411 539 CURVE SMOOTH",
"411 519 OFFCURVE",
"405 487 OFFCURVE",
"396 465 CURVE",
"406 454 OFFCURVE",
"427 449 OFFCURVE",
"445 449 CURVE SMOOTH",
"493 449 OFFCURVE",
"533 482 OFFCURVE",
"533 548 CURVE SMOOTH",
"533 633 OFFCURVE",
"466 680 OFFCURVE",
"368 680 CURVE SMOOTH",
"139 680 OFFCURVE",
"27 427 OFFCURVE",
"27 221 CURVE SMOOTH",
"27 72 OFFCURVE",
"86 -20 OFFCURVE",
"201 -20 CURVE SMOOTH",
"269 -20 OFFCURVE",
"323 14 OFFCURVE",
"352 38 CURVE",
"352 2 OFFCURVE",
"370 -20 OFFCURVE",
"410 -20 CURVE SMOOTH",
"425 -20 OFFCURVE",
"438 -15 OFFCURVE",
"445 -4 CURVE",
"448 91 OFFCURVE",
"464 231 OFFCURVE",
"507 326 CURVE"
);
}
);
width = 527;
},
{
anchors = (
{
name = bottom;
position = "{293, 0}";
},
{
name = top;
position = "{427, 660}";
}
);
layerId = "8C7E3CD8-8122-4AAB-8613-74D9DEE9A67D";
paths = (
{
closed = 1;
nodes = (
"432 322 LINE",
"400 121 LINE",
"387 105 OFFCURVE",
"356 99 OFFCURVE",
"335 99 CURVE SMOOTH",
"252 99 OFFCURVE",
"236 194 OFFCURVE",
"236 264 CURVE SMOOTH",
"236 405 OFFCURVE",
"302 609 OFFCURVE",
"401 609 CURVE SMOOTH",
"453 609 OFFCURVE",
"456 552 OFFCURVE",
"456 519 CURVE SMOOTH",
"456 485 OFFCURVE",
"453 462 OFFCURVE",
"449 441 CURVE",
"463 436 OFFCURVE",
"481 434 OFFCURVE",
"495 434 CURVE SMOOTH",
"567 434 OFFCURVE",
"631 484 OFFCURVE",
"631 559 CURVE SMOOTH",
"631 655 OFFCURVE",
"524 680 OFFCURVE",
"428 680 CURVE SMOOTH",
"168 680 OFFCURVE",
"21 495 OFFCURVE",
"21 251 CURVE SMOOTH",
"21 87 OFFCURVE",
"88 -20 OFFCURVE",
"237 -20 CURVE SMOOTH",
"293 -20 OFFCURVE",
"358 -5 OFFCURVE",
"401 36 CURVE",
"406 12 OFFCURVE",
"443 -20 OFFCURVE",
"500 -20 CURVE SMOOTH",
"525 -20 OFFCURVE",
"543 -14 OFFCURVE",
"562 -1 CURVE",
"562 118 OFFCURVE",
"586 235 OFFCURVE",
"634 340 CURVE"
);
}
);
width = 641;
},
{
anchors = (
{
name = bottom;
position = "{327, 0}";
},
{
name = top;
position = "{464, 660}";
}
);
layerId = "C4C1D9D9-3F21-4BC7-A2AB-A5431E2D31D1";
paths = (
{
closed = 1;
nodes = (
"473 329 LINE",
"441 133 LINE",
"433 117 OFFCURVE",
"405 110 OFFCURVE",
"386 110 CURVE SMOOTH",
"306 110 OFFCURVE",
"293 219 OFFCURVE",
"293 281 CURVE SMOOTH",
"293 425 OFFCURVE",
"364 609 OFFCURVE",
"445 609 CURVE SMOOTH",
"484 609 OFFCURVE",
"500 574 OFFCURVE",
"500 518 CURVE SMOOTH",
"500 492 OFFCURVE",
"497 462 OFFCURVE",
"491 429 CURVE",
"507 427 OFFCURVE",
"523 427 OFFCURVE",
"535 427 CURVE SMOOTH",
"619 427 OFFCURVE",
"695 485 OFFCURVE",
"695 564 CURVE SMOOTH",
"695 666 OFFCURVE",
"568 680 OFFCURVE",
"473 680 CURVE SMOOTH",
"198 680 OFFCURVE",
"34 528 OFFCURVE",
"34 266 CURVE SMOOTH",
"34 94 OFFCURVE",
"105 -20 OFFCURVE",
"265 -20 CURVE SMOOTH",
"321 -20 OFFCURVE",
"393 -7 OFFCURVE",
"443 42 CURVE",
"445 19 OFFCURVE",
"489 -20 OFFCURVE",
"560 -20 CURVE SMOOTH",
"590 -20 OFFCURVE",
"610 -14 OFFCURVE",
"635 0 CURVE",
"634 131 OFFCURVE",
"662 237 OFFCURVE",
"712 347 CURVE"
);
}
);
width = 704;
}
);
leftKerningGroup = O;
leftMetricsKey = O;
rightMetricsKey = C;
unicode = 0047;
},
{
glyphname = H;
layers = (
{
anchors = (
{
name = bottom;
position = "{261, 0}";
},
{
name = center;
position = "{307, 330}";
},
{
name = top;
position = "{368, 660}";
}
);
layerId = UUID0;
paths = (
{
closed = 1;
nodes = (
"482 660 LINE",
"426 360 LINE",
"208 360 LINE",
"267 660 LINE",
"149 660 LINE",
"22 0 LINE",
"138 0 LINE",
"194 290 LINE",
"413 290 LINE",
"386 133 LINE SMOOTH",
"377 78 OFFCURVE",
"375 62 OFFCURVE",
"375 47 CURVE SMOOTH",
"375 6 OFFCURVE",
"389 -20 OFFCURVE",
"435 -20 CURVE SMOOTH",
"459 -20 OFFCURVE",
"481 -13 OFFCURVE",
"502 4 CURVE",
"493 19 OFFCURVE",
"490 35 OFFCURVE",
"490 49 CURVE SMOOTH",
"490 63 OFFCURVE",
"493 83 OFFCURVE",
"495 94 CURVE SMOOTH",
"600 660 LINE"
);
}
);
width = 614;
},
{
anchors = (
{
name = bottom;
position = "{291, 0}";
},
{
name = center;
position = "{340, 330}";
},
{
name = top;
position = "{405, 660}";
}
);
layerId = "8C7E3CD8-8122-4AAB-8613-74D9DEE9A67D";
paths = (
{
closed = 1;
nodes = (
"476 660 LINE",
"421 365 LINE",
"273 365 LINE",
"331 660 LINE",
"120 660 LINE",
"-7 0 LINE",
"202 0 LINE",
"257 285 LINE",
"406 285 LINE",
"387 169 LINE SMOOTH",
"381 130 OFFCURVE",
"377 99 OFFCURVE",
"377 79 CURVE SMOOTH",
"377 21 OFFCURVE",
"409 -20 OFFCURVE",
"482 -20 CURVE SMOOTH",
"520 -20 OFFCURVE",
"563 -9 OFFCURVE",
"596 14 CURVE",
"589 26 OFFCURVE",
"583 51 OFFCURVE",
"583 77 CURVE SMOOTH",
"583 99 OFFCURVE",
"587 132 OFFCURVE",
"592 160 CURVE SMOOTH",
"687 660 LINE"
);
}
);
width = 680;
},
{
anchors = (
{
name = bottom;
position = "{321, 0}";
},
{
name = center;
position = "{349, 330}";
},
{
name = top;
position = "{429, 660}";
}
);
layerId = "C4C1D9D9-3F21-4BC7-A2AB-A5431E2D31D1";
paths = (
{
closed = 1;
nodes = (
"483 660 LINE",
"429 367 LINE",
"315 367 LINE",
"372 660 LINE",
"116 660 LINE",
"-11 0 LINE",
"243 0 LINE",
"298 283 LINE",
"413 283 LINE",
"397 187 LINE SMOOTH",
"393 155 OFFCURVE",
"388 117 OFFCURVE",
"388 95 CURVE SMOOTH",
"388 28 OFFCURVE",
"429 -20 OFFCURVE",
"515 -20 CURVE SMOOTH",
"560 -20 OFFCURVE",
"613 -7 OFFCURVE",
"652 19 CURVE",
"646 29 OFFCURVE",
"638 59 OFFCURVE",
"638 91 CURVE SMOOTH",
"638 117 OFFCURVE",
"643 156 OFFCURVE",
"649 192 CURVE SMOOTH",
"740 660 LINE"
);
}
);
width = 697;
}
);
unicode = 0048;
},
{
glyphname = Hbar;
layers = (
{
layerId = UUID0;
paths = (
{
closed = 1;
nodes = (
"482 660 LINE",
"457 524 LINE",
"240 524 LINE",
"267 660 LINE",
"149 660 LINE",
"123 524 LINE",
"103 524 LINE SMOOTH",
"67 524 OFFCURVE",
"43 502 OFFCURVE",
"42 466 CURVE SMOOTH",
"42 461 OFFCURVE",
"42 450 OFFCURVE",
"44 442 CURVE",
"107 442 LINE",
"22 0 LINE",
"138 0 LINE",
"194 290 LINE",
"413 290 LINE",
"386 133 LINE SMOOTH",
"377 78 OFFCURVE",
"375 62 OFFCURVE",
"375 47 CURVE SMOOTH",
"375 6 OFFCURVE",
"389 -20 OFFCURVE",
"435 -20 CURVE SMOOTH",
"459 -20 OFFCURVE",
"481 -13 OFFCURVE",
"502 4 CURVE",
"493 19 OFFCURVE",
"490 35 OFFCURVE",
"490 49 CURVE SMOOTH",
"490 63 OFFCURVE",
"493 83 OFFCURVE",
"495 94 CURVE SMOOTH",
"565 470 LINE",
"530 442 LINE",
"575 442 LINE SMOOTH",
"621 442 OFFCURVE",
"643 466 OFFCURVE",
"643 500 CURVE SMOOTH",
"643 507 OFFCURVE",
"642 517 OFFCURVE",
"640 524 CURVE",
"575 524 LINE",
"600 660 LINE"
);
},
{
closed = 1;
nodes = (
"426 360 LINE",
"208 360 LINE",
"224 442 LINE",
"441 442 LINE"
);
}
);
width = 614;
},
{
layerId = "8C7E3CD8-8122-4AAB-8613-74D9DEE9A67D";
paths = (
{
closed = 1;
nodes = (
"476 660 LINE",
"460 575 LINE",
"314 575 LINE",
"331 660 LINE",
"120 660 LINE",
"104 575 LINE",
"94 575 LINE SMOOTH",
"55 575 OFFCURVE",
"27 549 OFFCURVE",
"26 510 CURVE SMOOTH",
"26 503 OFFCURVE",
"26 492 OFFCURVE",
"29 483 CURVE",
"86 483 LINE",
"-7 0 LINE",
"202 0 LINE",
"257 285 LINE",
"406 285 LINE",
"387 169 LINE SMOOTH",
"381 130 OFFCURVE",
"377 99 OFFCURVE",
"377 79 CURVE SMOOTH",
"377 21 OFFCURVE",
"409 -20 OFFCURVE",
"482 -20 CURVE SMOOTH",
"520 -20 OFFCURVE",
"563 -9 OFFCURVE",
"596 14 CURVE",
"589 26 OFFCURVE",
"583 51 OFFCURVE",
"583 77 CURVE SMOOTH",
"583 99 OFFCURVE",
"587 132 OFFCURVE",
"592 160 CURVE SMOOTH",
"661 520 LINE",
"615 483 LINE",
"653 483 LINE SMOOTH",
"704 483 OFFCURVE",
"729 511 OFFCURVE",
"729 547 CURVE SMOOTH",
"729 557 OFFCURVE",
"727 567 OFFCURVE",
"725 575 CURVE",
"671 575 LINE",
"687 660 LINE"
);
},
{
closed = 1;
nodes = (
"421 365 LINE",
"273 365 LINE",
"296 483 LINE",
"443 483 LINE"
);
}
);
width = 680;
},
{
layerId = "C4C1D9D9-3F21-4BC7-A2AB-A5431E2D31D1";
paths = (
{
closed = 1;
nodes = (
"473 660 LINE",
"461 600 LINE",
"350 600 LINE",
"362 660 LINE",
"106 660 LINE",
"95 600 LINE",
"90 600 LINE SMOOTH",
"49 600 OFFCURVE",
"19 572 OFFCURVE",
"18 532 CURVE SMOOTH",
"18 524 OFFCURVE",
"18 513 OFFCURVE",
"22 503 CURVE",
"76 503 LINE",
"-21 0 LINE",
"233 0 LINE",
"288 283 LINE",
"403 283 LINE",
"387 187 LINE SMOOTH",
"383 155 OFFCURVE",
"378 117 OFFCURVE",
"378 95 CURVE SMOOTH",
"378 28 OFFCURVE",
"419 -20 OFFCURVE",
"505 -20 CURVE SMOOTH",
"550 -20 OFFCURVE",
"603 -7 OFFCURVE",
"642 19 CURVE",
"636 29 OFFCURVE",
"628 59 OFFCURVE",
"628 91 CURVE SMOOTH",
"628 117 OFFCURVE",
"633 156 OFFCURVE",
"639 192 CURVE SMOOTH",
"708 544 LINE",
"657 503 LINE",
"691 503 LINE SMOOTH",
"745 503 OFFCURVE",
"771 533 OFFCURVE",
"771 570 CURVE SMOOTH",
"771 581 OFFCURVE",
"769 591 OFFCURVE",
"767 600 CURVE",
"718 600 LINE",
"730 660 LINE"
);
},
{
closed = 1;
nodes = (
"419 367 LINE",
"305 367 LINE",
"331 503 LINE",
"444 503 LINE"
);
}
);
width = 712;
}
);
unicode = 0126;
},
{
glyphname = I;
layers = (
{
anchors = (
{
name = bottom;
position = "{83, 0}";
},
{
name = ogonek;
position = "{140, 10}";
},
{
name = top;
position = "{217, 660}";
}
);
layerId = UUID0;
paths = (
{
closed = 1;
nodes = (
"149 660 LINE",
"22 0 LINE",
"138 0 LINE",
"267 660 LINE"
);
}
);
width = 289;
},
{
anchors = (
{
name = bottom;
position = "{98, 0}";
},
{
name = ogonek;
position = "{213, 10}";
},
{
name = top;
position = "{234, 660}";
}
);
layerId = "8C7E3CD8-8122-4AAB-8613-74D9DEE9A67D";
paths = (
{
closed = 1;
nodes = (
"120 660 LINE",
"-7 0 LINE",
"211 0 LINE",
"340 660 LINE"
);
}
);
width = 336;
},
{
anchors = (
{
name = bottom;
position = "{131, 0}";
},
{
name = ogonek;
position = "{259, 10}";
},
{
name = top;
position = "{256, 660}";
}
);
layerId = "C4C1D9D9-3F21-4BC7-A2AB-A5431E2D31D1";
paths = (
{
closed = 1;
nodes = (
"116 660 LINE",
"-11 0 LINE",
"257 0 LINE",
"386 660 LINE"
);
}
);
width = 339;
}
);
leftMetricsKey = H;
unicode = 0049;
},
{
glyphname = J;
layers = (
{
anchors = (
{
name = top;
position = "{218, 660}";
}
);
layerId = UUID0;
paths = (
{
closed = 1;
nodes = (
"149 660 LINE",
"32 50 LINE SMOOTH",
"20 -11 OFFCURVE",
"0 -98 OFFCURVE",
"-58 -121 CURVE",
"-47 -147 OFFCURVE",
"-21 -160 OFFCURVE",
"8 -160 CURVE SMOOTH",
"90 -160 OFFCURVE",
"128 -54 OFFCURVE",
"152 70 CURVE SMOOTH",
"267 660 LINE"
);
}
);
width = 289;
},
{
anchors = (
{
name = top;
position = "{231, 660}";
}
);
layerId = "8C7E3CD8-8122-4AAB-8613-74D9DEE9A67D";
paths = (
{
closed = 1;
nodes = (
"122 660 LINE",
"25 155 LINE SMOOTH",
"-19 -72 OFFCURVE",
"-46 -107 OFFCURVE",
"-121 -138 CURVE",
"-106 -173 OFFCURVE",
"-63 -190 OFFCURVE",
"-7 -190 CURVE SMOOTH",
"123 -190 OFFCURVE",
"194 -98 OFFCURVE",
"242 155 CURVE SMOOTH",
"339 660 LINE"
);
}
);
width = 336;
},
{
anchors = (
{
name = top;
position = "{250, 660}";
}
);
layerId = "C4C1D9D9-3F21-4BC7-A2AB-A5431E2D31D1";
paths = (
{
closed = 1;
nodes = (
"119 660 LINE",
"32 206 LINE SMOOTH",
"-28 -102 OFFCURVE",
"-58 -111 OFFCURVE",
"-142 -146 CURVE",
"-125 -186 OFFCURVE",
"-74 -205 OFFCURVE",
"-4 -205 CURVE SMOOTH",
"149 -205 OFFCURVE",
"236 -120 OFFCURVE",
"296 197 CURVE SMOOTH",
"384 660 LINE"
);
}
);
width = 339;
}
);
rightMetricsKey = I;
unicode = 004A;
},
{
glyphname = K;
layers = (
{
anchors = (
{
name = bottom;
position = "{258, 0}";
},
{
name = top;
position = "{336, 660}";
}
);
layerId = UUID0;
paths = (
{
closed = 1;
nodes = (
"149 660 LINE",
"139 604 OFFCURVE",
"72 244 OFFCURVE",
"25 0 CURVE",
"141 0 LINE",
"267 660 LINE"
);
},
{
closed = 1;
nodes = (
"468 660 LINE",
"225 328 LINE",
"314 78 OFFCURVE",
"355 -19 OFFCURVE",
"447 -19 CURVE SMOOTH",
"486 -19 OFFCURVE",
"516 -1 OFFCURVE",
"525 35 CURVE",
"480 56 OFFCURVE",
"410 149 OFFCURVE",
"338 336 CURVE",
"363 368 OFFCURVE",
"459 486 OFFCURVE",
"598 660 CURVE"
);
}
);
width = 558;
},
{
anchors = (
{
name = bottom;
position = "{295, 0}";
},
{
name = top;
position = "{410, 660}";
}
);
layerId = "8C7E3CD8-8122-4AAB-8613-74D9DEE9A67D";
paths = (
{
closed = 1;
nodes = (
"120 660 LINE",
"108 604 OFFCURVE",
"40 244 OFFCURVE",
"-5 0 CURVE",
"208 0 LINE",
"334 660 LINE"
);
},
{
closed = 1;
nodes = (
"535 660 LINE",
"292 328 LINE",
"332 126 OFFCURVE",
"371 -20 OFFCURVE",
"512 -20 CURVE SMOOTH",
"571 -20 OFFCURVE",
"614 6 OFFCURVE",
"631 59 CURVE",
"570 91 OFFCURVE",
"517 189 OFFCURVE",
"475 336 CURVE",
"500 367 OFFCURVE",
"592 486 OFFCURVE",
"754 660 CURVE"
);
}
);
width = 642;
},
{
anchors = (
{
name = bottom;
position = "{348, 0}";
},
{
name = top;
position = "{438, 660}";
}
);
layerId = "C4C1D9D9-3F21-4BC7-A2AB-A5431E2D31D1";
paths = (
{
closed = 1;
nodes = (
"117 660 LINE",
"104 604 OFFCURVE",
"36 244 OFFCURVE",
"-8 0 CURVE",
"252 0 LINE",
"378 660 LINE"
);
},
{
closed = 1;
nodes = (
"579 660 LINE",
"336 328 LINE",
"352 149 OFFCURVE",
"390 -20 OFFCURVE",
"555 -20 CURVE SMOOTH",
"624 -20 OFFCURVE",
"673 9 OFFCURVE",
"694 71 CURVE",
"625 108 OFFCURVE",
"581 209 OFFCURVE",
"553 336 CURVE",
"578 367 OFFCURVE",
"668 486 OFFCURVE",
"842 660 CURVE"
);
}
);
width = 748;
}
);
leftMetricsKey = H;
rightKerningGroup = K;
unicode = 004B;
},
{
glyphname = L;
layers = (
{
anchors = (
{
name = bottom;
position = "{188, 0}";
},
{
name = caron;
position = "{363, 508}";
},
{
name = center;
position = "{345, 329}";
},
{
name = top;
position = "{188, 660}";
}
);
layerId = UUID0;
paths = (
{
closed = 1;
nodes = (
"270 0 LINE SMOOTH",
"318 0 OFFCURVE",
"372 7 OFFCURVE",
"372 56 CURVE SMOOTH",
"372 72 OFFCURVE",
"366 90 OFFCURVE",
"358 101 CURVE",
"339 92 OFFCURVE",
"300 89 OFFCURVE",
"279 89 CURVE SMOOTH",
"155 89 LINE",
"267 660 LINE",
"149 660 LINE",
"22 0 LINE"
);
}
);
width = 375;
},
{
anchors = (
{
name = bottom;
position = "{194, 0}";
},
{
name = caron;
position = "{399, 508}";
},
{
name = center;
position = "{389, 329}";
},
{
name = top;
position = "{225, 660}";
}
);
layerId = "8C7E3CD8-8122-4AAB-8613-74D9DEE9A67D";
paths = (
{
closed = 1;
nodes = (
"319 0 LINE SMOOTH",
"382 0 OFFCURVE",
"443 12 OFFCURVE",
"443 75 CURVE SMOOTH",
"443 91 OFFCURVE",
"439 117 OFFCURVE",
"429 130 CURVE",
"410 124 OFFCURVE",
"375 120 OFFCURVE",
"330 120 CURVE SMOOTH",
"241 120 LINE",
"339 660 LINE",
"120 660 LINE",
"-1 0 LINE"
);
}
);
width = 443;
},
{
anchors = (
{
name = bottom;
position = "{223, 0}";
},
{
name = caron;
position = "{430, 508}";
},
{
name = center;
position = "{456, 329}";
},
{
name = top;
position = "{254, 660}";
}
);
layerId = "C4C1D9D9-3F21-4BC7-A2AB-A5431E2D31D1";
paths = (
{
closed = 1;
nodes = (
"353 0 LINE SMOOTH",
"423 0 OFFCURVE",
"488 14 OFFCURVE",
"488 84 CURVE SMOOTH",
"488 100 OFFCURVE",
"485 130 OFFCURVE",
"474 144 CURVE",
"455 140 OFFCURVE",
"422 135 OFFCURVE",
"365 135 CURVE SMOOTH",
"293 135 LINE",
"384 660 LINE",
"116 660 LINE",
"-2 0 LINE"
);
}
);
width = 508;
}
);
leftMetricsKey = H;
rightKerningGroup = L;
unicode = 004C;
},
{
glyphname = Ldot;
layers = (
{
components = (
{
name = L;
}
);
layerId = UUID0;
paths = (
{
closed = 1;
nodes = (
"295 406 OFFCURVE",
"261 385 OFFCURVE",
"254 347 CURVE SMOOTH",
"247 311 OFFCURVE",
"269 290 OFFCURVE",
"300 290 CURVE SMOOTH",
"331 290 OFFCURVE",
"366 311 OFFCURVE",
"373 349 CURVE SMOOTH",
"380 385 OFFCURVE",
"357 406 OFFCURVE",
"326 406 CURVE SMOOTH"
);
}
);
width = 375;
},
{
components = (
{
name = L;
}
);
layerId = "8C7E3CD8-8122-4AAB-8613-74D9DEE9A67D";
paths = (
{
closed = 1;
nodes = (
"352 395 OFFCURVE",
"318 367 OFFCURVE",
"309 323 CURVE SMOOTH",
"301 283 OFFCURVE",
"320 256 OFFCURVE",
"362 256 CURVE SMOOTH",
"404 256 OFFCURVE",
"435 283 OFFCURVE",
"444 326 CURVE SMOOTH",
"452 368 OFFCURVE",
"433 395 OFFCURVE",
"393 395 CURVE SMOOTH"
);
}
);
width = 443;
},
{
components = (
{
name = L;
}
);
layerId = "C4C1D9D9-3F21-4BC7-A2AB-A5431E2D31D1";
paths = (
{
closed = 1;
nodes = (
"404 387 OFFCURVE",
"364 353 OFFCURVE",
"356 310 CURVE SMOOTH",
"349 272 OFFCURVE",
"370 240 OFFCURVE",
"416 240 CURVE SMOOTH",
"462 240 OFFCURVE",
"498 272 OFFCURVE",
"506 314 CURVE SMOOTH",
"514 354 OFFCURVE",
"492 387 OFFCURVE",
"449 387 CURVE SMOOTH"
);
}
);
width = 508;
}
);
leftMetricsKey = L;
unicode = 013F;
},
{
glyphname = Lslash;
layers = (
{
layerId = UUID0;
paths = (
{
closed = 1;
nodes = (
"177 89 LINE",
"219 303 LINE",
"300 332 LINE SMOOTH",
"339 346 OFFCURVE",
"360 361 OFFCURVE",
"360 391 CURVE SMOOTH",
"360 404 OFFCURVE",
"356 422 OFFCURVE",
"344 433 CURVE",
"237 393 LINE",
"289 660 LINE",
"171 660 LINE",
"111 347 LINE",
"25 315 LINE SMOOTH",
"-3 304 OFFCURVE",
"-13 285 OFFCURVE",
"-13 264 CURVE SMOOTH",
"-13 246 OFFCURVE",
"-5 236 OFFCURVE",
"5 225 CURVE",
"93 257 LINE",
"44 0 LINE",
"292 0 LINE SMOOTH",
"340 0 OFFCURVE",
"394 7 OFFCURVE",
"394 56 CURVE SMOOTH",
"394 72 OFFCURVE",
"388 90 OFFCURVE",
"380 101 CURVE",
"361 92 OFFCURVE",
"322 89 OFFCURVE",
"301 89 CURVE SMOOTH"
);
}
);
width = 397;
},
{
layerId = "8C7E3CD8-8122-4AAB-8613-74D9DEE9A67D";
paths = (
{
closed = 1;
nodes = (
"298 120 LINE",
"333 313 LINE",
"388 333 LINE SMOOTH",
"437 350 OFFCURVE",
"458 370 OFFCURVE",
"458 402 CURVE SMOOTH",
"458 417 OFFCURVE",
"453 439 OFFCURVE",
"439 451 CURVE",
"352 419 LINE",
"396 660 LINE",
"177 660 LINE",
"117 333 LINE",
"38 304 LINE SMOOTH",
"4 292 OFFCURVE",
"-7 268 OFFCURVE",
"-7 245 CURVE SMOOTH",
"-7 225 OFFCURVE",
"2 210 OFFCURVE",
"14 199 CURVE",
"98 229 LINE",
"56 0 LINE",
"376 0 LINE SMOOTH",
"439 0 OFFCURVE",
"500 12 OFFCURVE",
"500 75 CURVE SMOOTH",
"500 91 OFFCURVE",
"496 117 OFFCURVE",
"486 130 CURVE",
"467 124 OFFCURVE",
"432 120 OFFCURVE",
"387 120 CURVE SMOOTH"
);
}
);
width = 500;
},
{
layerId = "C4C1D9D9-3F21-4BC7-A2AB-A5431E2D31D1";
paths = (
{
closed = 1;
nodes = (
"357 135 LINE",
"389 318 LINE",
"431 333 LINE SMOOTH",
"485 352 OFFCURVE",
"506 374 OFFCURVE",
"506 407 CURVE SMOOTH",
"506 423 OFFCURVE",
"500 447 OFFCURVE",
"485 460 CURVE",
"408 432 LINE",
"448 660 LINE",
"180 660 LINE",
"120 326 LINE",
"44 299 LINE SMOOTH",
"7 286 OFFCURVE",
"-4 260 OFFCURVE",
"-4 236 CURVE SMOOTH",
"-4 215 OFFCURVE",
"5 197 OFFCURVE",
"18 186 CURVE",
"100 215 LINE",
"62 0 LINE",
"417 0 LINE SMOOTH",
"487 0 OFFCURVE",
"552 14 OFFCURVE",
"552 84 CURVE SMOOTH",
"552 100 OFFCURVE",
"549 130 OFFCURVE",
"538 144 CURVE",
"519 140 OFFCURVE",
"486 135 OFFCURVE",
"429 135 CURVE SMOOTH"
);
}
);
width = 550;
}
);
unicode = 0141;
},
{
glyphname = M;
layers = (
{
layerId = UUID0;
paths = (
{
closed = 1;
nodes = (
"382 198 LINE",
"303 660 LINE",
"155 660 LINE",
"10 0 LINE",
"108 0 LINE",
"214 519 LINE",
"300 0 LINE",
"382 0 LINE",
"621 519 LINE",
"580 143 LINE SMOOTH",
"578 125 OFFCURVE",
"574 87 OFFCURVE",
"574 69 CURVE SMOOTH",
"574 13 OFFCURVE",
"580 -22 OFFCURVE",
"636 -22 CURVE SMOOTH",
"666 -22 OFFCURVE",
"691 -9 OFFCURVE",
"711 16 CURVE",
"694 35 OFFCURVE",
"689 55 OFFCURVE",
"689 80 CURVE SMOOTH",
"689 87 OFFCURVE",
"691 115 OFFCURVE",
"692 121 CURVE SMOOTH",
"744 660 LINE",
"593 660 LINE"
);
}
);
width = 747;
},
{
layerId = "8C7E3CD8-8122-4AAB-8613-74D9DEE9A67D";
paths = (
{
closed = 1;
nodes = (
"418 290 LINE",
"349 660 LINE",
"140 660 LINE",
"-21 0 LINE",
"94 0 LINE",
"191 449 LINE",
"273 0 LINE",
"390 0 LINE",
"590 449 LINE",
"563 139 LINE SMOOTH",
"562 126 OFFCURVE",
"561 105 OFFCURVE",
"561 93 CURVE SMOOTH",
"561 21 OFFCURVE",
"594 -20 OFFCURVE",
"666 -20 CURVE SMOOTH",
"723 -20 OFFCURVE",
"769 2 OFFCURVE",
"787 33 CURVE",
"761 51 OFFCURVE",
"755 84 OFFCURVE",
"755 124 CURVE SMOOTH",
"755 135 OFFCURVE",
"756 164 OFFCURVE",
"757 176 CURVE SMOOTH",
"789 660 LINE",
"588 660 LINE"
);
}
);
width = 812;
},
{
layerId = "C4C1D9D9-3F21-4BC7-A2AB-A5431E2D31D1";
paths = (
{
closed = 1;
nodes = (
"436 335 LINE",
"371 660 LINE",
"133 660 LINE",
"-36 0 LINE",
"87 0 LINE",
"180 415 LINE",
"260 0 LINE",
"394 0 LINE",
"575 415 LINE",
"555 137 LINE SMOOTH",
"554 126 OFFCURVE",
"555 114 OFFCURVE",
"555 105 CURVE SMOOTH",
"555 25 OFFCURVE",
"601 -19 OFFCURVE",
"681 -19 CURVE SMOOTH",
"751 -19 OFFCURVE",
"807 7 OFFCURVE",
"824 41 CURVE",
"794 59 OFFCURVE",
"787 98 OFFCURVE",
"787 146 CURVE SMOOTH",
"787 158 OFFCURVE",
"788 188 OFFCURVE",
"789 203 CURVE SMOOTH",
"811 660 LINE",
"586 660 LINE"
);
}
);
width = 824;
}
);
rightMetricsKey = A;
unicode = 004D;
},
{
glyphname = N;
layers = (
{
anchors = (
{
name = bottom;
position = "{295, 0}";
},
{
name = top;
position = "{389, 660}";
}
);
layerId = UUID0;
paths = (
{
closed = 1;
nodes = (
"214 534 LINE",
"369 0 LINE",
"499 0 LINE",
"619 660 LINE",
"522 660 LINE",
"436 143 LINE",
"293 660 LINE",
"149 660 LINE",
"27 0 LINE",
"125 0 LINE"
);
}
);
width = 650;
},
{
anchors = (
{
name = bottom;
position = "{311, 0}";
},
{
name = top;
position = "{412, 660}";
}
);
layerId = "8C7E3CD8-8122-4AAB-8613-74D9DEE9A67D";
paths = (
{
closed = 1;
nodes = (
"190 437 LINE",
"334 0 LINE",
"563 0 LINE",
"685 660 LINE",
"567 660 LINE",
"491 206 LINE",
"335 660 LINE",
"120 660 LINE",
"0 0 LINE",
"117 0 LINE"
);
}
);
width = 688;
},
{
anchors = (
{
name = bottom;
position = "{314, 0}";
},
{
name = top;
position = "{421, 660}";
}
);
layerId = "C4C1D9D9-3F21-4BC7-A2AB-A5431E2D31D1";
paths = (
{
closed = 1;
nodes = (
"188 390 LINE",
"327 0 LINE",
"604 0 LINE",
"727 660 LINE",
"599 660 LINE",
"528 237 LINE",
"366 660 LINE",
"116 660 LINE",
"-3 0 LINE",
"123 0 LINE"
);
}
);
width = 686;
}
);
leftMetricsKey = I;
rightMetricsKey = I;
unicode = 004E;
},
{
glyphname = Eng;
layers = (
{
layerId = UUID0;
paths = (
{
closed = 1;
nodes = (
"369 0 LINE",
"406 0 LINE",
"392 -53 OFFCURVE",
"366 -110 OFFCURVE",
"318 -128 CURVE",
"328 -149 OFFCURVE",
"353 -160 OFFCURVE",
"379 -160 CURVE SMOOTH",
"454 -160 OFFCURVE",
"488 -58 OFFCURVE",
"510 63 CURVE SMOOTH",
"619 660 LINE",
"522 660 LINE",
"436 143 LINE",
"293 660 LINE",
"149 660 LINE",
"27 0 LINE",
"125 0 LINE",
"214 534 LINE"
);
}
);
width = 648;
},
{
layerId = "8C7E3CD8-8122-4AAB-8613-74D9DEE9A67D";
paths = (
{
closed = 1;
nodes = (
"339 0 LINE",
"453 0 LINE",
"426 -121 OFFCURVE",
"391 -141 OFFCURVE",
"331 -163 CURVE",
"341 -185 OFFCURVE",
"368 -197 OFFCURVE",
"403 -197 CURVE SMOOTH",
"496 -197 OFFCURVE",
"540 -124 OFFCURVE",
"573 55 CURVE SMOOTH",
"685 660 LINE",
"567 660 LINE",
"491 206 LINE",
"335 660 LINE",
"120 660 LINE",
"0 0 LINE",
"117 0 LINE",
"190 437 LINE"
);
}
);
width = 687;
},
{
layerId = "C4C1D9D9-3F21-4BC7-A2AB-A5431E2D31D1";
paths = (
{
closed = 1;
nodes = (
"334 0 LINE",
"486 0 LINE",
"453 -154 OFFCURVE",
"413 -156 OFFCURVE",
"347 -180 CURVE",
"357 -203 OFFCURVE",
"385 -215 OFFCURVE",
"425 -215 CURVE SMOOTH",
"527 -215 OFFCURVE",
"575 -156 OFFCURVE",
"614 51 CURVE SMOOTH",
"727 660 LINE",
"599 660 LINE",
"528 237 LINE",
"366 660 LINE",
"116 660 LINE",
"-3 0 LINE",
"123 0 LINE",
"188 390 LINE"
);
}
);
width = 686;
}
);
leftMetricsKey = I;
rightMetricsKey = I;
unicode = 014A;
},
{
glyphname = O;
layers = (
{
anchors = (
{
name = bottom;
position = "{221, 0}";
},
{
name = ogonek;
position = "{351, 10}";
},
{
name = top;
position = "{371, 660}";
}
);
layerId = UUID0;
paths = (
{
closed = 1;
nodes = (
"126 680 OFFCURVE",
"26 416 OFFCURVE",
"26 214 CURVE SMOOTH",
"26 62 OFFCURVE",
"82 -20 OFFCURVE",
"219 -20 CURVE SMOOTH",
"467 -20 OFFCURVE",
"564 249 OFFCURVE",
"564 447 CURVE SMOOTH",
"564 598 OFFCURVE",
"508 680 OFFCURVE",
"371 680 CURVE SMOOTH"
);
},
{
closed = 1;
nodes = (
"417 610 OFFCURVE",
"440 554 OFFCURVE",
"440 475 CURVE SMOOTH",
"440 413 OFFCURVE",
"426 322 OFFCURVE",
"411 259 CURVE SMOOTH",
"390 169 OFFCURVE",
"350 51 OFFCURVE",
"245 51 CURVE SMOOTH",
"173 51 OFFCURVE",
"150 107 OFFCURVE",
"150 186 CURVE SMOOTH",
"150 248 OFFCURVE",
"164 339 OFFCURVE",
"179 402 CURVE SMOOTH",
"203 505 OFFCURVE",
"245 610 OFFCURVE",
"344 610 CURVE SMOOTH"
);
}
);
width = 590;
},
{
anchors = (
{
name = bottom;
position = "{301, 0}";
},
{
name = ogonek;
position = "{437, 10}";
},
{
name = top;
position = "{404, 660}";
}
);
layerId = "8C7E3CD8-8122-4AAB-8613-74D9DEE9A67D";
paths = (
{
closed = 1;
nodes = (
"157 680 OFFCURVE",
"22 487 OFFCURVE",
"22 257 CURVE SMOOTH",
"22 67 OFFCURVE",
"114 -20 OFFCURVE",
"282 -20 CURVE SMOOTH",
"533 -20 OFFCURVE",
"668 173 OFFCURVE",
"668 403 CURVE SMOOTH",
"668 593 OFFCURVE",
"576 680 OFFCURVE",
"408 680 CURVE SMOOTH"
);
},
{
closed = 1;
nodes = (
"442 610 OFFCURVE",
"450 572 OFFCURVE",
"450 524 CURVE SMOOTH",
"450 476 OFFCURVE",
"442 401 OFFCURVE",
"435 349 CURVE SMOOTH",
"407 140 OFFCURVE",
"365 51 OFFCURVE",
"294 51 CURVE SMOOTH",
"248 51 OFFCURVE",
"240 89 OFFCURVE",
"240 137 CURVE SMOOTH",
"240 185 OFFCURVE",
"248 260 OFFCURVE",
"255 312 CURVE SMOOTH",
"283 521 OFFCURVE",
"325 610 OFFCURVE",
"396 610 CURVE SMOOTH"
);
}
);
width = 690;
},
{
anchors = (
{
name = bottom;
position = "{351, 0}";
},
{
name = ogonek;
position = "{505, 10}";
},
{
name = top;
position = "{436, 660}";
}
);
layerId = "C4C1D9D9-3F21-4BC7-A2AB-A5431E2D31D1";
paths = (
{
closed = 1;
nodes = (
"188 680 OFFCURVE",
"36 522 OFFCURVE",
"36 278 CURVE SMOOTH",
"36 69 OFFCURVE",
"146 -20 OFFCURVE",
"329 -20 CURVE SMOOTH",
"581 -20 OFFCURVE",
"735 136 OFFCURVE",
"735 382 CURVE SMOOTH",
"735 591 OFFCURVE",
"625 680 OFFCURVE",
"442 680 CURVE SMOOTH"
);
},
{
closed = 1;
nodes = (
"465 610 OFFCURVE",
"472 572 OFFCURVE",
"472 525 CURVE SMOOTH",
"472 480 OFFCURVE",
"467 428 OFFCURVE",
"463 393 CURVE SMOOTH",
"432 125 OFFCURVE",
"388 51 OFFCURVE",
"345 51 CURVE SMOOTH",
"306 51 OFFCURVE",
"299 89 OFFCURVE",
"299 136 CURVE SMOOTH",
"299 181 OFFCURVE",
"304 233 OFFCURVE",
"308 268 CURVE SMOOTH",
"338 528 OFFCURVE",
"380 610 OFFCURVE",
"429 610 CURVE SMOOTH"
);
}
);
width = 739;
}
);
leftKerningGroup = O;
rightKerningGroup = O;
unicode = 004F;
},
{
glyphname = Oslash;
layers = (
{
anchors = (
{
name = top;
position = "{363, 660}";
}
);
background = {
paths = (
{
closed = 1;
nodes = (
"563 693 OFFCURVE",
"553 680 OFFCURVE",
"533 658 CURVE SMOOTH",
"476 594 LINE",
"527 608 LINE",
"497 655 OFFCURVE",
"446 680 OFFCURVE",
"371 680 CURVE SMOOTH",
"126 680 OFFCURVE",
"26 416 OFFCURVE",
"26 214 CURVE SMOOTH",
"26 173 OFFCURVE",
"30 138 OFFCURVE",
"39 107 CURVE",
"-28 33 LINE SMOOTH",
"-40 19 OFFCURVE",
"-46 4 OFFCURVE",
"-46 -12 CURVE SMOOTH",
"-45 -35 OFFCURVE",
"-31 -54 OFFCURVE",
"-5 -54 CURVE",
"7 -34 OFFCURVE",
"16 -20 OFFCURVE",
"39 5 CURVE SMOOTH",
"104 76 LINE",
"55 65 LINE",
"84 10 OFFCURVE",
"136 -20 OFFCURVE",
"219 -20 CURVE SMOOTH",
"467 -20 OFFCURVE",
"564 249 OFFCURVE",
"564 447 CURVE SMOOTH",
"564 493 OFFCURVE",
"559 533 OFFCURVE",
"547 566 CURVE",
"599 623 LINE SMOOTH",
"612 638 OFFCURVE",
"618 653 OFFCURVE",
"618 666 CURVE SMOOTH",
"618 694 OFFCURVE",
"594 713 OFFCURVE",
"577 713 CURVE"
);
},
{
closed = 1;
nodes = (
"436 387 OFFCURVE",
"424 313 OFFCURVE",
"411 259 CURVE SMOOTH",
"390 169 OFFCURVE",
"350 51 OFFCURVE",
"245 51 CURVE SMOOTH",
"178 51 OFFCURVE",
"152 100 OFFCURVE",
"151 172 CURVE SMOOTH",
"151 185 LINE",
"122 97 LINE",
"439 447 LINE"
);
},
{
closed = 1;
nodes = (
"393 610 OFFCURVE",
"419 585 OFFCURVE",
"431 545 CURVE",
"119 197 LINE",
"150 204 LINE",
"153 263 OFFCURVE",
"166 345 OFFCURVE",
"179 402 CURVE SMOOTH",
"203 505 OFFCURVE",
"245 610 OFFCURVE",
"344 610 CURVE SMOOTH"
);
}
);
};
layerId = UUID0;
paths = (
{
closed = 1;
nodes = (
"580 693 OFFCURVE",
"570 680 OFFCURVE",
"550 658 CURVE SMOOTH",
"493 594 LINE",
"544 608 LINE",
"514 655 OFFCURVE",
"463 680 OFFCURVE",
"388 680 CURVE SMOOTH",
"143 680 OFFCURVE",
"43 416 OFFCURVE",
"43 214 CURVE SMOOTH",
"43 173 OFFCURVE",
"47 138 OFFCURVE",
"56 107 CURVE",
"-11 33 LINE SMOOTH",
"-23 19 OFFCURVE",
"-29 4 OFFCURVE",
"-29 -12 CURVE SMOOTH",
"-28 -35 OFFCURVE",
"-14 -54 OFFCURVE",
"12 -54 CURVE",
"24 -34 OFFCURVE",
"33 -20 OFFCURVE",
"56 5 CURVE SMOOTH",
"121 76 LINE",
"72 65 LINE",
"101 10 OFFCURVE",
"153 -20 OFFCURVE",
"236 -20 CURVE SMOOTH",
"484 -20 OFFCURVE",
"581 249 OFFCURVE",
"581 447 CURVE SMOOTH",
"581 493 OFFCURVE",
"576 533 OFFCURVE",
"564 566 CURVE",
"616 623 LINE SMOOTH",
"629 638 OFFCURVE",
"635 653 OFFCURVE",
"635 666 CURVE SMOOTH",
"635 694 OFFCURVE",
"611 713 OFFCURVE",
"594 713 CURVE"
);
},
{
closed = 1;
nodes = (
"444 327 OFFCURVE",
"419 51 OFFCURVE",
"262 51 CURVE SMOOTH",
"195 51 OFFCURVE",
"169 100 OFFCURVE",
"168 172 CURVE SMOOTH",
"168 185 LINE",
"139 97 LINE",
"456 447 LINE"
);
},
{
closed = 1;
nodes = (
"410 610 OFFCURVE",
"436 585 OFFCURVE",
"448 545 CURVE",
"136 197 LINE",
"167 204 LINE",
"170 263 OFFCURVE",
"183 345 OFFCURVE",
"196 402 CURVE SMOOTH",
"220 505 OFFCURVE",
"262 610 OFFCURVE",
"361 610 CURVE SMOOTH"
);
}
);
width = 607;
},
{
anchors = (
{
name = top;
position = "{390, 660}";
}
);
background = {
paths = (
{
closed = 1;
nodes = (
"587 696 OFFCURVE",
"574 680 OFFCURVE",
"546 648 CURVE SMOOTH",
"514 611 LINE",
"593 619 LINE",
"551 662 OFFCURVE",
"487 680 OFFCURVE",
"408 680 CURVE SMOOTH",
"157 680 OFFCURVE",
"22 487 OFFCURVE",
"22 257 CURVE SMOOTH",
"22 189 OFFCURVE",
"34 134 OFFCURVE",
"57 92 CURVE",
"33 65 LINE SMOOTH",
"18 48 OFFCURVE",
"9 25 OFFCURVE",
"9 2 CURVE SMOOTH",
"10 -34 OFFCURVE",
"33 -58 OFFCURVE",
"66 -58 CURVE",
"81 -31 OFFCURVE",
"109 7 OFFCURVE",
"140 36 CURVE SMOOTH",
"172 65 LINE",
"81 54 LINE",
"125 5 OFFCURVE",
"192 -20 OFFCURVE",
"282 -20 CURVE SMOOTH",
"533 -20 OFFCURVE",
"668 173 OFFCURVE",
"668 403 CURVE SMOOTH",
"668 479 OFFCURVE",
"653 539 OFFCURVE",
"624 583 CURVE",
"634 594 LINE SMOOTH",
"651 612 OFFCURVE",
"660 633 OFFCURVE",
"660 654 CURVE SMOOTH",
"660 688 OFFCURVE",
"632 721 OFFCURVE",
"603 721 CURVE"
);
},
{
closed = 1;
nodes = (
"437 366 OFFCURVE",
"436 357 OFFCURVE",
"435 349 CURVE SMOOTH",
"410 140 OFFCURVE",
"365 51 OFFCURVE",
"294 51 CURVE SMOOTH",
"248 51 OFFCURVE",
"240 89 OFFCURVE",
"240 137 CURVE SMOOTH",
"240 190 LINE",
"192 96 LINE",
"438 374 LINE"
);
},
{
closed = 1;
nodes = (
"437 610 OFFCURVE",
"448 579 OFFCURVE",
"450 538 CURVE",
"193 247 LINE",
"249 257 LINE",
"251 276 OFFCURVE",
"253 294 OFFCURVE",
"255 313 CURVE SMOOTH",
"283 522 OFFCURVE",
"325 610 OFFCURVE",
"396 610 CURVE SMOOTH"
);
}
);
};
layerId = "8C7E3CD8-8122-4AAB-8613-74D9DEE9A67D";
paths = (
{
closed = 1;
nodes = (
"587 696 OFFCURVE",
"574 680 OFFCURVE",
"546 648 CURVE SMOOTH",
"514 611 LINE",
"593 619 LINE",
"551 662 OFFCURVE",
"487 680 OFFCURVE",
"408 680 CURVE SMOOTH",
"157 680 OFFCURVE",
"22 487 OFFCURVE",
"22 257 CURVE SMOOTH",
"22 189 OFFCURVE",
"34 134 OFFCURVE",
"57 92 CURVE",
"33 65 LINE SMOOTH",
"18 48 OFFCURVE",
"9 25 OFFCURVE",
"9 2 CURVE SMOOTH",
"10 -34 OFFCURVE",
"33 -58 OFFCURVE",
"66 -58 CURVE",
"81 -31 OFFCURVE",
"109 7 OFFCURVE",
"140 36 CURVE SMOOTH",
"172 65 LINE",
"81 54 LINE",
"125 5 OFFCURVE",
"192 -20 OFFCURVE",
"282 -20 CURVE SMOOTH",
"533 -20 OFFCURVE",
"668 173 OFFCURVE",
"668 403 CURVE SMOOTH",
"668 479 OFFCURVE",
"653 539 OFFCURVE",
"624 583 CURVE",
"634 594 LINE SMOOTH",
"651 612 OFFCURVE",
"660 633 OFFCURVE",
"660 654 CURVE SMOOTH",
"660 688 OFFCURVE",
"632 721 OFFCURVE",
"603 721 CURVE"
);
},
{
closed = 1;
nodes = (
"429 303 OFFCURVE",
"409 51 OFFCURVE",
"294 51 CURVE SMOOTH",
"248 51 OFFCURVE",
"240 89 OFFCURVE",
"240 137 CURVE SMOOTH",
"240 190 LINE",
"192 96 LINE",
"438 374 LINE"
);
},
{
closed = 1;
nodes = (
"437 610 OFFCURVE",
"448 579 OFFCURVE",
"450 538 CURVE",
"193 247 LINE",
"249 257 LINE",
"251 276 OFFCURVE",
"253 294 OFFCURVE",
"255 313 CURVE SMOOTH",
"283 522 OFFCURVE",
"325 610 OFFCURVE",
"396 610 CURVE SMOOTH"
);
}
);
width = 690;
},
{
anchors = (
{
name = top;
position = "{411, 660}";
}
);
background = {
paths = (
{
closed = 1;
nodes = (
"449 610 OFFCURVE",
"456 572 OFFCURVE",
"456 525 CURVE SMOOTH",
"456 480 OFFCURVE",
"451 428 OFFCURVE",
"447 393 CURVE SMOOTH",
"416 125 OFFCURVE",
"372 51 OFFCURVE",
"329 51 CURVE SMOOTH",
"290 51 OFFCURVE",
"283 89 OFFCURVE",
"283 136 CURVE SMOOTH",
"283 181 OFFCURVE",
"288 233 OFFCURVE",
"292 268 CURVE SMOOTH",
"322 528 OFFCURVE",
"364 610 OFFCURVE",
"413 610 CURVE SMOOTH"
);
}
);
};
layerId = "C4C1D9D9-3F21-4BC7-A2AB-A5431E2D31D1";
paths = (
{
closed = 1;
nodes = (
"615 697 OFFCURVE",
"600 680 OFFCURVE",
"568 643 CURVE SMOOTH",
"549 619 LINE",
"641 624 LINE",
"593 665 OFFCURVE",
"523 680 OFFCURVE",
"442 680 CURVE SMOOTH",
"188 680 OFFCURVE",
"36 522 OFFCURVE",
"36 278 CURVE SMOOTH",
"36 197 OFFCURVE",
"52 132 OFFCURVE",
"82 85 CURVE",
"79 81 LINE SMOOTH",
"62 62 OFFCURVE",
"52 35 OFFCURVE",
"52 9 CURVE SMOOTH",
"53 -34 OFFCURVE",
"80 -60 OFFCURVE",
"117 -60 CURVE",
"133 -30 OFFCURVE",
"170 20 OFFCURVE",
"205 51 CURVE SMOOTH",
"221 60 LINE",
"110 49 LINE",
"161 3 OFFCURVE",
"235 -20 OFFCURVE",
"329 -20 CURVE SMOOTH",
"581 -20 OFFCURVE",
"735 136 OFFCURVE",
"735 382 CURVE SMOOTH",
"735 472 OFFCURVE",
"715 542 OFFCURVE",
"678 591 CURVE",
"667 580 LINE SMOOTH",
"686 599 OFFCURVE",
"697 623 OFFCURVE",
"697 648 CURVE SMOOTH",
"697 685 OFFCURVE",
"667 725 OFFCURVE",
"632 725 CURVE"
);
},
{
closed = 1;
nodes = (
"439 233 OFFCURVE",
"413 51 OFFCURVE",
"345 51 CURVE SMOOTH",
"293 51 OFFCURVE",
"299 116 OFFCURVE",
"299 174 CURVE SMOOTH",
"299 192 LINE",
"242 96 LINE",
"457 341 LINE"
);
},
{
closed = 1;
nodes = (
"467 610 OFFCURVE",
"470 568 OFFCURVE",
"472 532 CURVE",
"245 271 LINE",
"308 270 LINE",
"310 282 OFFCURVE",
"310 296 OFFCURVE",
"314 315 CURVE SMOOTH",
"355 535 OFFCURVE",
"372 610 OFFCURVE",
"429 610 CURVE SMOOTH"
);
}
);
width = 739;
}
);
leftKerningGroup = O;
leftMetricsKey = O;
rightKerningGroup = O;
rightMetricsKey = O;
unicode = 00D8;
},
{
glyphname = OE;
layers = (
{
anchors = (
{
name = top;
position = "{465, 660}";
}
);
layerId = UUID0;
paths = (
{
closed = 1;
nodes = (
"547 377 LINE",
"566 592 LINE",
"603 577 OFFCURVE",
"661 565 OFFCURVE",
"701 565 CURVE SMOOTH",
"764 565 OFFCURVE",
"809 595 OFFCURVE",
"809 660 CURVE",
"466 660 LINE",
"437 673 OFFCURVE",
"399 680 OFFCURVE",
"362 680 CURVE SMOOTH",
"136 680 OFFCURVE",
"25 425 OFFCURVE",
"25 210 CURVE SMOOTH",
"25 58 OFFCURVE",
"81 -20 OFFCURVE",
"225 -20 CURVE SMOOTH",
"306 -20 OFFCURVE",
"366 5 OFFCURVE",
"425 63 CURVE",
"449 9 OFFCURVE",
"506 -20 OFFCURVE",
"584 -20 CURVE SMOOTH",
"640 -20 OFFCURVE",
"721 -5 OFFCURVE",
"721 52 CURVE SMOOTH",
"721 61 OFFCURVE",
"719 72 OFFCURVE",
"715 80 CURVE",
"693 72 OFFCURVE",
"666 66 OFFCURVE",
"631 66 CURVE SMOOTH",
"566 66 OFFCURVE",
"529 87 OFFCURVE",
"529 167 CURVE SMOOTH",
"529 185 OFFCURVE",
"531 215 OFFCURVE",
"541 314 CURVE",
"566 303 OFFCURVE",
"602 295 OFFCURVE",
"635 295 CURVE SMOOTH",
"691 295 OFFCURVE",
"732 317 OFFCURVE",
"732 377 CURVE"
);
},
{
closed = 1;
nodes = (
"172 51 OFFCURVE",
"150 112 OFFCURVE",
"150 189 CURVE SMOOTH",
"150 249 OFFCURVE",
"164 338 OFFCURVE",
"179 400 CURVE SMOOTH",
"201 493 OFFCURVE",
"243 609 OFFCURVE",
"344 609 CURVE SMOOTH",
"416 609 OFFCURVE",
"438 548 OFFCURVE",
"438 471 CURVE SMOOTH",
"438 411 OFFCURVE",
"424 322 OFFCURVE",
"409 260 CURVE SMOOTH",
"387 167 OFFCURVE",
"345 51 OFFCURVE",
"244 51 CURVE SMOOTH"
);
}
);
width = 790;
},
{
anchors = (
{
name = top;
position = "{518, 660}";
}
);
layerId = "8C7E3CD8-8122-4AAB-8613-74D9DEE9A67D";
paths = (
{
closed = 1;
nodes = (
"636 387 LINE",
"660 562 LINE",
"698 544 OFFCURVE",
"744 535 OFFCURVE",
"778 535 CURVE SMOOTH",
"846 535 OFFCURVE",
"899 571 OFFCURVE",
"899 660 CURVE",
"525 660 LINE",
"490 673 OFFCURVE",
"448 680 OFFCURVE",
"401 680 CURVE SMOOTH",
"156 680 OFFCURVE",
"21 483 OFFCURVE",
"21 255 CURVE SMOOTH",
"21 67 OFFCURVE",
"113 -20 OFFCURVE",
"281 -20 CURVE SMOOTH",
"355 -20 OFFCURVE",
"431 -3 OFFCURVE",
"483 50 CURVE",
"513 2 OFFCURVE",
"563 -20 OFFCURVE",
"644 -20 CURVE SMOOTH",
"724 -20 OFFCURVE",
"815 1 OFFCURVE",
"815 90 CURVE SMOOTH",
"815 103 OFFCURVE",
"813 122 OFFCURVE",
"806 139 CURVE",
"774 127 OFFCURVE",
"735 123 OFFCURVE",
"703 123 CURVE SMOOTH",
"640 123 OFFCURVE",
"612 139 OFFCURVE",
"612 202 CURVE SMOOTH",
"612 229 OFFCURVE",
"617 262 OFFCURVE",
"624 298 CURVE",
"653 283 OFFCURVE",
"693 275 OFFCURVE",
"722 275 CURVE SMOOTH",
"787 275 OFFCURVE",
"825 314 OFFCURVE",
"825 387 CURVE"
);
},
{
closed = 1;
nodes = (
"247 51 OFFCURVE",
"239 89 OFFCURVE",
"239 137 CURVE SMOOTH",
"239 185 OFFCURVE",
"247 260 OFFCURVE",
"254 312 CURVE SMOOTH",
"282 521 OFFCURVE",
"324 610 OFFCURVE",
"395 610 CURVE SMOOTH",
"441 610 OFFCURVE",
"449 572 OFFCURVE",
"449 524 CURVE SMOOTH",
"449 476 OFFCURVE",
"441 401 OFFCURVE",
"434 349 CURVE SMOOTH",
"406 140 OFFCURVE",
"364 51 OFFCURVE",
"293 51 CURVE SMOOTH"
);
}
);
width = 870;
},
{
anchors = (
{
name = top;
position = "{553, 660}";
}
);
layerId = "C4C1D9D9-3F21-4BC7-A2AB-A5431E2D31D1";
paths = (
{
closed = 1;
nodes = (
"695 392 LINE",
"721 547 LINE",
"760 528 OFFCURVE",
"800 520 OFFCURVE",
"831 520 CURVE SMOOTH",
"902 520 OFFCURVE",
"958 559 OFFCURVE",
"958 660 CURVE",
"569 660 LINE",
"531 673 OFFCURVE",
"487 680 OFFCURVE",
"436 680 CURVE SMOOTH",
"181 680 OFFCURVE",
"35 511 OFFCURVE",
"35 277 CURVE SMOOTH",
"35 71 OFFCURVE",
"144 -20 OFFCURVE",
"324 -20 CURVE SMOOTH",
"394 -20 OFFCURVE",
"478 -7 OFFCURVE",
"527 44 CURVE",
"560 -1 OFFCURVE",
"606 -20 OFFCURVE",
"689 -20 CURVE SMOOTH",
"781 -20 OFFCURVE",
"876 4 OFFCURVE",
"876 109 CURVE SMOOTH",
"876 124 OFFCURVE",
"874 146 OFFCURVE",
"866 168 CURVE",
"829 154 OFFCURVE",
"784 151 OFFCURVE",
"754 151 CURVE SMOOTH",
"692 151 OFFCURVE",
"668 164 OFFCURVE",
"668 219 CURVE SMOOTH",
"668 251 OFFCURVE",
"675 285 OFFCURVE",
"680 290 CURVE",
"711 273 OFFCURVE",
"753 265 OFFCURVE",
"780 265 CURVE SMOOTH",
"849 265 OFFCURVE",
"886 313 OFFCURVE",
"886 392 CURVE"
);
},
{
closed = 1;
nodes = (
"304 51 OFFCURVE",
"297 89 OFFCURVE",
"297 136 CURVE SMOOTH",
"297 181 OFFCURVE",
"302 233 OFFCURVE",
"306 268 CURVE SMOOTH",
"336 528 OFFCURVE",
"378 610 OFFCURVE",
"427 610 CURVE SMOOTH",
"463 610 OFFCURVE",
"470 572 OFFCURVE",
"470 525 CURVE SMOOTH",
"470 480 OFFCURVE",
"465 428 OFFCURVE",
"461 393 CURVE SMOOTH",
"430 125 OFFCURVE",
"386 51 OFFCURVE",
"343 51 CURVE SMOOTH"
);
}
);
width = 919;
}
);
leftKerningGroup = O;
leftMetricsKey = O;
rightMetricsKey = E;
unicode = 0152;
},
{
glyphname = P;
layers = (
{
layerId = UUID0;
paths = (
{
closed = 1;
nodes = (
"254 596 LINE",
"279 601 OFFCURVE",
"304 603 OFFCURVE",
"321 603 CURVE SMOOTH",
"391 603 OFFCURVE",
"414 565 OFFCURVE",
"414 495 CURVE SMOOTH",
"414 380 OFFCURVE",
"352 324 OFFCURVE",
"264 324 CURVE SMOOTH",
"253 324 OFFCURVE",
"245 324 OFFCURVE",
"236 326 CURVE",
"245 287 OFFCURVE",
"293 277 OFFCURVE",
"333 277 CURVE SMOOTH",
"459 277 OFFCURVE",
"538 373 OFFCURVE",
"538 502 CURVE SMOOTH",
"538 639 OFFCURVE",
"450 669 OFFCURVE",
"318 669 CURVE SMOOTH",
"264 669 OFFCURVE",
"191 664 OFFCURVE",
"149 660 CURVE",
"22 0 LINE",
"138 0 LINE"
);
}
);
width = 506;
},
{
layerId = "8C7E3CD8-8122-4AAB-8613-74D9DEE9A67D";
paths = (
{
closed = 1;
nodes = (
"325 597 LINE",
"334 599 OFFCURVE",
"352 600 OFFCURVE",
"364 600 CURVE SMOOTH",
"428 600 OFFCURVE",
"461 572 OFFCURVE",
"461 500 CURVE SMOOTH",
"461 415 OFFCURVE",
"414 346 OFFCURVE",
"333 333 CURVE",
"322 330 OFFCURVE",
"310 329 OFFCURVE",
"297 329 CURVE",
"313 285 OFFCURVE",
"364 271 OFFCURVE",
"419 271 CURVE SMOOTH",
"551 271 OFFCURVE",
"654 351 OFFCURVE",
"654 491 CURVE SMOOTH",
"654 647 OFFCURVE",
"527 666 OFFCURVE",
"304 666 CURVE SMOOTH",
"215 666 OFFCURVE",
"205 663 OFFCURVE",
"120 660 CURVE",
"-6 0 LINE",
"211 0 LINE"
);
}
);
width = 623;
},
{
layerId = "C4C1D9D9-3F21-4BC7-A2AB-A5431E2D31D1";
paths = (
{
closed = 1;
nodes = (
"370 597 LINE",
"371 598 OFFCURVE",
"386 599 OFFCURVE",
"396 599 CURVE SMOOTH",
"457 599 OFFCURVE",
"494 575 OFFCURVE",
"494 502 CURVE SMOOTH",
"494 432 OFFCURVE",
"455 357 OFFCURVE",
"377 337 CURVE",
"366 333 OFFCURVE",
"352 331 OFFCURVE",
"337 330 CURVE",
"357 284 OFFCURVE",
"409 268 OFFCURVE",
"472 268 CURVE SMOOTH",
"606 268 OFFCURVE",
"721 340 OFFCURVE",
"721 486 CURVE SMOOTH",
"721 660 OFFCURVE",
"587 665 OFFCURVE",
"308 665 CURVE SMOOTH",
"202 665 OFFCURVE",
"222 663 OFFCURVE",
"116 660 CURVE",
"-9 0 LINE",
"257 0 LINE"
);
}
);
width = 691;
}
);
leftMetricsKey = H;
unicode = 0050;
},
{
glyphname = Thorn;
layers = (
{
layerId = UUID0;
paths = (
{
closed = 1;
nodes = (
"149 660 LINE",
"22 0 LINE",
"138 0 LINE",
"228 461 LINE",
"245 465 OFFCURVE",
"264 468 OFFCURVE",
"286 468 CURVE SMOOTH",
"358 468 OFFCURVE",
"390 436 OFFCURVE",
"390 357 CURVE SMOOTH",
"390 259 OFFCURVE",
"340 197 OFFCURVE",
"238 197 CURVE SMOOTH",
"227 197 OFFCURVE",
"224 197 OFFCURVE",
"212 198 CURVE",
"221 159 OFFCURVE",
"269 149 OFFCURVE",
"309 149 CURVE SMOOTH",
"435 149 OFFCURVE",
"514 245 OFFCURVE",
"514 376 CURVE SMOOTH",
"514 496 OFFCURVE",
"447 538 OFFCURVE",
"312 538 CURVE SMOOTH",
"291 538 OFFCURVE",
"265 537 OFFCURVE",
"242 536 CURVE",
"267 660 LINE"
);
}
);
width = 506;
},
{
layerId = "8C7E3CD8-8122-4AAB-8613-74D9DEE9A67D";
paths = (
{
closed = 1;
nodes = (
"120 660 LINE",
"-7 0 LINE",
"211 0 LINE",
"302 469 LINE",
"312 471 OFFCURVE",
"328 472 OFFCURVE",
"340 472 CURVE SMOOTH",
"405 472 OFFCURVE",
"437 444 OFFCURVE",
"437 371 CURVE SMOOTH",
"437 277 OFFCURVE",
"383 214 OFFCURVE",
"298 203 CURVE SMOOTH",
"290 202 OFFCURVE",
"281 201 OFFCURVE",
"273 201 CURVE",
"289 157 OFFCURVE",
"340 143 OFFCURVE",
"395 143 CURVE SMOOTH",
"530 143 OFFCURVE",
"630 226 OFFCURVE",
"630 361 CURVE SMOOTH",
"630 510 OFFCURVE",
"508 538 OFFCURVE",
"351 538 CURVE SMOOTH",
"340 538 OFFCURVE",
"325 538 OFFCURVE",
"315 537 CURVE",
"339 660 LINE"
);
}
);
width = 624;
},
{
layerId = "C4C1D9D9-3F21-4BC7-A2AB-A5431E2D31D1";
paths = (
{
closed = 1;
nodes = (
"116 660 LINE",
"-11 0 LINE",
"257 0 LINE",
"349 473 LINE",
"355 474 OFFCURVE",
"370 474 OFFCURVE",
"377 474 CURVE SMOOTH",
"438 474 OFFCURVE",
"470 448 OFFCURVE",
"470 378 CURVE SMOOTH",
"470 286 OFFCURVE",
"414 222 OFFCURVE",
"338 206 CURVE SMOOTH",
"331 204 OFFCURVE",
"319 203 OFFCURVE",
"313 202 CURVE",
"333 156 OFFCURVE",
"385 140 OFFCURVE",
"447 140 CURVE SMOOTH",
"587 140 OFFCURVE",
"697 217 OFFCURVE",
"697 354 CURVE SMOOTH",
"697 517 OFFCURVE",
"548 538 OFFCURVE",
"381 538 CURVE SMOOTH",
"374 538 OFFCURVE",
"365 538 OFFCURVE",
"361 537 CURVE",
"385 660 LINE"
);
}
);
width = 692;
}
);
leftMetricsKey = I;
rightMetricsKey = P;
unicode = 00DE;
},
{
glyphname = Q;
layers = (
{
layerId = UUID0;
paths = (
{
closed = 1;
nodes = (
"113 680 OFFCURVE",
"27 384 OFFCURVE",
"27 236 CURVE SMOOTH",
"27 139 OFFCURVE",
"64 93 OFFCURVE",
"135 93 CURVE SMOOTH",
"179 93 OFFCURVE",
"198 111 OFFCURVE",
"198 132 CURVE",
"162 138 OFFCURVE",
"153 157 OFFCURVE",
"153 201 CURVE SMOOTH",
"153 253 OFFCURVE",
"166 338 OFFCURVE",
"181 400 CURVE SMOOTH",
"204 495 OFFCURVE",
"250 610 OFFCURVE",
"349 610 CURVE SMOOTH",
"422 610 OFFCURVE",
"440 547 OFFCURVE",
"440 473 CURVE SMOOTH",
"440 408 OFFCURVE",
"426 322 OFFCURVE",
"411 260 CURVE SMOOTH",
"364 70 OFFCURVE",
"283 37 OFFCURVE",
"166 21 CURVE SMOOTH",
"128 16 OFFCURVE",
"64 6 OFFCURVE",
"64 -53 CURVE SMOOTH",
"64 -77 OFFCURVE",
"75 -99 OFFCURVE",
"89 -111 CURVE",
"106 -104 OFFCURVE",
"131 -99 OFFCURVE",
"156 -99 CURVE SMOOTH",
"234 -99 OFFCURVE",
"338 -147 OFFCURVE",
"428 -147 CURVE SMOOTH",
"482 -147 OFFCURVE",
"533 -130 OFFCURVE",
"533 -73 CURVE SMOOTH",
"533 -55 OFFCURVE",
"528 -37 OFFCURVE",
"520 -23 CURVE",
"493 -40 OFFCURVE",
"454 -45 OFFCURVE",
"417 -45 CURVE SMOOTH",
"345 -45 OFFCURVE",
"264 -26 OFFCURVE",
"234 -20 CURVE",
"453 -20 OFFCURVE",
"565 238 OFFCURVE",
"565 449 CURVE SMOOTH",
"565 598 OFFCURVE",
"509 680 OFFCURVE",
"372 680 CURVE SMOOTH"
);
}
);
width = 577;
},
{
layerId = "8C7E3CD8-8122-4AAB-8613-74D9DEE9A67D";
paths = (
{
closed = 1;
nodes = (
"174 680 OFFCURVE",
"24 497 OFFCURVE",
"24 278 CURVE SMOOTH",
"24 153 OFFCURVE",
"73 83 OFFCURVE",
"181 83 CURVE SMOOTH",
"248 83 OFFCURVE",
"288 110 OFFCURVE",
"288 150 CURVE",
"246 153 OFFCURVE",
"241 194 OFFCURVE",
"241 228 CURVE SMOOTH",
"241 277 OFFCURVE",
"251 340 OFFCURVE",
"265 397 CURVE SMOOTH",
"292 508 OFFCURVE",
"338 610 OFFCURVE",
"403 610 CURVE SMOOTH",
"444 610 OFFCURVE",
"452 568 OFFCURVE",
"452 517 CURVE SMOOTH",
"452 476 OFFCURVE",
"447 413 OFFCURVE",
"437 349 CURVE SMOOTH",
"399 103 OFFCURVE",
"319 49 OFFCURVE",
"231 38 CURVE SMOOTH",
"132 26 OFFCURVE",
"70 17 OFFCURVE",
"70 -61 CURVE SMOOTH",
"70 -91 OFFCURVE",
"79 -115 OFFCURVE",
"100 -140 CURVE",
"127 -122 OFFCURVE",
"159 -115 OFFCURVE",
"192 -115 CURVE SMOOTH",
"296 -115 OFFCURVE",
"360 -184 OFFCURVE",
"482 -184 CURVE SMOOTH",
"547 -184 OFFCURVE",
"625 -156 OFFCURVE",
"625 -66 CURVE SMOOTH",
"625 -45 OFFCURVE",
"621 -21 OFFCURVE",
"613 -6 CURVE",
"577 -26 OFFCURVE",
"525 -37 OFFCURVE",
"471 -37 CURVE SMOOTH",
"405 -37 OFFCURVE",
"360 -25 OFFCURVE",
"325 -13 CURVE",
"513 6 OFFCURVE",
"670 194 OFFCURVE",
"670 406 CURVE SMOOTH",
"670 591 OFFCURVE",
"578 680 OFFCURVE",
"412 680 CURVE SMOOTH"
);
}
);
width = 687;
},
{
background = {
paths = (
{
closed = 1;
nodes = (
"449 610 OFFCURVE",
"456 572 OFFCURVE",
"456 525 CURVE SMOOTH",
"456 480 OFFCURVE",
"451 428 OFFCURVE",
"447 393 CURVE SMOOTH",
"416 125 OFFCURVE",
"372 51 OFFCURVE",
"329 51 CURVE SMOOTH",
"290 51 OFFCURVE",
"283 89 OFFCURVE",
"283 136 CURVE SMOOTH",
"283 181 OFFCURVE",
"288 233 OFFCURVE",
"292 268 CURVE SMOOTH",
"322 528 OFFCURVE",
"364 610 OFFCURVE",
"413 610 CURVE SMOOTH"
);
}
);
};
layerId = "C4C1D9D9-3F21-4BC7-A2AB-A5431E2D31D1";
paths = (
{
closed = 1;
nodes = (
"220 680 OFFCURVE",
"39 552 OFFCURVE",
"39 299 CURVE SMOOTH",
"39 160 OFFCURVE",
"93 78 OFFCURVE",
"219 78 CURVE SMOOTH",
"298 78 OFFCURVE",
"348 110 OFFCURVE",
"348 159 CURVE",
"303 160 OFFCURVE",
"300 212 OFFCURVE",
"300 241 CURVE SMOOTH",
"300 270 OFFCURVE",
"307 332 OFFCURVE",
"320 396 CURVE SMOOTH",
"341 499 OFFCURVE",
"379 610 OFFCURVE",
"429 610 CURVE SMOOTH",
"455 610 OFFCURVE",
"474 592 OFFCURVE",
"474 512 CURVE SMOOTH",
"474 491 OFFCURVE",
"473 457 OFFCURVE",
"466 392 CURVE SMOOTH",
"432 119 OFFCURVE",
"353 55 OFFCURVE",
"279 46 CURVE SMOOTH",
"150 31 OFFCURVE",
"89 22 OFFCURVE",
"89 -65 CURVE SMOOTH",
"89 -98 OFFCURVE",
"97 -123 OFFCURVE",
"121 -154 CURVE",
"153 -131 OFFCURVE",
"189 -123 OFFCURVE",
"223 -123 CURVE SMOOTH",
"328 -123 OFFCURVE",
"399 -202 OFFCURVE",
"497 -202 CURVE SMOOTH",
"559 -202 OFFCURVE",
"639 -169 OFFCURVE",
"639 -63 CURVE SMOOTH",
"639 -40 OFFCURVE",
"635 -13 OFFCURVE",
"628 2 CURVE",
"593 -19 OFFCURVE",
"541 -33 OFFCURVE",
"487 -33 CURVE SMOOTH",
"442 -33 OFFCURVE",
"401 -25 OFFCURVE",
"367 -10 CURVE",
"577 0 OFFCURVE",
"737 173 OFFCURVE",
"737 385 CURVE SMOOTH",
"737 588 OFFCURVE",
"628 680 OFFCURVE",
"448 680 CURVE SMOOTH"
);
}
);
width = 735;
}
);
leftMetricsKey = O;
unicode = 0051;
},
{
glyphname = R;
layers = (
{
anchors = (
{
name = bottom;
position = "{261, 0}";
},
{
name = top;
position = "{336, 660}";
}
);
layerId = UUID0;
paths = (
{
closed = 1;
nodes = (
"22 0 LINE",
"138 0 LINE",
"254 596 LINE",
"271 600 OFFCURVE",
"290 603 OFFCURVE",
"311 603 CURVE SMOOTH",
"384 603 OFFCURVE",
"414 564 OFFCURVE",
"414 487 CURVE SMOOTH",
"414 387 OFFCURVE",
"364 325 OFFCURVE",
"262 325 CURVE SMOOTH",
"251 325 OFFCURVE",
"248 325 OFFCURVE",
"236 326 CURVE",
"323 75 OFFCURVE",
"368 -19 OFFCURVE",
"457 -19 CURVE SMOOTH",
"492 -19 OFFCURVE",
"525 -4 OFFCURVE",
"535 35 CURVE",
"494 54 OFFCURVE",
"434 130 OFFCURVE",
"370 280 CURVE",
"474 297 OFFCURVE",
"538 386 OFFCURVE",
"538 502 CURVE SMOOTH",
"538 639 OFFCURVE",
"450 669 OFFCURVE",
"318 669 CURVE SMOOTH",
"264 669 OFFCURVE",
"191 664 OFFCURVE",
"149 660 CURVE"
);
}
);
width = 565;
},
{
anchors = (
{
name = bottom;
position = "{299, 0}";
},
{
name = top;
position = "{369, 660}";
}
);
layerId = "8C7E3CD8-8122-4AAB-8613-74D9DEE9A67D";
paths = (
{
closed = 1;
nodes = (
"-3 0 LINE",
"211 0 LINE",
"326 599 LINE",
"333 600 OFFCURVE",
"345 600 OFFCURVE",
"362 600 CURVE SMOOTH",
"425 600 OFFCURVE",
"447 563 OFFCURVE",
"447 497 CURVE SMOOTH",
"447 394 OFFCURVE",
"393 341 OFFCURVE",
"299 341 CURVE SMOOTH",
"297 341 OFFCURVE",
"294 341 OFFCURVE",
"292 341 CURVE",
"333 130 OFFCURVE",
"365 -20 OFFCURVE",
"507 -20 CURVE SMOOTH",
"566 -20 OFFCURVE",
"607 6 OFFCURVE",
"625 59 CURVE",
"568 84 OFFCURVE",
"518 168 OFFCURVE",
"479 292 CURVE",
"576 313 OFFCURVE",
"641 386 OFFCURVE",
"641 495 CURVE SMOOTH",
"641 647 OFFCURVE",
"515 665 OFFCURVE",
"350 665 CURVE SMOOTH",
"282 665 OFFCURVE",
"212 662 OFFCURVE",
"120 660 CURVE"
);
}
);
width = 641;
},
{
anchors = (
{
name = bottom;
position = "{344, 0}";
},
{
name = top;
position = "{394, 660}";
}
);
layerId = "C4C1D9D9-3F21-4BC7-A2AB-A5431E2D31D1";
paths = (
{
closed = 1;
nodes = (
"-5 0 LINE",
"257 0 LINE",
"371 600 LINE",
"373 600 OFFCURVE",
"382 600 OFFCURVE",
"397 600 CURVE SMOOTH",
"455 600 OFFCURVE",
"473 563 OFFCURVE",
"473 502 CURVE SMOOTH",
"473 397 OFFCURVE",
"417 349 OFFCURVE",
"327 349 CURVE SMOOTH",
"330 349 OFFCURVE",
"327 349 OFFCURVE",
"329 348 CURVE",
"348 157 OFFCURVE",
"374 -20 OFFCURVE",
"541 -20 CURVE SMOOTH",
"612 -20 OFFCURVE",
"657 11 OFFCURVE",
"679 71 CURVE",
"614 99 OFFCURVE",
"569 187 OFFCURVE",
"542 298 CURVE",
"636 321 OFFCURVE",
"701 386 OFFCURVE",
"701 492 CURVE SMOOTH",
"701 651 OFFCURVE",
"557 663 OFFCURVE",
"376 663 CURVE SMOOTH",
"301 663 OFFCURVE",
"232 661 OFFCURVE",
"116 660 CURVE"
);
}
);
width = 688;
}
);
leftMetricsKey = H;
unicode = 0052;
},
{
glyphname = S;
layers = (
{
anchors = (
{
name = bottom;
position = "{223, 0}";
},
{
name = top;
position = "{330, 660}";
}
);
layerId = UUID0;
paths = (
{
closed = 1;
nodes = (
"192 680 OFFCURVE",
"85 609 OFFCURVE",
"85 489 CURVE SMOOTH",
"85 392 OFFCURVE",
"155 341 OFFCURVE",
"219 292 CURVE SMOOTH",
"274 250 OFFCURVE",
"328 210 OFFCURVE",
"328 147 CURVE SMOOTH",
"328 84 OFFCURVE",
"275 43 OFFCURVE",
"216 43 CURVE SMOOTH",
"171 43 OFFCURVE",
"134 66 OFFCURVE",
"134 112 CURVE SMOOTH",
"134 131 OFFCURVE",
"140 163 OFFCURVE",
"149 185 CURVE",
"137 193 OFFCURVE",
"118 198 OFFCURVE",
"99 198 CURVE SMOOTH",
"54 198 OFFCURVE",
"10 169 OFFCURVE",
"10 108 CURVE SMOOTH",
"10 21 OFFCURVE",
"99 -22 OFFCURVE",
"196 -22 CURVE SMOOTH",
"324 -22 OFFCURVE",
"441 54 OFFCURVE",
"441 178 CURVE SMOOTH",
"441 272 OFFCURVE",
"373 324 OFFCURVE",
"310 371 CURVE SMOOTH",
"253 413 OFFCURVE",
"197 455 OFFCURVE",
"197 522 CURVE SMOOTH",
"197 576 OFFCURVE",
"234 617 OFFCURVE",
"288 617 CURVE SMOOTH",
"332 617 OFFCURVE",
"358 590 OFFCURVE",
"358 547 CURVE SMOOTH",
"358 526 OFFCURVE",
"352 495 OFFCURVE",
"343 473 CURVE",
"355 465 OFFCURVE",
"374 460 OFFCURVE",
"391 460 CURVE SMOOTH",
"435 460 OFFCURVE",
"482 493 OFFCURVE",
"482 562 CURVE SMOOTH",
"482 645 OFFCURVE",
"415 680 OFFCURVE",
"323 680 CURVE SMOOTH"
);
}
);
width = 504;
},
{
anchors = (
{
name = bottom;
position = "{232, 0}";
},
{
name = top;
position = "{387, 660}";
}
);
layerId = "8C7E3CD8-8122-4AAB-8613-74D9DEE9A67D";
paths = (
{
closed = 1;
nodes = (
"202 680 OFFCURVE",
"63 587 OFFCURVE",
"63 446 CURVE SMOOTH",
"63 356 OFFCURVE",
"119 309 OFFCURVE",
"180 271 CURVE SMOOTH",
"246 230 OFFCURVE",
"324 196 OFFCURVE",
"324 131 CURVE SMOOTH",
"324 80 OFFCURVE",
"276 48 OFFCURVE",
"226 48 CURVE SMOOTH",
"181 48 OFFCURVE",
"169 75 OFFCURVE",
"169 119 CURVE SMOOTH",
"169 148 OFFCURVE",
"174 178 OFFCURVE",
"185 206 CURVE",
"161 215 OFFCURVE",
"135 219 OFFCURVE",
"114 219 CURVE SMOOTH",
"40 219 OFFCURVE",
"-2 170 OFFCURVE",
"-2 105 CURVE SMOOTH",
"-2 -1 OFFCURVE",
"109 -20 OFFCURVE",
"191 -20 CURVE SMOOTH",
"365 -20 OFFCURVE",
"527 67 OFFCURVE",
"527 214 CURVE SMOOTH",
"527 301 OFFCURVE",
"469 346 OFFCURVE",
"408 382 CURVE SMOOTH",
"337 424 OFFCURVE",
"261 453 OFFCURVE",
"261 518 CURVE SMOOTH",
"261 569 OFFCURVE",
"309 617 OFFCURVE",
"361 617 CURVE SMOOTH",
"403 617 OFFCURVE",
"418 585 OFFCURVE",
"418 540 CURVE SMOOTH",
"418 517 OFFCURVE",
"414 486 OFFCURVE",
"403 462 CURVE",
"420 456 OFFCURVE",
"441 452 OFFCURVE",
"461 452 CURVE SMOOTH",
"521 452 OFFCURVE",
"582 486 OFFCURVE",
"582 560 CURVE SMOOTH",
"582 658 OFFCURVE",
"475 680 OFFCURVE",
"386 680 CURVE SMOOTH"
);
}
);
width = 580;
},
{
anchors = (
{
name = bottom;
position = "{259, 0}";
},
{
name = top;
position = "{398, 660}";
}
);
layerId = "C4C1D9D9-3F21-4BC7-A2AB-A5431E2D31D1";
paths = (
{
closed = 1;
nodes = (
"207 680 OFFCURVE",
"52 576 OFFCURVE",
"52 425 CURVE SMOOTH",
"52 338 OFFCURVE",
"101 293 OFFCURVE",
"161 261 CURVE SMOOTH",
"232 220 OFFCURVE",
"322 189 OFFCURVE",
"322 123 CURVE SMOOTH",
"322 73 OFFCURVE",
"287 46 OFFCURVE",
"242 46 CURVE SMOOTH",
"200 46 OFFCURVE",
"186 83 OFFCURVE",
"186 126 CURVE SMOOTH",
"186 157 OFFCURVE",
"193 190 OFFCURVE",
"203 216 CURVE",
"173 226 OFFCURVE",
"143 229 OFFCURVE",
"121 229 CURVE SMOOTH",
"33 229 OFFCURVE",
"-8 170 OFFCURVE",
"-8 104 CURVE SMOOTH",
"-8 -12 OFFCURVE",
"114 -19 OFFCURVE",
"189 -19 CURVE SMOOTH",
"390 -19 OFFCURVE",
"569 54 OFFCURVE",
"569 232 CURVE SMOOTH",
"569 315 OFFCURVE",
"516 357 OFFCURVE",
"456 387 CURVE SMOOTH",
"378 429 OFFCURVE",
"292 452 OFFCURVE",
"292 516 CURVE SMOOTH",
"292 581 OFFCURVE",
"339 618 OFFCURVE",
"381 618 CURVE SMOOTH",
"429 618 OFFCURVE",
"447 574 OFFCURVE",
"447 529 CURVE SMOOTH",
"447 503 OFFCURVE",
"441 476 OFFCURVE",
"432 457 CURVE",
"452 452 OFFCURVE",
"474 448 OFFCURVE",
"495 448 CURVE SMOOTH",
"563 448 OFFCURVE",
"631 483 OFFCURVE",
"631 559 CURVE SMOOTH",
"631 664 OFFCURVE",
"504 680 OFFCURVE",
"417 680 CURVE SMOOTH"
);
}
);
width = 593;
}
);
unicode = 0053;
},
{
glyphname = Scedilla;
layers = (
{
components = (
{
name = S;
},
{
name = cedilla;
transform = "{1, 0, 0, 1, -6, 0}";
}
);
layerId = UUID0;
width = 504;
},
{
components = (
{
name = S;
},
{
name = cedilla;
transform = "{1, 0, 0, 1, 6, 0}";
}
);
layerId = "8C7E3CD8-8122-4AAB-8613-74D9DEE9A67D";
width = 580;
},
{
background = {
paths = (
{
closed = 1;
nodes = (
"207 680 OFFCURVE",
"52 576 OFFCURVE",
"52 425 CURVE SMOOTH",
"52 338 OFFCURVE",
"101 293 OFFCURVE",
"161 261 CURVE SMOOTH",
"232 220 OFFCURVE",
"322 189 OFFCURVE",
"322 123 CURVE SMOOTH",
"322 73 OFFCURVE",
"287 46 OFFCURVE",
"242 46 CURVE SMOOTH",
"200 46 OFFCURVE",
"186 83 OFFCURVE",
"186 126 CURVE SMOOTH",
"186 157 OFFCURVE",
"193 190 OFFCURVE",
"203 216 CURVE",
"173 226 OFFCURVE",
"143 229 OFFCURVE",
"121 229 CURVE SMOOTH",
"33 229 OFFCURVE",
"-8 170 OFFCURVE",
"-8 104 CURVE SMOOTH",
"-8 -12 OFFCURVE",
"114 -19 OFFCURVE",
"189 -19 CURVE SMOOTH",
"390 -19 OFFCURVE",
"569 54 OFFCURVE",
"569 232 CURVE SMOOTH",
"569 315 OFFCURVE",
"516 357 OFFCURVE",
"456 387 CURVE SMOOTH",
"378 429 OFFCURVE",
"292 452 OFFCURVE",
"292 516 CURVE SMOOTH",
"292 581 OFFCURVE",
"339 618 OFFCURVE",
"381 618 CURVE SMOOTH",
"429 618 OFFCURVE",
"447 574 OFFCURVE",
"447 529 CURVE SMOOTH",
"447 503 OFFCURVE",
"441 476 OFFCURVE",
"432 457 CURVE",
"452 452 OFFCURVE",
"474 448 OFFCURVE",
"495 448 CURVE SMOOTH",
"563 448 OFFCURVE",
"631 483 OFFCURVE",
"631 559 CURVE SMOOTH",
"631 664 OFFCURVE",
"504 680 OFFCURVE",
"417 680 CURVE SMOOTH"
);
}
);
};
components = (
{
name = S;
},
{
name = cedilla;
transform = "{1, 0, 0, 1, 14, 0}";
}
);
layerId = "C4C1D9D9-3F21-4BC7-A2AB-A5431E2D31D1";
width = 593;
}
);
leftMetricsKey = S;
rightMetricsKey = S;
unicode = 015E;
},
{
glyphname = Germandbls;
layers = (
{
layerId = UUID0;
paths = (
{
closed = 1;
nodes = (
"130 0 LINE",
"194 334 LINE SMOOTH",
"228 511 OFFCURVE",
"283 622 OFFCURVE",
"418 622 CURVE SMOOTH",
"464 622 OFFCURVE",
"503 609 OFFCURVE",
"540 581 CURVE",
"410 510 OFFCURVE",
"377 444 OFFCURVE",
"377 386 CURVE SMOOTH",
"377 252 OFFCURVE",
"550 234 OFFCURVE",
"550 129 CURVE SMOOTH",
"550 70 OFFCURVE",
"495 43 OFFCURVE",
"446 43 CURVE SMOOTH",
"400 43 OFFCURVE",
"366 66 OFFCURVE",
"366 112 CURVE SMOOTH",
"366 131 OFFCURVE",
"372 163 OFFCURVE",
"381 185 CURVE",
"369 193 OFFCURVE",
"350 198 OFFCURVE",
"331 198 CURVE SMOOTH",
"286 198 OFFCURVE",
"242 169 OFFCURVE",
"242 108 CURVE SMOOTH",
"242 21 OFFCURVE",
"328 -22 OFFCURVE",
"427 -22 CURVE SMOOTH",
"550 -22 OFFCURVE",
"663 44 OFFCURVE",
"663 162 CURVE SMOOTH",
"663 308 OFFCURVE",
"489 331 OFFCURVE",
"489 416 CURVE SMOOTH",
"489 454 OFFCURVE",
"524 515 OFFCURVE",
"680 580 CURVE",
"632 641 OFFCURVE",
"551 680 OFFCURVE",
"433 680 CURVE SMOOTH",
"250 680 OFFCURVE",
"127 586 OFFCURVE",
"77 330 CURVE SMOOTH",
"13 0 LINE"
);
}
);
width = 713;
},
{
layerId = "8C7E3CD8-8122-4AAB-8613-74D9DEE9A67D";
paths = (
{
closed = 1;
nodes = (
"203 0 LINE",
"270 342 LINE SMOOTH",
"305 521 OFFCURVE",
"356 634 OFFCURVE",
"463 634 CURVE SMOOTH",
"514 634 OFFCURVE",
"550 609 OFFCURVE",
"568 582 CURVE",
"463 528 OFFCURVE",
"366 454 OFFCURVE",
"366 346 CURVE SMOOTH",
"366 213 OFFCURVE",
"512 202 OFFCURVE",
"512 124 CURVE SMOOTH",
"512 97 OFFCURVE",
"494 48 OFFCURVE",
"443 48 CURVE SMOOTH",
"408 48 OFFCURVE",
"397 71 OFFCURVE",
"397 103 CURVE SMOOTH",
"397 125 OFFCURVE",
"402 145 OFFCURVE",
"409 166 CURVE",
"391 175 OFFCURVE",
"371 179 OFFCURVE",
"353 179 CURVE SMOOTH",
"298 179 OFFCURVE",
"266 139 OFFCURVE",
"266 87 CURVE SMOOTH",
"266 -3 OFFCURVE",
"361 -20 OFFCURVE",
"428 -20 CURVE SMOOTH",
"575 -20 OFFCURVE",
"710 63 OFFCURVE",
"710 204 CURVE SMOOTH",
"710 349 OFFCURVE",
"567 353 OFFCURVE",
"567 432 CURVE SMOOTH",
"567 511 OFFCURVE",
"710 573 OFFCURVE",
"729 581 CURVE",
"679 645 OFFCURVE",
"597 680 OFFCURVE",
"458 680 CURVE SMOOTH",
"276 680 OFFCURVE",
"107 620 OFFCURVE",
"50 331 CURVE SMOOTH",
"-15 0 LINE"
);
}
);
width = 757;
},
{
layerId = "C4C1D9D9-3F21-4BC7-A2AB-A5431E2D31D1";
paths = (
{
closed = 1;
nodes = (
"239 0 LINE",
"307 346 LINE SMOOTH",
"343 526 OFFCURVE",
"392 640 OFFCURVE",
"485 640 CURVE SMOOTH",
"538 640 OFFCURVE",
"573 609 OFFCURVE",
"582 582 CURVE",
"489 537 OFFCURVE",
"361 459 OFFCURVE",
"361 326 CURVE SMOOTH",
"361 194 OFFCURVE",
"493 181 OFFCURVE",
"493 103 CURVE SMOOTH",
"493 69 OFFCURVE",
"477 50 OFFCURVE",
"447 50 CURVE SMOOTH",
"426 50 OFFCURVE",
"411 67 OFFCURVE",
"411 90 CURVE SMOOTH",
"411 111 OFFCURVE",
"417 136 OFFCURVE",
"423 157 CURVE",
"402 166 OFFCURVE",
"381 170 OFFCURVE",
"364 170 CURVE SMOOTH",
"304 170 OFFCURVE",
"278 124 OFFCURVE",
"278 77 CURVE SMOOTH",
"278 -15 OFFCURVE",
"377 -19 OFFCURVE",
"428 -19 CURVE SMOOTH",
"587 -19 OFFCURVE",
"733 72 OFFCURVE",
"733 225 CURVE SMOOTH",
"733 369 OFFCURVE",
"605 364 OFFCURVE",
"605 440 CURVE SMOOTH",
"605 521 OFFCURVE",
"710 554 OFFCURVE",
"753 581 CURVE",
"702 647 OFFCURVE",
"619 680 OFFCURVE",
"470 680 CURVE SMOOTH",
"289 680 OFFCURVE",
"97 637 OFFCURVE",
"37 331 CURVE SMOOTH",
"-29 0 LINE"
);
}
);
width = 779;
}
);
unicode = 1E9E;
},
{
glyphname = Schwa;
layers = (
{
layerId = UUID0;
paths = (
{
closed = 1;
nodes = (
"413 -26 OFFCURVE",
"529 210 OFFCURVE",
"529 428 CURVE SMOOTH",
"529 600 OFFCURVE",
"468 680 OFFCURVE",
"336 680 CURVE SMOOTH",
"204 680 OFFCURVE",
"118 601 OFFCURVE",
"116 527 CURVE SMOOTH",
"116 509 OFFCURVE",
"122 488 OFFCURVE",
"138 482 CURVE",
"169 547 OFFCURVE",
"226 584 OFFCURVE",
"294 584 CURVE SMOOTH",
"380 584 OFFCURVE",
"404 526 OFFCURVE",
"404 426 CURVE SMOOTH",
"404 405 OFFCURVE",
"402 373 OFFCURVE",
"398 342 CURVE",
"383 343 OFFCURVE",
"351 345 OFFCURVE",
"331 345 CURVE SMOOTH",
"172 345 OFFCURVE",
"34 266 OFFCURVE",
"34 117 CURVE SMOOTH",
"34 10 OFFCURVE",
"100 -26 OFFCURVE",
"188 -26 CURVE SMOOTH"
);
},
{
closed = 1;
nodes = (
"175 36 OFFCURVE",
"153 63 OFFCURVE",
"153 118 CURVE SMOOTH",
"153 240 OFFCURVE",
"280 290 OFFCURVE",
"391 290 CURVE",
"370 183 OFFCURVE",
"309 36 OFFCURVE",
"216 36 CURVE SMOOTH"
);
}
);
width = 558;
},
{
layerId = "8C7E3CD8-8122-4AAB-8613-74D9DEE9A67D";
paths = (
{
closed = 1;
nodes = (
"438 -26 OFFCURVE",
"568 177 OFFCURVE",
"568 400 CURVE SMOOTH",
"568 593 OFFCURVE",
"482 680 OFFCURVE",
"334 680 CURVE SMOOTH",
"203 680 OFFCURVE",
"72 613 OFFCURVE",
"72 501 CURVE SMOOTH",
"72 476 OFFCURVE",
"79 458 OFFCURVE",
"98 444 CURVE",
"131 498 OFFCURVE",
"200 527 OFFCURVE",
"258 527 CURVE SMOOTH",
"329 527 OFFCURVE",
"352 484 OFFCURVE",
"352 408 CURVE SMOOTH",
"352 391 OFFCURVE",
"350 368 OFFCURVE",
"347 347 CURVE",
"326 347 OFFCURVE",
"306 347 OFFCURVE",
"286 346 CURVE SMOOTH",
"85 334 OFFCURVE",
"-15 254 OFFCURVE",
"-15 127 CURVE SMOOTH",
"-15 2 OFFCURVE",
"76 -26 OFFCURVE",
"175 -26 CURVE SMOOTH"
);
},
{
closed = 1;
nodes = (
"169 29 OFFCURVE",
"160 60 OFFCURVE",
"160 105 CURVE SMOOTH",
"161 218 OFFCURVE",
"229 302 OFFCURVE",
"339 302 CURVE",
"307 108 OFFCURVE",
"255 29 OFFCURVE",
"203 29 CURVE SMOOTH"
);
}
);
width = 590;
},
{
layerId = "C4C1D9D9-3F21-4BC7-A2AB-A5431E2D31D1";
paths = (
{
closed = 1;
nodes = (
"479 -26 OFFCURVE",
"616 161 OFFCURVE",
"616 386 CURVE SMOOTH",
"616 590 OFFCURVE",
"518 680 OFFCURVE",
"362 680 CURVE SMOOTH",
"232 680 OFFCURVE",
"79 619 OFFCURVE",
"79 488 CURVE SMOOTH",
"79 460 OFFCURVE",
"87 443 OFFCURVE",
"107 425 CURVE",
"141 474 OFFCURVE",
"216 499 OFFCURVE",
"269 499 CURVE SMOOTH",
"333 499 OFFCURVE",
"356 463 OFFCURVE",
"356 399 CURVE SMOOTH",
"356 384 OFFCURVE",
"354 366 OFFCURVE",
"351 349 CURVE",
"327 349 OFFCURVE",
"313 348 OFFCURVE",
"293 346 CURVE SMOOTH",
"71 329 OFFCURVE",
"-10 248 OFFCURVE",
"-10 132 CURVE SMOOTH",
"-10 -2 OFFCURVE",
"93 -26 OFFCURVE",
"198 -26 CURVE SMOOTH"
);
},
{
closed = 1;
nodes = (
"195 26 OFFCURVE",
"192 59 OFFCURVE",
"192 99 CURVE SMOOTH",
"194 207 OFFCURVE",
"233 308 OFFCURVE",
"343 308 CURVE",
"305 71 OFFCURVE",
"258 26 OFFCURVE",
"226 26 CURVE SMOOTH"
);
}
);
width = 619;
}
);
rightKerningGroup = O;
rightMetricsKey = O;
unicode = 018F;
},
{
glyphname = T;
layers = (
{
anchors = (
{
name = bottom;
position = "{176, 0}";
},
{
name = center;
position = "{201, 330}";
},
{
name = top;
position = "{275, 660}";
}
);
layerId = UUID0;
paths = (
{
closed = 1;
nodes = (
"146 660 LINE SMOOTH",
"98 660 OFFCURVE",
"44 653 OFFCURVE",
"44 604 CURVE SMOOTH",
"44 588 OFFCURVE",
"50 570 OFFCURVE",
"58 559 CURVE",
"77 568 OFFCURVE",
"116 571 OFFCURVE",
"137 571 CURVE SMOOTH",
"201 571 LINE",
"109 104 LINE SMOOTH",
"106 90 OFFCURVE",
"103 66 OFFCURVE",
"103 45 CURVE SMOOTH",
"103 6 OFFCURVE",
"117 -20 OFFCURVE",
"163 -20 CURVE SMOOTH",
"187 -20 OFFCURVE",
"209 -13 OFFCURVE",
"230 4 CURVE",
"221 19 OFFCURVE",
"218 35 OFFCURVE",
"218 49 CURVE SMOOTH",
"218 63 OFFCURVE",
"221 83 OFFCURVE",
"223 94 CURVE SMOOTH",
"318 571 LINE",
"387 571 LINE SMOOTH",
"435 571 OFFCURVE",
"489 578 OFFCURVE",
"489 627 CURVE SMOOTH",
"489 643 OFFCURVE",
"483 661 OFFCURVE",
"475 672 CURVE",
"456 663 OFFCURVE",
"417 660 OFFCURVE",
"396 660 CURVE SMOOTH"
);
}
);
width = 402;
},
{
anchors = (
{
name = bottom;
position = "{171, 0}";
},
{
name = center;
position = "{228, 330}";
},
{
name = top;
position = "{282, 660}";
}
);
layerId = "8C7E3CD8-8122-4AAB-8613-74D9DEE9A67D";
paths = (
{
closed = 1;
nodes = (
"122 660 LINE SMOOTH",
"61 660 OFFCURVE",
"22 640 OFFCURVE",
"22 578 CURVE SMOOTH",
"22 568 OFFCURVE",
"23 548 OFFCURVE",
"26 536 CURVE",
"47 539 OFFCURVE",
"68 540 OFFCURVE",
"95 540 CURVE SMOOTH",
"160 540 LINE",
"107 285 LINE SMOOTH",
"85 179 OFFCURVE",
"78 116 OFFCURVE",
"78 82 CURVE SMOOTH",
"78 19 OFFCURVE",
"110 -20 OFFCURVE",
"183 -20 CURVE SMOOTH",
"222 -20 OFFCURVE",
"264 -9 OFFCURVE",
"297 14 CURVE",
"290 26 OFFCURVE",
"284 51 OFFCURVE",
"284 77 CURVE SMOOTH",
"284 99 OFFCURVE",
"288 132 OFFCURVE",
"293 160 CURVE SMOOTH",
"368 540 LINE",
"418 540 LINE SMOOTH",
"479 540 OFFCURVE",
"529 552 OFFCURVE",
"529 613 CURVE SMOOTH",
"529 632 OFFCURVE",
"524 657 OFFCURVE",
"514 670 CURVE",
"495 664 OFFCURVE",
"461 660 OFFCURVE",
"416 660 CURVE SMOOTH"
);
}
);
width = 456;
},
{
anchors = (
{
name = bottom;
position = "{229, 0}";
},
{
name = center;
position = "{260, 330}";
},
{
name = top;
position = "{319, 660}";
}
);
layerId = "C4C1D9D9-3F21-4BC7-A2AB-A5431E2D31D1";
paths = (
{
closed = 1;
nodes = (
"148 660 LINE SMOOTH",
"81 660 OFFCURVE",
"49 634 OFFCURVE",
"49 565 CURVE SMOOTH",
"49 558 OFFCURVE",
"48 537 OFFCURVE",
"48 525 CURVE",
"70 525 OFFCURVE",
"83 525 OFFCURVE",
"112 525 CURVE SMOOTH",
"178 525 LINE",
"144 373 LINE SMOOTH",
"113 222 OFFCURVE",
"104 140 OFFCURVE",
"104 100 CURVE SMOOTH",
"104 25 OFFCURVE",
"145 -20 OFFCURVE",
"231 -20 CURVE SMOOTH",
"277 -20 OFFCURVE",
"329 -7 OFFCURVE",
"368 19 CURVE",
"362 29 OFFCURVE",
"354 59 OFFCURVE",
"354 91 CURVE SMOOTH",
"354 117 OFFCURVE",
"359 156 OFFCURVE",
"365 192 CURVE SMOOTH",
"430 525 LINE",
"471 525 LINE SMOOTH",
"539 525 OFFCURVE",
"587 539 OFFCURVE",
"587 606 CURVE SMOOTH",
"587 627 OFFCURVE",
"582 655 OFFCURVE",
"571 669 CURVE",
"552 664 OFFCURVE",
"521 660 OFFCURVE",
"464 660 CURVE SMOOTH"
);
}
);
width = 520;
}
);
leftKerningGroup = T;
rightKerningGroup = T;
unicode = 0054;
},
{
glyphname = Tbar;
layers = (
{
layerId = UUID0;
paths = (
{
closed = 1;
nodes = (
"456 663 OFFCURVE",
"417 660 OFFCURVE",
"396 660 CURVE SMOOTH",
"146 660 LINE SMOOTH",
"98 660 OFFCURVE",
"44 653 OFFCURVE",
"44 604 CURVE SMOOTH",
"44 588 OFFCURVE",
"50 570 OFFCURVE",
"58 559 CURVE",
"77 568 OFFCURVE",
"116 571 OFFCURVE",
"137 571 CURVE SMOOTH",
"201 571 LINE",
"163 379 LINE",
"54 379 LINE SMOOTH",
"18 379 OFFCURVE",
"-1 362 OFFCURVE",
"-2 331 CURVE SMOOTH",
"-2 326 OFFCURVE",
"-2 315 OFFCURVE",
"0 307 CURVE",
"149 307 LINE",
"109 104 LINE SMOOTH",
"106 90 OFFCURVE",
"103 66 OFFCURVE",
"103 45 CURVE SMOOTH",
"103 6 OFFCURVE",
"117 -20 OFFCURVE",
"163 -20 CURVE SMOOTH",
"187 -20 OFFCURVE",
"209 -13 OFFCURVE",
"230 4 CURVE",
"221 19 OFFCURVE",
"218 35 OFFCURVE",
"218 49 CURVE SMOOTH",
"218 63 OFFCURVE",
"221 83 OFFCURVE",
"223 94 CURVE SMOOTH",
"265 307 LINE",
"376 307 LINE SMOOTH",
"422 307 OFFCURVE",
"439 326 OFFCURVE",
"439 355 CURVE SMOOTH",
"439 362 OFFCURVE",
"438 372 OFFCURVE",
"436 379 CURVE",
"280 379 LINE",
"318 571 LINE",
"387 571 LINE SMOOTH",
"435 571 OFFCURVE",
"489 578 OFFCURVE",
"489 627 CURVE SMOOTH",
"489 643 OFFCURVE",
"483 661 OFFCURVE",
"475 672 CURVE"
);
}
);
width = 405;
},
{
layerId = "8C7E3CD8-8122-4AAB-8613-74D9DEE9A67D";
paths = (
{
closed = 1;
nodes = (
"495 664 OFFCURVE",
"461 660 OFFCURVE",
"416 660 CURVE SMOOTH",
"122 660 LINE SMOOTH",
"61 660 OFFCURVE",
"22 640 OFFCURVE",
"22 578 CURVE SMOOTH",
"22 568 OFFCURVE",
"23 548 OFFCURVE",
"26 536 CURVE",
"47 539 OFFCURVE",
"68 540 OFFCURVE",
"95 540 CURVE SMOOTH",
"160 540 LINE",
"127 379 LINE",
"65 379 LINE SMOOTH",
"26 379 OFFCURVE",
"-2 353 OFFCURVE",
"-3 314 CURVE SMOOTH",
"-3 307 OFFCURVE",
"-3 296 OFFCURVE",
"0 287 CURVE",
"107 287 LINE",
"92 201 LINE SMOOTH",
"82 143 OFFCURVE",
"78 106 OFFCURVE",
"78 82 CURVE SMOOTH",
"78 19 OFFCURVE",
"110 -20 OFFCURVE",
"183 -20 CURVE SMOOTH",
"222 -20 OFFCURVE",
"264 -9 OFFCURVE",
"297 14 CURVE",
"290 26 OFFCURVE",
"284 51 OFFCURVE",
"284 77 CURVE SMOOTH",
"284 99 OFFCURVE",
"288 132 OFFCURVE",
"293 160 CURVE SMOOTH",
"318 287 LINE",
"394 287 LINE SMOOTH",
"445 287 OFFCURVE",
"470 315 OFFCURVE",
"470 351 CURVE SMOOTH",
"470 361 OFFCURVE",
"468 371 OFFCURVE",
"466 379 CURVE",
"336 379 LINE",
"368 540 LINE",
"418 540 LINE SMOOTH",
"479 540 OFFCURVE",
"529 552 OFFCURVE",
"529 613 CURVE SMOOTH",
"529 632 OFFCURVE",
"524 657 OFFCURVE",
"514 670 CURVE"
);
}
);
width = 456;
},
{
layerId = "C4C1D9D9-3F21-4BC7-A2AB-A5431E2D31D1";
paths = (
{
closed = 1;
nodes = (
"552 664 OFFCURVE",
"521 660 OFFCURVE",
"464 660 CURVE SMOOTH",
"148 660 LINE SMOOTH",
"81 660 OFFCURVE",
"49 634 OFFCURVE",
"49 565 CURVE SMOOTH",
"49 558 OFFCURVE",
"48 537 OFFCURVE",
"48 525 CURVE",
"70 525 OFFCURVE",
"83 525 OFFCURVE",
"112 525 CURVE SMOOTH",
"178 525 LINE",
"147 379 LINE",
"108 379 LINE SMOOTH",
"68 379 OFFCURVE",
"36 349 OFFCURVE",
"35 306 CURVE SMOOTH",
"35 298 OFFCURVE",
"35 287 OFFCURVE",
"38 277 CURVE",
"124 277 LINE",
"122 248 LINE SMOOTH",
"108 169 OFFCURVE",
"104 126 OFFCURVE",
"104 100 CURVE SMOOTH",
"104 25 OFFCURVE",
"145 -20 OFFCURVE",
"231 -20 CURVE SMOOTH",
"277 -20 OFFCURVE",
"329 -7 OFFCURVE",
"368 19 CURVE",
"362 29 OFFCURVE",
"354 59 OFFCURVE",
"354 91 CURVE SMOOTH",
"354 117 OFFCURVE",
"359 156 OFFCURVE",
"365 192 CURVE SMOOTH",
"382 277 LINE",
"441 277 LINE SMOOTH",
"494 277 OFFCURVE",
"523 310 OFFCURVE",
"523 349 CURVE SMOOTH",
"523 361 OFFCURVE",
"521 371 OFFCURVE",
"519 379 CURVE",
"401 379 LINE",
"430 525 LINE",
"471 525 LINE SMOOTH",
"539 525 OFFCURVE",
"587 539 OFFCURVE",
"587 606 CURVE SMOOTH",
"587 627 OFFCURVE",
"582 655 OFFCURVE",
"571 669 CURVE"
);
}
);
width = 520;
}
);
leftMetricsKey = T;
rightMetricsKey = T;
unicode = 0166;
},
{
glyphname = U;
layers = (
{
anchors = (
{
name = bottom;
position = "{211, 0}";
},
{
name = ogonek;
position = "{354, 10}";
},
{
name = top;
position = "{379, 660}";
}
);
layerId = UUID0;
paths = (
{
closed = 1;
nodes = (
"465 660 LINE",
"395 261 LINE SMOOTH",
"377 157 OFFCURVE",
"348 56 OFFCURVE",
"248 56 CURVE SMOOTH",
"192 56 OFFCURVE",
"160 88 OFFCURVE",
"160 143 CURVE SMOOTH",
"160 170 OFFCURVE",
"168 214 OFFCURVE",
"173 241 CURVE SMOOTH",
"252 660 LINE",
"135 660 LINE",
"56 252 LINE SMOOTH",
"49 217 OFFCURVE",
"42 172 OFFCURVE",
"42 138 CURVE SMOOTH",
"42 34 OFFCURVE",
"107 -20 OFFCURVE",
"225 -20 CURVE SMOOTH",
"384 -20 OFFCURVE",
"458 79 OFFCURVE",
"494 270 CURVE SMOOTH",
"569 660 LINE"
);
}
);
width = 569;
},
{
anchors = (
{
name = bottom;
position = "{281, 0}";
},
{
name = ogonek;
position = "{419, 10}";
},
{
name = top;
position = "{409, 660}";
}
);
layerId = "8C7E3CD8-8122-4AAB-8613-74D9DEE9A67D";
paths = (
{
closed = 1;
nodes = (
"505 660 LINE",
"426 244 LINE SMOOTH",
"407 145 OFFCURVE",
"386 72 OFFCURVE",
"310 72 CURVE SMOOTH",
"268 72 OFFCURVE",
"248 95 OFFCURVE",
"248 143 CURVE SMOOTH",
"248 169 OFFCURVE",
"254 213 OFFCURVE",
"260 244 CURVE SMOOTH",
"338 660 LINE",
"117 660 LINE",
"39 257 LINE SMOOTH",
"32 222 OFFCURVE",
"26 171 OFFCURVE",
"26 142 CURVE SMOOTH",
"26 22 OFFCURVE",
"132 -20 OFFCURVE",
"262 -20 CURVE SMOOTH",
"451 -20 OFFCURVE",
"544 69 OFFCURVE",
"579 255 CURVE SMOOTH",
"656 660 LINE"
);
}
);
width = 646;
},
{
anchors = (
{
name = bottom;
position = "{301, 0}";
},
{
name = ogonek;
position = "{459, 10}";
},
{
name = top;
position = "{420, 660}";
}
);
layerId = "C4C1D9D9-3F21-4BC7-A2AB-A5431E2D31D1";
paths = (
{
closed = 1;
nodes = (
"525 660 LINE",
"441 236 LINE SMOOTH",
"422 139 OFFCURVE",
"405 80 OFFCURVE",
"340 80 CURVE SMOOTH",
"301 80 OFFCURVE",
"288 99 OFFCURVE",
"288 137 CURVE SMOOTH",
"288 164 OFFCURVE",
"295 200 OFFCURVE",
"303 245 CURVE SMOOTH",
"380 660 LINE",
"108 660 LINE",
"31 259 LINE SMOOTH",
"24 224 OFFCURVE",
"18 171 OFFCURVE",
"18 144 CURVE SMOOTH",
"18 16 OFFCURVE",
"144 -20 OFFCURVE",
"280 -20 CURVE SMOOTH",
"484 -20 OFFCURVE",
"586 64 OFFCURVE",
"621 248 CURVE SMOOTH",
"699 660 LINE"
);
}
);
width = 647;
}
);
unicode = 0055;
},
{
glyphname = V;
layers = (
{
layerId = UUID0;
paths = (
{
closed = 1;
nodes = (
"104 0 LINE",
"260 0 LINE",
"563 660 LINE",
"448 660 LINE",
"210 80 LINE",
"181 566 LINE SMOOTH",
"177 626 OFFCURVE",
"159 679 OFFCURVE",
"102 679 CURVE SMOOTH",
"69 679 OFFCURVE",
"40 661 OFFCURVE",
"32 629 CURVE",
"60 610 OFFCURVE",
"69 573 OFFCURVE",
"71 537 CURVE SMOOTH"
);
}
);
width = 488;
},
{
layerId = "8C7E3CD8-8122-4AAB-8613-74D9DEE9A67D";
paths = (
{
closed = 1;
nodes = (
"90 0 LINE",
"324 0 LINE",
"635 660 LINE",
"512 660 LINE",
"273 123 LINE",
"273 470 LINE SMOOTH",
"273 594 OFFCURVE",
"251 680 OFFCURVE",
"128 680 CURVE SMOOTH",
"68 680 OFFCURVE",
"29 660 OFFCURVE",
"8 620 CURVE",
"38 596 OFFCURVE",
"55 552 OFFCURVE",
"60 480 CURVE SMOOTH"
);
}
);
width = 541;
},
{
layerId = "C4C1D9D9-3F21-4BC7-A2AB-A5431E2D31D1";
paths = (
{
closed = 1;
nodes = (
"127 0 LINE",
"399 0 LINE",
"714 660 LINE",
"587 660 LINE",
"348 144 LINE",
"362 423 LINE SMOOTH",
"364 578 OFFCURVE",
"340 680 OFFCURVE",
"185 680 CURVE SMOOTH",
"112 680 OFFCURVE",
"68 660 OFFCURVE",
"40 616 CURVE",
"71 589 OFFCURVE",
"92 542 OFFCURVE",
"99 452 CURVE SMOOTH"
);
}
);
width = 611;
}
);
leftKerningGroup = V;
rightKerningGroup = V;
unicode = 0056;
},
{
glyphname = W;
layers = (
{
anchors = (
{
name = top;
position = "{477, 660}";
}
);
layerId = UUID0;
paths = (
{
closed = 1;
nodes = (
"104 0 LINE",
"260 0 LINE",
"420 414 LINE",
"437 0 LINE",
"593 0 LINE",
"878 660 LINE",
"763 660 LINE",
"543 80 LINE",
"509 660 LINE",
"430 660 LINE",
"210 80 LINE",
"181 566 LINE SMOOTH",
"177 626 OFFCURVE",
"159 679 OFFCURVE",
"102 679 CURVE SMOOTH",
"69 679 OFFCURVE",
"40 661 OFFCURVE",
"32 629 CURVE",
"60 610 OFFCURVE",
"69 573 OFFCURVE",
"71 537 CURVE SMOOTH"
);
}
);
width = 803;
},
{
anchors = (
{
name = top;
position = "{566, 660}";
}
);
layerId = "8C7E3CD8-8122-4AAB-8613-74D9DEE9A67D";
paths = (
{
closed = 1;
nodes = (
"90 0 LINE",
"324 0 LINE",
"463 315 LINE",
"483 0 LINE",
"697 0 LINE",
"1001 660 LINE",
"878 660 LINE",
"646 123 LINE",
"615 660 LINE",
"496 660 LINE",
"273 123 LINE",
"273 470 LINE SMOOTH",
"273 594 OFFCURVE",
"251 680 OFFCURVE",
"128 680 CURVE SMOOTH",
"68 680 OFFCURVE",
"29 660 OFFCURVE",
"8 620 CURVE",
"38 596 OFFCURVE",
"55 552 OFFCURVE",
"60 480 CURVE SMOOTH"
);
}
);
width = 907;
},
{
anchors = (
{
name = top;
position = "{631, 660}";
}
);
layerId = "C4C1D9D9-3F21-4BC7-A2AB-A5431E2D31D1";
paths = (
{
closed = 1;
nodes = (
"127 0 LINE",
"399 0 LINE",
"528 267 LINE",
"549 0 LINE",
"792 0 LINE",
"1105 660 LINE",
"978 660 LINE",
"740 144 LINE",
"711 660 LINE",
"572 660 LINE",
"348 144 LINE",
"362 423 LINE SMOOTH",
"364 578 OFFCURVE",
"340 680 OFFCURVE",
"185 680 CURVE SMOOTH",
"112 680 OFFCURVE",
"68 660 OFFCURVE",
"40 616 CURVE",
"71 589 OFFCURVE",
"92 542 OFFCURVE",
"99 452 CURVE SMOOTH"
);
}
);
width = 1002;
}
);
leftKerningGroup = V;
leftMetricsKey = V;
rightKerningGroup = V;
rightMetricsKey = V;
unicode = 0057;
},
{
glyphname = X;
layers = (
{
layerId = UUID0;
paths = (
{
closed = 1;
nodes = (
"192 341 LINE",
"-52 0 LINE",
"63 0 LINE",
"227 248 LINE",
"290 82 LINE SMOOTH",
"310 29 OFFCURVE",
"332 -20 OFFCURVE",
"391 -20 CURVE SMOOTH",
"429 -20 OFFCURVE",
"459 0 OFFCURVE",
"470 33 CURVE",
"441 40 OFFCURVE",
"415 87 OFFCURVE",
"402 121 CURVE SMOOTH",
"323 330 LINE",
"573 660 LINE",
"458 660 LINE",
"288 423 LINE",
"231 577 LINE SMOOTH",
"211 630 OFFCURVE",
"189 679 OFFCURVE",
"130 679 CURVE SMOOTH",
"92 679 OFFCURVE",
"62 659 OFFCURVE",
"51 626 CURVE",
"80 619 OFFCURVE",
"106 572 OFFCURVE",
"119 538 CURVE SMOOTH"
);
}
);
width = 521;
},
{
layerId = "8C7E3CD8-8122-4AAB-8613-74D9DEE9A67D";
paths = (
{
closed = 1;
nodes = (
"171 321 LINE",
"-68 0 LINE",
"64 0 LINE",
"213 206 LINE",
"244 120 LINE SMOOTH",
"274 37 OFFCURVE",
"311 -20 OFFCURVE",
"399 -20 CURVE SMOOTH",
"453 -20 OFFCURVE",
"511 2 OFFCURVE",
"532 52 CURVE",
"503 58 OFFCURVE",
"466 103 OFFCURVE",
"447 156 CURVE SMOOTH",
"384 334 LINE",
"626 660 LINE",
"494 660 LINE",
"343 449 LINE",
"301 568 LINE SMOOTH",
"273 649 OFFCURVE",
"240 679 OFFCURVE",
"165 679 CURVE SMOOTH",
"101 679 OFFCURVE",
"57 657 OFFCURVE",
"26 623 CURVE",
"59 605 OFFCURVE",
"78 578 OFFCURVE",
"99 520 CURVE SMOOTH"
);
}
);
width = 555;
},
{
layerId = "C4C1D9D9-3F21-4BC7-A2AB-A5431E2D31D1";
paths = (
{
closed = 1;
nodes = (
"188 311 LINE",
"-49 0 LINE",
"91 0 LINE",
"233 185 LINE",
"249 139 LINE SMOOTH",
"283 41 OFFCURVE",
"328 -20 OFFCURVE",
"430 -20 CURVE SMOOTH",
"492 -20 OFFCURVE",
"563 3 OFFCURVE",
"589 61 CURVE",
"560 67 OFFCURVE",
"518 111 OFFCURVE",
"496 173 CURVE SMOOTH",
"441 336 LINE",
"679 660 LINE",
"539 660 LINE",
"397 462 LINE",
"362 564 LINE SMOOTH",
"330 658 OFFCURVE",
"292 679 OFFCURVE",
"209 679 CURVE SMOOTH",
"132 679 OFFCURVE",
"82 656 OFFCURVE",
"41 622 CURVE",
"76 598 OFFCURVE",
"91 581 OFFCURVE",
"116 511 CURVE SMOOTH"
);
}
);
width = 599;
}
);
unicode = 0058;
},
{
glyphname = Y;
layers = (
{
anchors = (
{
name = top;
position = "{257, 660}";
}
);
layerId = UUID0;
paths = (
{
closed = 1;
nodes = (
"194 462 LINE SMOOTH",
"161 619 OFFCURVE",
"138 666 OFFCURVE",
"72 666 CURVE SMOOTH",
"33 666 OFFCURVE",
"3 648 OFFCURVE",
"-6 612 CURVE",
"35 593 OFFCURVE",
"84 502 OFFCURVE",
"128 321 CURVE",
"64 0 LINE",
"183 0 LINE",
"242 309 LINE",
"311 455 OFFCURVE",
"398 567 OFFCURVE",
"485 623 CURVE",
"478 652 OFFCURVE",
"455 666 OFFCURVE",
"424 666 CURVE SMOOTH",
"354 666 OFFCURVE",
"292 595 OFFCURVE",
"207 400 CURVE"
);
}
);
width = 373;
},
{
anchors = (
{
name = top;
position = "{365, 660}";
}
);
layerId = "8C7E3CD8-8122-4AAB-8613-74D9DEE9A67D";
paths = (
{
closed = 1;
nodes = (
"315 418 LINE SMOOTH",
"315 600 OFFCURVE",
"269 680 OFFCURVE",
"156 680 CURVE SMOOTH",
"97 680 OFFCURVE",
"52 658 OFFCURVE",
"24 623 CURVE",
"92 585 OFFCURVE",
"125 520 OFFCURVE",
"155 294 CURVE",
"97 0 LINE",
"315 0 LINE",
"365 255 LINE",
"430 438 OFFCURVE",
"547 580 OFFCURVE",
"652 626 CURVE",
"643 662 OFFCURVE",
"616 680 OFFCURVE",
"572 680 CURVE SMOOTH",
"469 680 OFFCURVE",
"395 581 OFFCURVE",
"315 346 CURVE"
);
}
);
width = 550;
},
{
anchors = (
{
name = top;
position = "{418, 660}";
}
);
layerId = "C4C1D9D9-3F21-4BC7-A2AB-A5431E2D31D1";
paths = (
{
closed = 1;
nodes = (
"374 397 LINE SMOOTH",
"391 592 OFFCURVE",
"333 680 OFFCURVE",
"197 680 CURVE SMOOTH",
"128 680 OFFCURVE",
"76 656 OFFCURVE",
"39 621 CURVE",
"120 574 OFFCURVE",
"145 529 OFFCURVE",
"168 281 CURVE",
"113 0 LINE",
"380 0 LINE",
"425 229 LINE",
"488 430 OFFCURVE",
"620 579 OFFCURVE",
"734 620 CURVE",
"724 660 OFFCURVE",
"695 680 OFFCURVE",
"644 680 CURVE SMOOTH",
"525 680 OFFCURVE",
"445 574 OFFCURVE",
"368 320 CURVE"
);
}
);
width = 636;
}
);
leftKerningGroup = Y;
rightKerningGroup = Y;
unicode = 0059;
},
{
glyphname = Z;
layers = (
{
anchors = (
{
name = bottom;
position = "{191, 0}";
},
{
name = top;
position = "{273, 660}";
}
);
layerId = UUID0;
paths = (
{
closed = 1;
nodes = (
"-17 100 LINE SMOOTH",
"-27 88 OFFCURVE",
"-33 72 OFFCURVE",
"-33 56 CURVE SMOOTH",
"-33 35 OFFCURVE",
"-22 12 OFFCURVE",
"-8 0 CURVE",
"9 7 OFFCURVE",
"32 12 OFFCURVE",
"62 12 CURVE SMOOTH",
"132 12 OFFCURVE",
"218 -15 OFFCURVE",
"296 -15 CURVE SMOOTH",
"355 -15 OFFCURVE",
"406 0 OFFCURVE",
"406 58 CURVE SMOOTH",
"406 76 OFFCURVE",
"401 94 OFFCURVE",
"393 108 CURVE",
"366 92 OFFCURVE",
"335 86 OFFCURVE",
"285 86 CURVE SMOOTH",
"224 86 OFFCURVE",
"158 95 OFFCURVE",
"113 104 CURVE",
"476 565 LINE SMOOTH",
"484 575 OFFCURVE",
"489 590 OFFCURVE",
"489 604 CURVE SMOOTH",
"489 625 OFFCURVE",
"478 648 OFFCURVE",
"464 660 CURVE",
"447 653 OFFCURVE",
"424 648 OFFCURVE",
"394 648 CURVE SMOOTH",
"324 648 OFFCURVE",
"248 675 OFFCURVE",
"170 675 CURVE SMOOTH",
"111 675 OFFCURVE",
"60 660 OFFCURVE",
"60 602 CURVE SMOOTH",
"60 584 OFFCURVE",
"65 566 OFFCURVE",
"73 552 CURVE",
"100 568 OFFCURVE",
"131 574 OFFCURVE",
"181 574 CURVE SMOOTH",
"242 574 OFFCURVE",
"300 565 OFFCURVE",
"345 556 CURVE"
);
}
);
width = 448;
},
{
anchors = (
{
name = bottom;
position = "{241, 0}";
},
{
name = top;
position = "{311, 660}";
}
);
layerId = "8C7E3CD8-8122-4AAB-8613-74D9DEE9A67D";
paths = (
{
closed = 1;
nodes = (
"55 218 LINE SMOOTH",
"10 181 OFFCURVE",
"-7 144 OFFCURVE",
"-7 104 CURVE SMOOTH",
"-7 62 OFFCURVE",
"11 18 OFFCURVE",
"32 0 CURVE",
"42 9 OFFCURVE",
"56 15 OFFCURVE",
"84 15 CURVE SMOOTH",
"144 15 OFFCURVE",
"233 -12 OFFCURVE",
"327 -12 CURVE SMOOTH",
"453 -12 OFFCURVE",
"490 37 OFFCURVE",
"490 112 CURVE SMOOTH",
"490 140 OFFCURVE",
"485 165 OFFCURVE",
"464 192 CURVE",
"436 165 OFFCURVE",
"396 161 OFFCURVE",
"352 161 CURVE SMOOTH",
"299 161 OFFCURVE",
"229 167 OFFCURVE",
"172 182 CURVE",
"494 443 LINE SMOOTH",
"539 479 OFFCURVE",
"562 513 OFFCURVE",
"562 566 CURVE SMOOTH",
"562 599 OFFCURVE",
"553 634 OFFCURVE",
"522 660 CURVE",
"494 653 OFFCURVE",
"461 650 OFFCURVE",
"435 650 CURVE SMOOTH",
"359 650 OFFCURVE",
"274 675 OFFCURVE",
"200 675 CURVE SMOOTH",
"116 675 OFFCURVE",
"61 643 OFFCURVE",
"61 567 CURVE SMOOTH",
"61 533 OFFCURVE",
"72 502 OFFCURVE",
"88 477 CURVE",
"116 490 OFFCURVE",
"158 500 OFFCURVE",
"193 500 CURVE SMOOTH",
"215 500 OFFCURVE",
"255 496 OFFCURVE",
"369 479 CURVE"
);
}
);
width = 539;
},
{
anchors = (
{
name = bottom;
position = "{281, 0}";
},
{
name = top;
position = "{341, 660}";
}
);
layerId = "C4C1D9D9-3F21-4BC7-A2AB-A5431E2D31D1";
paths = (
{
closed = 1;
nodes = (
"90 276 LINE SMOOTH",
"28 226 OFFCURVE",
"6 179 OFFCURVE",
"6 127 CURVE SMOOTH",
"6 75 OFFCURVE",
"27 21 OFFCURVE",
"52 0 CURVE",
"58 10 OFFCURVE",
"68 16 OFFCURVE",
"95 16 CURVE SMOOTH",
"150 16 OFFCURVE",
"240 -11 OFFCURVE",
"342 -11 CURVE SMOOTH",
"474 -11 OFFCURVE",
"538 41 OFFCURVE",
"538 117 CURVE SMOOTH",
"538 152 OFFCURVE",
"525 191 OFFCURVE",
"499 233 CURVE",
"470 201 OFFCURVE",
"426 198 OFFCURVE",
"385 198 CURVE SMOOTH",
"336 198 OFFCURVE",
"264 202 OFFCURVE",
"201 220 CURVE",
"503 383 LINE SMOOTH",
"566 432 OFFCURVE",
"598 475 OFFCURVE",
"598 547 CURVE SMOOTH",
"598 586 OFFCURVE",
"590 627 OFFCURVE",
"550 660 CURVE",
"517 653 OFFCURVE",
"479 651 OFFCURVE",
"455 651 CURVE SMOOTH",
"376 651 OFFCURVE",
"287 675 OFFCURVE",
"215 675 CURVE SMOOTH",
"118 675 OFFCURVE",
"61 635 OFFCURVE",
"61 550 CURVE SMOOTH",
"61 508 OFFCURVE",
"75 471 OFFCURVE",
"95 440 CURVE",
"113 447 OFFCURVE",
"146 460 OFFCURVE",
"213 460 CURVE SMOOTH",
"254 460 OFFCURVE",
"309 455 OFFCURVE",
"381 441 CURVE"
);
}
);
width = 562;
}
);
unicode = 005A;
},
{
glyphname = Y.loclGUA;
layers = (
{
anchors = (
{
name = top;
position = "{375, 660}";
}
);
layerId = UUID0;
paths = (
{
closed = 1;
nodes = (
"466 660 LINE",
"409 349 LINE SMOOTH",
"391 250 OFFCURVE",
"364 144 OFFCURVE",
"269 144 CURVE SMOOTH",
"216 144 OFFCURVE",
"191 178 OFFCURVE",
"191 231 CURVE SMOOTH",
"191 258 OFFCURVE",
"199 302 OFFCURVE",
"204 329 CURVE SMOOTH",
"265 660 LINE",
"148 660 LINE",
"87 340 LINE SMOOTH",
"80 305 OFFCURVE",
"74 260 OFFCURVE",
"73 226 CURVE SMOOTH",
"71 126 OFFCURVE",
"118 68 OFFCURVE",
"220 68 CURVE SMOOTH",
"274 68 OFFCURVE",
"324 80 OFFCURVE",
"363 118 CURVE",
"331 -48 OFFCURVE",
"295 -136 OFFCURVE",
"221 -136 CURVE SMOOTH",
"180 -136 OFFCURVE",
"161 -106 OFFCURVE",
"161 -66 CURVE SMOOTH",
"161 -45 OFFCURVE",
"167 -14 OFFCURVE",
"176 8 CURVE",
"164 16 OFFCURVE",
"145 21 OFFCURVE",
"128 21 CURVE SMOOTH",
"84 21 OFFCURVE",
"37 -12 OFFCURVE",
"37 -81 CURVE SMOOTH",
"37 -159 OFFCURVE",
"99 -199 OFFCURVE",
"186 -199 CURVE SMOOTH",
"397 -199 OFFCURVE",
"448 -34 OFFCURVE",
"485 164 CURVE SMOOTH",
"578 660 LINE"
);
}
);
width = 604;
},
{
anchors = (
{
name = top;
position = "{424, 660}";
}
);
layerId = "8C7E3CD8-8122-4AAB-8613-74D9DEE9A67D";
paths = (
{
closed = 1;
nodes = (
"494 660 LINE",
"432 332 LINE SMOOTH",
"415 243 OFFCURVE",
"392 160 OFFCURVE",
"326 160 CURVE SMOOTH",
"287 160 OFFCURVE",
"271 186 OFFCURVE",
"271 231 CURVE SMOOTH",
"271 257 OFFCURVE",
"277 301 OFFCURVE",
"283 332 CURVE SMOOTH",
"344 660 LINE",
"123 660 LINE",
"62 345 LINE SMOOTH",
"55 310 OFFCURVE",
"49 259 OFFCURVE",
"49 230 CURVE SMOOTH",
"49 117 OFFCURVE",
"125 68 OFFCURVE",
"238 68 CURVE SMOOTH",
"301 68 OFFCURVE",
"362 87 OFFCURVE",
"397 129 CURVE",
"376 0 OFFCURVE",
"336 -133 OFFCURVE",
"241 -133 CURVE SMOOTH",
"197 -133 OFFCURVE",
"178 -102 OFFCURVE",
"178 -52 CURVE SMOOTH",
"178 -28 OFFCURVE",
"182 -5 OFFCURVE",
"193 20 CURVE",
"176 26 OFFCURVE",
"154 31 OFFCURVE",
"133 31 CURVE SMOOTH",
"70 31 OFFCURVE",
"6 5 OFFCURVE",
"6 -73 CURVE SMOOTH",
"6 -170 OFFCURVE",
"114 -200 OFFCURVE",
"216 -200 CURVE SMOOTH",
"451 -200 OFFCURVE",
"546 -75 OFFCURVE",
"590 156 CURVE SMOOTH",
"685 660 LINE"
);
}
);
width = 684;
},
{
anchors = (
{
name = top;
position = "{444, 660}";
}
);
layerId = "C4C1D9D9-3F21-4BC7-A2AB-A5431E2D31D1";
paths = (
{
closed = 1;
nodes = (
"508 660 LINE",
"443 324 LINE SMOOTH",
"427 240 OFFCURVE",
"406 168 OFFCURVE",
"354 168 CURVE SMOOTH",
"320 168 OFFCURVE",
"310 200 OFFCURVE",
"310 239 CURVE SMOOTH",
"310 270 OFFCURVE",
"316 305 OFFCURVE",
"322 333 CURVE SMOOTH",
"383 660 LINE",
"111 660 LINE",
"50 347 LINE SMOOTH",
"43 312 OFFCURVE",
"37 259 OFFCURVE",
"37 232 CURVE SMOOTH",
"38 113 OFFCURVE",
"128 68 OFFCURVE",
"247 68 CURVE SMOOTH",
"314 68 OFFCURVE",
"381 90 OFFCURVE",
"414 134 CURVE",
"398 23 OFFCURVE",
"356 -132 OFFCURVE",
"251 -132 CURVE SMOOTH",
"205 -132 OFFCURVE",
"186 -100 OFFCURVE",
"186 -45 CURVE SMOOTH",
"186 -20 OFFCURVE",
"189 -1 OFFCURVE",
"201 26 CURVE",
"182 31 OFFCURVE",
"158 36 OFFCURVE",
"135 36 CURVE SMOOTH",
"63 36 OFFCURVE",
"-9 13 OFFCURVE",
"-9 -69 CURVE SMOOTH",
"-9 -175 OFFCURVE",
"121 -200 OFFCURVE",
"231 -200 CURVE SMOOTH",
"477 -200 OFFCURVE",
"594 -95 OFFCURVE",
"641 152 CURVE SMOOTH",
"737 660 LINE"
);
}
);
width = 693;
}
);
rightMetricsKey = J;
},
{
glyphname = a;
layers = (
{
anchors = (
{
name = ogonek;
position = "{442, 10}";
},
{
name = top;
position = "{353, 510}";
}
);
layerId = UUID0;
paths = (
{
closed = 1;
nodes = (
"405 509 LINE",
"368 523 OFFCURVE",
"341 530 OFFCURVE",
"304 530 CURVE SMOOTH",
"110 530 OFFCURVE",
"27 336 OFFCURVE",
"27 167 CURVE SMOOTH",
"27 49 OFFCURVE",
"67 -20 OFFCURVE",
"173 -20 CURVE SMOOTH",
"224 -20 OFFCURVE",
"280 -4 OFFCURVE",
"309 37 CURVE",
"313 0 OFFCURVE",
"339 -20 OFFCURVE",
"376 -20 CURVE SMOOTH",
"409 -20 OFFCURVE",
"440 -5 OFFCURVE",
"449 27 CURVE",
"429 29 OFFCURVE",
"419 41 OFFCURVE",
"419 61 CURVE SMOOTH",
"419 73 OFFCURVE",
"422 91 OFFCURVE",
"424 103 CURVE SMOOTH",
"504 522 LINE"
);
},
{
closed = 1;
nodes = (
"334 201 LINE SMOOTH",
"321 130 OFFCURVE",
"288 40 OFFCURVE",
"213 40 CURVE SMOOTH",
"159 40 OFFCURVE",
"141 86 OFFCURVE",
"141 145 CURVE SMOOTH",
"141 191 OFFCURVE",
"152 261 OFFCURVE",
"164 310 CURVE SMOOTH",
"182 385 OFFCURVE",
"214 470 OFFCURVE",
"292 470 CURVE SMOOTH",
"319 470 OFFCURVE",
"353 460 OFFCURVE",
"378 439 CURVE"
);
}
);
width = 528;
},
{
anchors = (
{
name = ogonek;
position = "{525, 10}";
},
{
name = top;
position = "{365, 510}";
}
);
layerId = "8C7E3CD8-8122-4AAB-8613-74D9DEE9A67D";
paths = (
{
closed = 1;
nodes = (
"427 511 LINE",
"398 525 OFFCURVE",
"362 530 OFFCURVE",
"326 530 CURVE SMOOTH",
"126 530 OFFCURVE",
"13 378 OFFCURVE",
"13 177 CURVE SMOOTH",
"13 53 OFFCURVE",
"56 -20 OFFCURVE",
"173 -20 CURVE SMOOTH",
"238 -20 OFFCURVE",
"294 2 OFFCURVE",
"327 37 CURVE",
"341 -2 OFFCURVE",
"384 -20 OFFCURVE",
"428 -20 CURVE SMOOTH",
"478 -20 OFFCURVE",
"539 3 OFFCURVE",
"555 54 CURVE",
"522 57 OFFCURVE",
"508 81 OFFCURVE",
"508 108 CURVE SMOOTH",
"508 121 OFFCURVE",
"511 139 OFFCURVE",
"513 150 CURVE SMOOTH",
"585 530 LINE"
);
},
{
closed = 1;
nodes = (
"324 169 LINE SMOOTH",
"315 116 OFFCURVE",
"291 44 OFFCURVE",
"238 44 CURVE SMOOTH",
"205 44 OFFCURVE",
"201 73 OFFCURVE",
"201 107 CURVE SMOOTH",
"201 145 OFFCURVE",
"206 193 OFFCURVE",
"213 241 CURVE SMOOTH",
"239 417 OFFCURVE",
"269 470 OFFCURVE",
"321 470 CURVE SMOOTH",
"337 470 OFFCURVE",
"359 465 OFFCURVE",
"374 452 CURVE"
);
}
);
width = 600;
},
{
anchors = (
{
name = ogonek;
position = "{564, 10}";
},
{
name = top;
position = "{358, 510}";
}
);
layerId = "C4C1D9D9-3F21-4BC7-A2AB-A5431E2D31D1";
paths = (
{
closed = 1;
nodes = (
"438 512 LINE",
"397 526 OFFCURVE",
"373 530 OFFCURVE",
"337 530 CURVE SMOOTH",
"134 530 OFFCURVE",
"7 399 OFFCURVE",
"7 182 CURVE SMOOTH",
"7 55 OFFCURVE",
"51 -20 OFFCURVE",
"173 -20 CURVE SMOOTH",
"245 -20 OFFCURVE",
"301 5 OFFCURVE",
"336 37 CURVE",
"355 -3 OFFCURVE",
"406 -20 OFFCURVE",
"454 -20 CURVE SMOOTH",
"512 -20 OFFCURVE",
"588 7 OFFCURVE",
"607 67 CURVE",
"568 71 OFFCURVE",
"552 101 OFFCURVE",
"552 131 CURVE SMOOTH",
"552 144 OFFCURVE",
"555 162 OFFCURVE",
"557 173 CURVE SMOOTH",
"625 534 LINE"
);
},
{
closed = 1;
nodes = (
"320 153 LINE SMOOTH",
"313 109 OFFCURVE",
"299 46 OFFCURVE",
"258 46 CURVE SMOOTH",
"233 46 OFFCURVE",
"228 79 OFFCURVE",
"228 119 CURVE SMOOTH",
"228 149 OFFCURVE",
"231 183 OFFCURVE",
"234 207 CURVE SMOOTH",
"263 434 OFFCURVE",
"296 470 OFFCURVE",
"336 470 CURVE SMOOTH",
"346 470 OFFCURVE",
"362 467 OFFCURVE",
"372 458 CURVE"
);
}
);
width = 628;
}
);
leftKerningGroup = o;
leftMetricsKey = o;
rightMetricsKey = i;
unicode = 0061;
},
{
glyphname = aringacute;
layers = (
{
components = (
{
name = a;
},
{
name = ring;
transform = "{1, 0, 0, 1, 181, -10}";
}
);
layerId = UUID0;
paths = (
{
closed = 1;
nodes = (
"416 783 LINE SMOOTH",
"476 786 OFFCURVE",
"549 796 OFFCURVE",
"549 864 CURVE SMOOTH",
"549 885 OFFCURVE",
"542 899 OFFCURVE",
"527 909 CURVE",
"293 820 LINE",
"301 777 LINE"
);
}
);
width = 528;
},
{
components = (
{
name = a;
},
{
name = ring;
transform = "{1, 0, 0, 1, 193, -13}";
}
);
layerId = "8C7E3CD8-8122-4AAB-8613-74D9DEE9A67D";
paths = (
{
closed = 1;
nodes = (
"435 772 LINE SMOOTH",
"508 774 OFFCURVE",
"577 796 OFFCURVE",
"577 865 CURVE SMOOTH",
"577 891 OFFCURVE",
"567 906 OFFCURVE",
"549 919 CURVE",
"304 817 LINE",
"316 768 LINE"
);
}
);
width = 600;
},
{
components = (
{
name = a;
},
{
name = ring;
transform = "{1, 0, 0, 1, 175, -20}";
}
);
layerId = "C4C1D9D9-3F21-4BC7-A2AB-A5431E2D31D1";
paths = (
{
closed = 1;
nodes = (
"428 766 LINE SMOOTH",
"508 767 OFFCURVE",
"575 795 OFFCURVE",
"575 864 CURVE SMOOTH",
"575 893 OFFCURVE",
"563 908 OFFCURVE",
"544 923 CURVE",
"294 814 LINE",
"308 763 LINE"
);
}
);
width = 628;
}
);
leftKerningGroup = o;
leftMetricsKey = a;
rightMetricsKey = a;
unicode = 01FB;
},
{
glyphname = ae;
layers = (
{
anchors = (
{
name = top;
position = "{448, 510}";
}
);
layerId = UUID0;
paths = (
{
closed = 1;
nodes = (
"546 530 OFFCURVE",
"498 513 OFFCURVE",
"458 484 CURVE",
"407 513 OFFCURVE",
"353 530 OFFCURVE",
"298 530 CURVE SMOOTH",
"109 530 OFFCURVE",
"26 332 OFFCURVE",
"26 164 CURVE SMOOTH",
"26 48 OFFCURVE",
"66 -20 OFFCURVE",
"175 -20 CURVE SMOOTH",
"247 -20 OFFCURVE",
"300 10 OFFCURVE",
"346 58 CURVE",
"373 6 OFFCURVE",
"431 -20 OFFCURVE",
"501 -20 CURVE SMOOTH",
"610 -20 OFFCURVE",
"685 43 OFFCURVE",
"685 102 CURVE SMOOTH",
"685 119 OFFCURVE",
"679 138 OFFCURVE",
"661 142 CURVE",
"636 92 OFFCURVE",
"589 63 OFFCURVE",
"531 63 CURVE SMOOTH",
"460 63 OFFCURVE",
"438 106 OFFCURVE",
"438 179 CURVE SMOOTH",
"438 195 OFFCURVE",
"439 217 OFFCURVE",
"441 239 CURVE",
"454 238 OFFCURVE",
"478 237 OFFCURVE",
"496 237 CURVE SMOOTH",
"634 237 OFFCURVE",
"748 299 OFFCURVE",
"748 417 CURVE SMOOTH",
"748 502 OFFCURVE",
"688 530 OFFCURVE",
"608 530 CURVE SMOOTH"
);
},
{
closed = 1;
nodes = (
"621 473 OFFCURVE",
"640 454 OFFCURVE",
"640 415 CURVE SMOOTH",
"640 325 OFFCURVE",
"539 288 OFFCURVE",
"448 288 CURVE",
"463 366 OFFCURVE",
"511 473 OFFCURVE",
"588 473 CURVE SMOOTH"
);
},
{
closed = 1;
nodes = (
"333 201 LINE SMOOTH",
"320 130 OFFCURVE",
"287 40 OFFCURVE",
"212 40 CURVE SMOOTH",
"158 40 OFFCURVE",
"140 86 OFFCURVE",
"140 145 CURVE SMOOTH",
"140 191 OFFCURVE",
"151 261 OFFCURVE",
"163 310 CURVE SMOOTH",
"181 385 OFFCURVE",
"213 470 OFFCURVE",
"291 470 CURVE SMOOTH",
"318 470 OFFCURVE",
"352 460 OFFCURVE",
"377 439 CURVE"
);
}
);
width = 734;
},
{
anchors = (
{
name = top;
position = "{477, 510}";
}
);
layerId = "8C7E3CD8-8122-4AAB-8613-74D9DEE9A67D";
paths = (
{
closed = 1;
nodes = (
"586 530 OFFCURVE",
"533 519 OFFCURVE",
"471 488 CURVE",
"426 517 OFFCURVE",
"371 530 OFFCURVE",
"315 530 CURVE SMOOTH",
"121 530 OFFCURVE",
"13 374 OFFCURVE",
"13 175 CURVE SMOOTH",
"13 50 OFFCURVE",
"56 -20 OFFCURVE",
"179 -20 CURVE SMOOTH",
"249 -20 OFFCURVE",
"310 3 OFFCURVE",
"344 63 CURVE",
"392 -8 OFFCURVE",
"476 -20 OFFCURVE",
"535 -20 CURVE SMOOTH",
"668 -20 OFFCURVE",
"764 40 OFFCURVE",
"764 121 CURVE SMOOTH",
"764 143 OFFCURVE",
"757 158 OFFCURVE",
"739 169 CURVE",
"713 128 OFFCURVE",
"653 106 OFFCURVE",
"603 106 CURVE SMOOTH",
"543 106 OFFCURVE",
"521 137 OFFCURVE",
"521 193 CURVE SMOOTH",
"521 205 OFFCURVE",
"522 221 OFFCURVE",
"524 235 CURVE",
"548 235 OFFCURVE",
"571 236 OFFCURVE",
"593 238 CURVE SMOOTH",
"749 252 OFFCURVE",
"832 305 OFFCURVE",
"832 408 CURVE SMOOTH",
"832 507 OFFCURVE",
"754 530 OFFCURVE",
"655 530 CURVE SMOOTH"
);
},
{
closed = 1;
nodes = (
"670 479 OFFCURVE",
"678 457 OFFCURVE",
"678 425 CURVE SMOOTH",
"678 341 OFFCURVE",
"624 278 OFFCURVE",
"531 278 CURVE",
"555 421 OFFCURVE",
"597 479 OFFCURVE",
"642 479 CURVE SMOOTH"
);
},
{
closed = 1;
nodes = (
"324 169 LINE SMOOTH",
"315 116 OFFCURVE",
"291 44 OFFCURVE",
"238 44 CURVE SMOOTH",
"205 44 OFFCURVE",
"201 73 OFFCURVE",
"201 107 CURVE SMOOTH",
"201 145 OFFCURVE",
"206 193 OFFCURVE",
"213 241 CURVE SMOOTH",
"239 417 OFFCURVE",
"269 470 OFFCURVE",
"321 470 CURVE SMOOTH",
"337 470 OFFCURVE",
"359 465 OFFCURVE",
"374 452 CURVE"
);
}
);
width = 821;
},
{
anchors = (
{
name = top;
position = "{493, 510}";
}
);
layerId = "C4C1D9D9-3F21-4BC7-A2AB-A5431E2D31D1";
paths = (
{
closed = 1;
nodes = (
"606 530 OFFCURVE",
"550 522 OFFCURVE",
"477 490 CURVE",
"435 519 OFFCURVE",
"380 530 OFFCURVE",
"323 530 CURVE SMOOTH",
"127 530 OFFCURVE",
"7 395 OFFCURVE",
"7 180 CURVE SMOOTH",
"7 51 OFFCURVE",
"51 -20 OFFCURVE",
"181 -20 CURVE SMOOTH",
"250 -20 OFFCURVE",
"315 0 OFFCURVE",
"343 65 CURVE",
"401 -15 OFFCURVE",
"498 -20 OFFCURVE",
"552 -20 CURVE SMOOTH",
"696 -20 OFFCURVE",
"803 39 OFFCURVE",
"803 130 CURVE SMOOTH",
"803 155 OFFCURVE",
"795 168 OFFCURVE",
"777 182 CURVE",
"751 146 OFFCURVE",
"684 127 OFFCURVE",
"638 127 CURVE SMOOTH",
"584 127 OFFCURVE",
"562 152 OFFCURVE",
"562 200 CURVE SMOOTH",
"562 210 OFFCURVE",
"563 223 OFFCURVE",
"565 233 CURVE",
"594 234 OFFCURVE",
"616 236 OFFCURVE",
"640 238 CURVE SMOOTH",
"805 259 OFFCURVE",
"873 308 OFFCURVE",
"873 404 CURVE SMOOTH",
"873 509 OFFCURVE",
"786 530 OFFCURVE",
"678 530 CURVE SMOOTH"
);
},
{
closed = 1;
nodes = (
"694 482 OFFCURVE",
"697 458 OFFCURVE",
"697 430 CURVE SMOOTH",
"697 349 OFFCURVE",
"665 273 OFFCURVE",
"572 273 CURVE",
"600 448 OFFCURVE",
"639 482 OFFCURVE",
"668 482 CURVE SMOOTH"
);
},
{
closed = 1;
nodes = (
"320 153 LINE SMOOTH",
"313 109 OFFCURVE",
"299 46 OFFCURVE",
"258 46 CURVE SMOOTH",
"233 46 OFFCURVE",
"228 79 OFFCURVE",
"228 119 CURVE SMOOTH",
"228 149 OFFCURVE",
"231 183 OFFCURVE",
"234 207 CURVE SMOOTH",
"263 434 OFFCURVE",
"296 470 OFFCURVE",
"336 470 CURVE SMOOTH",
"346 470 OFFCURVE",
"362 467 OFFCURVE",
"372 458 CURVE"
);
}
);
width = 857;
}
);
leftKerningGroup = o;
leftMetricsKey = o;
rightKerningGroup = e;
rightMetricsKey = e;
unicode = 00E6;
},
{
glyphname = b;
layers = (
{
layerId = UUID0;
paths = (
{
closed = 1;
nodes = (
"142 700 LINE",
"12 30 LINE",
"60 -2 OFFCURVE",
"150 -20 OFFCURVE",
"208 -20 CURVE SMOOTH",
"398 -20 OFFCURVE",
"483 175 OFFCURVE",
"483 349 CURVE SMOOTH",
"483 456 OFFCURVE",
"451 530 OFFCURVE",
"350 530 CURVE SMOOTH",
"284 530 OFFCURVE",
"228 499 OFFCURVE",
"192 443 CURVE",
"206 479 OFFCURVE",
"222 545 OFFCURVE",
"232 599 CURVE SMOOTH",
"254 712 LINE"
);
},
{
closed = 1;
nodes = (
"169 278 LINE SMOOTH",
"184 357 OFFCURVE",
"224 453 OFFCURVE",
"304 453 CURVE SMOOTH",
"352 453 OFFCURVE",
"369 419 OFFCURVE",
"369 364 CURVE SMOOTH",
"369 320 OFFCURVE",
"358 249 OFFCURVE",
"346 200 CURVE SMOOTH",
"327 120 OFFCURVE",
"294 40 OFFCURVE",
"217 40 CURVE SMOOTH",
"190 40 OFFCURVE",
"156 50 OFFCURVE",
"130 70 CURVE"
);
}
);
width = 509;
},
{
layerId = "8C7E3CD8-8122-4AAB-8613-74D9DEE9A67D";
paths = (
{
closed = 1;
nodes = (
"126 700 LINE",
"2 48 LINE",
"57 -3 OFFCURVE",
"173 -20 OFFCURVE",
"243 -20 CURVE SMOOTH",
"455 -20 OFFCURVE",
"565 137 OFFCURVE",
"565 341 CURVE SMOOTH",
"565 459 OFFCURVE",
"528 530 OFFCURVE",
"417 530 CURVE SMOOTH",
"358 530 OFFCURVE",
"303 510 OFFCURVE",
"267 474 CURVE",
"285 514 OFFCURVE",
"298 571 OFFCURVE",
"304 603 CURVE SMOOTH",
"327 720 LINE"
);
},
{
closed = 1;
nodes = (
"246 310 LINE SMOOTH",
"256 364 OFFCURVE",
"277 460 OFFCURVE",
"338 460 CURVE SMOOTH",
"371 460 OFFCURVE",
"375 431 OFFCURVE",
"375 397 CURVE SMOOTH",
"375 355 OFFCURVE",
"369 305 OFFCURVE",
"363 264 CURVE SMOOTH",
"336 83 OFFCURVE",
"301 40 OFFCURVE",
"253 40 CURVE SMOOTH",
"236 40 OFFCURVE",
"214 45 OFFCURVE",
"199 58 CURVE"
);
}
);
width = 578;
},
{
background = {
paths = (
{
closed = 1;
nodes = (
"279 326 LINE SMOOTH",
"287 367 OFFCURVE",
"299 463 OFFCURVE",
"350 463 CURVE SMOOTH",
"376 463 OFFCURVE",
"374 437 OFFCURVE",
"374 413 CURVE SMOOTH",
"374 372 OFFCURVE",
"370 332 OFFCURVE",
"367 295 CURVE SMOOTH",
"336 65 OFFCURVE",
"300 40 OFFCURVE",
"266 40 CURVE SMOOTH",
"254 40 OFFCURVE",
"238 43 OFFCURVE",
"228 52 CURVE"
);
}
);
};
layerId = "C4C1D9D9-3F21-4BC7-A2AB-A5431E2D31D1";
paths = (
{
closed = 1;
nodes = (
"115 700 LINE",
"-6 57 LINE",
"52 -3 OFFCURVE",
"181 -20 OFFCURVE",
"257 -20 CURVE SMOOTH",
"480 -20 OFFCURVE",
"602 118 OFFCURVE",
"602 337 CURVE SMOOTH",
"602 460 OFFCURVE",
"562 530 OFFCURVE",
"446 530 CURVE SMOOTH",
"391 530 OFFCURVE",
"336 515 OFFCURVE",
"300 489 CURVE",
"320 531 OFFCURVE",
"332 584 OFFCURVE",
"336 605 CURVE SMOOTH",
"359 724 LINE"
);
},
{
closed = 1;
nodes = (
"287 357 LINE SMOOTH",
"295 401 OFFCURVE",
"310 465 OFFCURVE",
"351 465 CURVE SMOOTH",
"376 464 OFFCURVE",
"380 431 OFFCURVE",
"380 391 CURVE SMOOTH",
"379 361 OFFCURVE",
"376 328 OFFCURVE",
"372 302 CURVE SMOOTH",
"339 77 OFFCURVE",
"307 40 OFFCURVE",
"266 40 CURVE SMOOTH",
"256 40 OFFCURVE",
"240 43 OFFCURVE",
"229 52 CURVE"
);
}
);
width = 608;
}
);
leftMetricsKey = l;
rightKerningGroup = o;
rightMetricsKey = o;
unicode = 0062;
},
{
glyphname = c;
layers = (
{
anchors = (
{
name = bottom;
position = "{221, 0}";
},
{
name = top;
position = "{307, 510}";
}
);
layerId = UUID0;
paths = (
{
closed = 1;
nodes = (
"123 530 OFFCURVE",
"28 349 OFFCURVE",
"28 178 CURVE SMOOTH",
"28 46 OFFCURVE",
"85 -20 OFFCURVE",
"201 -20 CURVE SMOOTH",
"310 -20 OFFCURVE",
"389 38 OFFCURVE",
"389 108 CURVE SMOOTH",
"389 133 OFFCURVE",
"379 152 OFFCURVE",
"355 159 CURVE",
"336 103 OFFCURVE",
"293 63 OFFCURVE",
"233 63 CURVE SMOOTH",
"164 63 OFFCURVE",
"142 116 OFFCURVE",
"142 182 CURVE SMOOTH",
"142 282 OFFCURVE",
"192 471 OFFCURVE",
"291 471 CURVE SMOOTH",
"323 471 OFFCURVE",
"339 452 OFFCURVE",
"339 420 CURVE SMOOTH",
"339 401 OFFCURVE",
"333 372 OFFCURVE",
"325 352 CURVE",
"335 341 OFFCURVE",
"354 338 OFFCURVE",
"367 338 CURVE SMOOTH",
"408 338 OFFCURVE",
"449 366 OFFCURVE",
"449 425 CURVE SMOOTH",
"449 495 OFFCURVE",
"391 530 OFFCURVE",
"309 530 CURVE SMOOTH"
);
}
);
width = 440;
},
{
anchors = (
{
name = bottom;
position = "{240, 0}";
},
{
name = top;
position = "{338, 510}";
}
);
layerId = "8C7E3CD8-8122-4AAB-8613-74D9DEE9A67D";
paths = (
{
closed = 1;
nodes = (
"143 530 OFFCURVE",
"16 394 OFFCURVE",
"16 201 CURVE SMOOTH",
"16 50 OFFCURVE",
"94 -20 OFFCURVE",
"224 -20 CURVE SMOOTH",
"336 -20 OFFCURVE",
"448 32 OFFCURVE",
"448 125 CURVE SMOOTH",
"448 155 OFFCURVE",
"437 172 OFFCURVE",
"410 186 CURVE",
"389 136 OFFCURVE",
"335 106 OFFCURVE",
"283 106 CURVE SMOOTH",
"225 106 OFFCURVE",
"206 142 OFFCURVE",
"206 197 CURVE SMOOTH",
"206 282 OFFCURVE",
"252 471 OFFCURVE",
"332 471 CURVE SMOOTH",
"356 471 OFFCURVE",
"361 453 OFFCURVE",
"361 430 CURVE SMOOTH",
"361 401 OFFCURVE",
"353 357 OFFCURVE",
"343 330 CURVE",
"355 323 OFFCURVE",
"376 322 OFFCURVE",
"388 322 CURVE SMOOTH",
"452 322 OFFCURVE",
"508 351 OFFCURVE",
"508 422 CURVE SMOOTH",
"508 502 OFFCURVE",
"436 530 OFFCURVE",
"345 530 CURVE SMOOTH"
);
}
);
width = 480;
},
{
anchors = (
{
name = bottom;
position = "{251, 0}";
},
{
name = top;
position = "{352, 510}";
}
);
layerId = "C4C1D9D9-3F21-4BC7-A2AB-A5431E2D31D1";
paths = (
{
closed = 1;
nodes = (
"153 530 OFFCURVE",
"11 416 OFFCURVE",
"11 212 CURVE SMOOTH",
"11 52 OFFCURVE",
"99 -20 OFFCURVE",
"236 -20 CURVE SMOOTH",
"349 -20 OFFCURVE",
"477 29 OFFCURVE",
"477 133 CURVE SMOOTH",
"477 166 OFFCURVE",
"466 182 OFFCURVE",
"437 199 CURVE",
"415 152 OFFCURVE",
"356 127 OFFCURVE",
"308 127 CURVE SMOOTH",
"255 127 OFFCURVE",
"238 155 OFFCURVE",
"238 204 CURVE SMOOTH",
"238 282 OFFCURVE",
"282 471 OFFCURVE",
"347 471 CURVE SMOOTH",
"367 471 OFFCURVE",
"372 453 OFFCURVE",
"372 429 CURVE SMOOTH",
"372 394 OFFCURVE",
"361 345 OFFCURVE",
"352 319 CURVE",
"365 314 OFFCURVE",
"387 314 OFFCURVE",
"399 314 CURVE SMOOTH",
"474 314 OFFCURVE",
"537 344 OFFCURVE",
"537 421 CURVE SMOOTH",
"537 505 OFFCURVE",
"458 530 OFFCURVE",
"363 530 CURVE SMOOTH"
);
}
);
width = 502;
}
);
leftKerningGroup = o;
leftMetricsKey = o;
unicode = 0063;
},
{
glyphname = d;
layers = (
{
anchors = (
{
name = bottom;
position = "{221, 0}";
},
{
name = caron;
position = "{583, 508}";
},
{
name = center;
position = "{263, 255}";
}
);
layerId = UUID0;
paths = (
{
closed = 1;
nodes = (
"430 700 LINE",
"393 513 LINE",
"362 524 OFFCURVE",
"337 530 OFFCURVE",
"303 530 CURVE SMOOTH",
"110 530 OFFCURVE",
"27 335 OFFCURVE",
"27 166 CURVE SMOOTH",
"27 49 OFFCURVE",
"67 -20 OFFCURVE",
"173 -20 CURVE SMOOTH",
"224 -20 OFFCURVE",
"280 -4 OFFCURVE",
"309 37 CURVE",
"313 0 OFFCURVE",
"339 -20 OFFCURVE",
"376 -20 CURVE SMOOTH",
"409 -20 OFFCURVE",
"440 -5 OFFCURVE",
"449 27 CURVE",
"429 29 OFFCURVE",
"419 41 OFFCURVE",
"419 61 CURVE SMOOTH",
"419 73 OFFCURVE",
"422 91 OFFCURVE",
"424 103 CURVE SMOOTH",
"541 712 LINE"
);
},
{
closed = 1;
nodes = (
"334 201 LINE SMOOTH",
"321 130 OFFCURVE",
"288 40 OFFCURVE",
"213 40 CURVE SMOOTH",
"159 40 OFFCURVE",
"141 86 OFFCURVE",
"141 145 CURVE SMOOTH",
"141 191 OFFCURVE",
"152 261 OFFCURVE",
"164 310 CURVE SMOOTH",
"182 385 OFFCURVE",
"214 470 OFFCURVE",
"292 470 CURVE SMOOTH",
"319 470 OFFCURVE",
"353 460 OFFCURVE",
"378 439 CURVE"
);
}
);
width = 528;
},
{
anchors = (
{
name = bottom;
position = "{266, 0}";
},
{
name = caron;
position = "{647, 508}";
},
{
name = center;
position = "{296, 255}";
}
);
layerId = "8C7E3CD8-8122-4AAB-8613-74D9DEE9A67D";
paths = (
{
closed = 1;
nodes = (
"422 700 LINE",
"390 523 LINE",
"371 528 OFFCURVE",
"349 530 OFFCURVE",
"326 530 CURVE SMOOTH",
"125 530 OFFCURVE",
"13 377 OFFCURVE",
"13 177 CURVE SMOOTH",
"13 53 OFFCURVE",
"56 -20 OFFCURVE",
"173 -20 CURVE SMOOTH",
"238 -20 OFFCURVE",
"294 2 OFFCURVE",
"327 37 CURVE",
"341 -2 OFFCURVE",
"384 -20 OFFCURVE",
"428 -20 CURVE SMOOTH",
"478 -20 OFFCURVE",
"539 3 OFFCURVE",
"555 54 CURVE",
"522 57 OFFCURVE",
"508 81 OFFCURVE",
"508 108 CURVE SMOOTH",
"508 121 OFFCURVE",
"511 139 OFFCURVE",
"513 150 CURVE SMOOTH",
"621 720 LINE"
);
},
{
closed = 1;
nodes = (
"324 169 LINE SMOOTH",
"315 116 OFFCURVE",
"291 44 OFFCURVE",
"238 44 CURVE SMOOTH",
"205 44 OFFCURVE",
"201 73 OFFCURVE",
"201 107 CURVE SMOOTH",
"201 145 OFFCURVE",
"206 193 OFFCURVE",
"213 241 CURVE SMOOTH",
"239 417 OFFCURVE",
"269 470 OFFCURVE",
"321 470 CURVE SMOOTH",
"337 470 OFFCURVE",
"359 465 OFFCURVE",
"374 452 CURVE"
);
}
);
width = 600;
},
{
anchors = (
{
name = bottom;
position = "{301, 0}";
},
{
name = caron;
position = "{676, 508}";
},
{
name = center;
position = "{314, 255}";
}
);
layerId = "C4C1D9D9-3F21-4BC7-A2AB-A5431E2D31D1";
paths = (
{
closed = 1;
nodes = (
"419 700 LINE",
"389 528 LINE",
"376 530 OFFCURVE",
"355 530 OFFCURVE",
"338 530 CURVE SMOOTH",
"133 530 OFFCURVE",
"7 398 OFFCURVE",
"7 182 CURVE SMOOTH",
"7 55 OFFCURVE",
"51 -20 OFFCURVE",
"173 -20 CURVE SMOOTH",
"245 -20 OFFCURVE",
"301 5 OFFCURVE",
"336 37 CURVE",
"355 -3 OFFCURVE",
"406 -20 OFFCURVE",
"454 -20 CURVE SMOOTH",
"512 -20 OFFCURVE",
"588 7 OFFCURVE",
"607 67 CURVE",
"568 71 OFFCURVE",
"552 101 OFFCURVE",
"552 131 CURVE SMOOTH",
"552 144 OFFCURVE",
"555 162 OFFCURVE",
"557 173 CURVE SMOOTH",
"661 724 LINE"
);
},
{
closed = 1;
nodes = (
"320 153 LINE SMOOTH",
"313 109 OFFCURVE",
"299 46 OFFCURVE",
"258 46 CURVE SMOOTH",
"233 46 OFFCURVE",
"228 79 OFFCURVE",
"228 119 CURVE SMOOTH",
"228 149 OFFCURVE",
"231 183 OFFCURVE",
"234 207 CURVE SMOOTH",
"263 434 OFFCURVE",
"296 470 OFFCURVE",
"336 470 CURVE SMOOTH",
"346 470 OFFCURVE",
"362 467 OFFCURVE",
"372 458 CURVE"
);
}
);
width = 628;
}
);
leftKerningGroup = o;
leftMetricsKey = o;
rightMetricsKey = i;
unicode = 0064;
},
{
glyphname = eth;
layers = (
{
layerId = UUID0;
paths = (
{
closed = 1;
nodes = (
"283 608 LINE SMOOTH",
"264 601 OFFCURVE",
"255 589 OFFCURVE",
"255 573 CURVE SMOOTH",
"255 560 OFFCURVE",
"261 551 OFFCURVE",
"268 544 CURVE",
"414 595 LINE",
"361 604 LINE",
"370 582 OFFCURVE",
"374 549 OFFCURVE",
"375 512 CURVE",
"352 519 OFFCURVE",
"331 523 OFFCURVE",
"303 523 CURVE SMOOTH",
"110 523 OFFCURVE",
"27 334 OFFCURVE",
"27 168 CURVE SMOOTH",
"27 39 OFFCURVE",
"77 -20 OFFCURVE",
"183 -20 CURVE SMOOTH",
"410 -20 OFFCURVE",
"498 248 OFFCURVE",
"498 462 CURVE SMOOTH",
"498 508 OFFCURVE",
"494 570 OFFCURVE",
"478 617 CURVE",
"502 625 LINE SMOOTH",
"531 635 OFFCURVE",
"545 648 OFFCURVE",
"545 669 CURVE SMOOTH",
"545 678 OFFCURVE",
"542 691 OFFCURVE",
"534 698 CURVE",
"451 668 LINE",
"428 699 OFFCURVE",
"384 720 OFFCURVE",
"338 720 CURVE SMOOTH",
"291 720 OFFCURVE",
"242 698 OFFCURVE",
"242 656 CURVE SMOOTH",
"242 650 OFFCURVE",
"243 641 OFFCURVE",
"248 633 CURVE",
"262 642 OFFCURVE",
"285 648 OFFCURVE",
"303 648 CURVE SMOOTH",
"321 648 OFFCURVE",
"336 642 OFFCURVE",
"346 631 CURVE"
);
},
{
closed = 1;
nodes = (
"156 40 OFFCURVE",
"141 88 OFFCURVE",
"141 144 CURVE SMOOTH",
"141 192 OFFCURVE",
"152 261 OFFCURVE",
"164 310 CURVE SMOOTH",
"181 380 OFFCURVE",
"213 463 OFFCURVE",
"291 463 CURVE SMOOTH",
"318 463 OFFCURVE",
"351 453 OFFCURVE",
"376 433 CURVE",
"374 386 OFFCURVE",
"363 312 OFFCURVE",
"350 262 CURVE SMOOTH",
"323 158 OFFCURVE",
"291 40 OFFCURVE",
"209 40 CURVE SMOOTH"
);
}
);
width = 513;
},
{
layerId = "8C7E3CD8-8122-4AAB-8613-74D9DEE9A67D";
paths = (
{
closed = 1;
nodes = (
"311 615 LINE SMOOTH",
"288 607 OFFCURVE",
"278 592 OFFCURVE",
"278 574 CURVE SMOOTH",
"278 559 OFFCURVE",
"285 548 OFFCURVE",
"293 540 CURVE",
"446 595 LINE",
"390 601 LINE",
"400 571 OFFCURVE",
"398 540 OFFCURVE",
"392 508 CURVE",
"377 515 OFFCURVE",
"345 519 OFFCURVE",
"315 519 CURVE SMOOTH",
"138 519 OFFCURVE",
"14 375 OFFCURVE",
"14 189 CURVE SMOOTH",
"14 48 OFFCURVE",
"86 -20 OFFCURVE",
"214 -20 CURVE SMOOTH",
"485 -20 OFFCURVE",
"564 287 OFFCURVE",
"564 474 CURVE SMOOTH",
"564 534 OFFCURVE",
"556 578 OFFCURVE",
"532 625 CURVE",
"561 635 LINE SMOOTH",
"597 648 OFFCURVE",
"611 662 OFFCURVE",
"611 684 CURVE SMOOTH",
"611 696 OFFCURVE",
"607 712 OFFCURVE",
"598 720 CURVE",
"490 680 LINE",
"457 709 OFFCURVE",
"422 720 OFFCURVE",
"382 720 CURVE SMOOTH",
"323 720 OFFCURVE",
"282 697 OFFCURVE",
"282 660 CURVE SMOOTH",
"282 652 OFFCURVE",
"284 645 OFFCURVE",
"286 642 CURVE",
"290 645 OFFCURVE",
"304 651 OFFCURVE",
"321 651 CURVE SMOOTH",
"337 651 OFFCURVE",
"355 646 OFFCURVE",
"368 636 CURVE"
);
},
{
closed = 1;
nodes = (
"212 39 OFFCURVE",
"202 65 OFFCURVE",
"202 122 CURVE SMOOTH",
"202 158 OFFCURVE",
"206 219 OFFCURVE",
"223 305 CURVE SMOOTH",
"245 417 OFFCURVE",
"267 460 OFFCURVE",
"318 460 CURVE SMOOTH",
"339 460 OFFCURVE",
"366 453 OFFCURVE",
"380 441 CURVE",
"369 374 OFFCURVE",
"356 307 OFFCURVE",
"348 268 CURVE SMOOTH",
"314 105 OFFCURVE",
"279 39 OFFCURVE",
"238 39 CURVE SMOOTH"
);
}
);
width = 585;
},
{
background = {
paths = (
{
closed = 1;
nodes = (
"239 39 OFFCURVE",
"232 54 OFFCURVE",
"232 111 CURVE SMOOTH",
"232 141 OFFCURVE",
"232 198 OFFCURVE",
"252 303 CURVE SMOOTH",
"276 435 OFFCURVE",
"293 459 OFFCURVE",
"331 459 CURVE SMOOTH",
"349 459 OFFCURVE",
"373 453 OFFCURVE",
"382 445 CURVE",
"367 368 OFFCURVE",
"353 305 OFFCURVE",
"347 271 CURVE SMOOTH",
"310 79 OFFCURVE",
"273 39 OFFCURVE",
"252 39 CURVE SMOOTH"
);
}
);
};
layerId = "C4C1D9D9-3F21-4BC7-A2AB-A5431E2D31D1";
paths = (
{
closed = 1;
nodes = (
"325 618 LINE SMOOTH",
"300 610 OFFCURVE",
"289 593 OFFCURVE",
"289 574 CURVE SMOOTH",
"289 559 OFFCURVE",
"297 547 OFFCURVE",
"305 538 CURVE",
"462 595 LINE",
"404 600 LINE",
"410 583 OFFCURVE",
"406 543 OFFCURVE",
"400 506 CURVE",
"389 513 OFFCURVE",
"352 517 OFFCURVE",
"321 517 CURVE SMOOTH",
"152 517 OFFCURVE",
"8 395 OFFCURVE",
"8 199 CURVE SMOOTH",
"8 52 OFFCURVE",
"90 -20 OFFCURVE",
"229 -20 CURVE SMOOTH",
"522 -20 OFFCURVE",
"596 306 OFFCURVE",
"596 480 CURVE SMOOTH",
"596 547 OFFCURVE",
"586 582 OFFCURVE",
"558 629 CURVE",
"590 640 LINE SMOOTH",
"629 654 OFFCURVE",
"643 669 OFFCURVE",
"643 691 CURVE SMOOTH",
"643 705 OFFCURVE",
"639 722 OFFCURVE",
"629 731 CURVE",
"509 686 LINE",
"471 714 OFFCURVE",
"441 720 OFFCURVE",
"404 720 CURVE SMOOTH",
"339 720 OFFCURVE",
"302 697 OFFCURVE",
"302 662 CURVE SMOOTH",
"302 653 OFFCURVE",
"304 647 OFFCURVE",
"305 646 CURVE",
"304 646 OFFCURVE",
"313 652 OFFCURVE",
"330 652 CURVE SMOOTH",
"345 652 OFFCURVE",
"364 648 OFFCURVE",
"379 638 CURVE"
);
},
{
closed = 1;
nodes = (
"227 39 OFFCURVE",
"222 72 OFFCURVE",
"224 112 CURVE SMOOTH",
"224 142 OFFCURVE",
"229 176 OFFCURVE",
"232 200 CURVE SMOOTH",
"269 427 OFFCURVE",
"306 457 OFFCURVE",
"346 457 CURVE SMOOTH",
"356 457 OFFCURVE",
"372 454 OFFCURVE",
"382 445 CURVE",
"366 370 OFFCURVE",
"351 296 OFFCURVE",
"335 221 CURVE SMOOTH",
"315 126 OFFCURVE",
"293 39 OFFCURVE",
"252 39 CURVE SMOOTH"
);
}
);
width = 612;
}
);
leftKerningGroup = o;
unicode = 00F0;
},
{
glyphname = dcroat;
layers = (
{
layerId = UUID0;
paths = (
{
closed = 1;
nodes = (
"525 631 LINE",
"541 712 LINE",
"430 700 LINE",
"416 631 LINE",
"303 631 LINE SMOOTH",
"267 631 OFFCURVE",
"248 614 OFFCURVE",
"247 583 CURVE SMOOTH",
"247 578 OFFCURVE",
"247 567 OFFCURVE",
"249 559 CURVE",
"402 559 LINE",
"393 513 LINE",
"362 524 OFFCURVE",
"337 530 OFFCURVE",
"303 530 CURVE SMOOTH",
"110 530 OFFCURVE",
"27 335 OFFCURVE",
"27 166 CURVE SMOOTH",
"27 49 OFFCURVE",
"67 -20 OFFCURVE",
"173 -20 CURVE SMOOTH",
"224 -20 OFFCURVE",
"280 -4 OFFCURVE",
"309 37 CURVE",
"313 0 OFFCURVE",
"339 -20 OFFCURVE",
"376 -20 CURVE SMOOTH",
"409 -20 OFFCURVE",
"440 -5 OFFCURVE",
"449 27 CURVE",
"429 29 OFFCURVE",
"419 41 OFFCURVE",
"419 61 CURVE SMOOTH",
"419 73 OFFCURVE",
"422 91 OFFCURVE",
"424 103 CURVE SMOOTH",
"512 559 LINE",
"545 559 LINE SMOOTH",
"591 559 OFFCURVE",
"608 578 OFFCURVE",
"608 607 CURVE SMOOTH",
"608 614 OFFCURVE",
"607 624 OFFCURVE",
"605 631 CURVE"
);
},
{
closed = 1;
nodes = (
"334 201 LINE SMOOTH",
"321 130 OFFCURVE",
"288 40 OFFCURVE",
"213 40 CURVE SMOOTH",
"159 40 OFFCURVE",
"141 86 OFFCURVE",
"141 145 CURVE SMOOTH",
"141 191 OFFCURVE",
"152 261 OFFCURVE",
"164 310 CURVE SMOOTH",
"182 385 OFFCURVE",
"214 470 OFFCURVE",
"292 470 CURVE SMOOTH",
"319 470 OFFCURVE",
"353 460 OFFCURVE",
"378 439 CURVE"
);
}
);
width = 526;
},
{
layerId = "8C7E3CD8-8122-4AAB-8613-74D9DEE9A67D";
paths = (
{
closed = 1;
nodes = (
"613 653 LINE",
"626 720 LINE",
"427 700 LINE",
"419 653 LINE",
"363 653 LINE SMOOTH",
"324 653 OFFCURVE",
"296 627 OFFCURVE",
"295 588 CURVE SMOOTH",
"295 581 OFFCURVE",
"295 570 OFFCURVE",
"298 561 CURVE",
"402 561 LINE",
"395 523 LINE",
"376 528 OFFCURVE",
"354 530 OFFCURVE",
"331 530 CURVE SMOOTH",
"130 530 OFFCURVE",
"18 377 OFFCURVE",
"18 177 CURVE SMOOTH",
"18 53 OFFCURVE",
"61 -20 OFFCURVE",
"178 -20 CURVE SMOOTH",
"243 -20 OFFCURVE",
"299 2 OFFCURVE",
"332 37 CURVE",
"346 -2 OFFCURVE",
"389 -20 OFFCURVE",
"433 -20 CURVE SMOOTH",
"483 -20 OFFCURVE",
"544 3 OFFCURVE",
"560 54 CURVE",
"527 57 OFFCURVE",
"513 81 OFFCURVE",
"513 108 CURVE SMOOTH",
"513 121 OFFCURVE",
"516 139 OFFCURVE",
"518 150 CURVE SMOOTH",
"596 561 LINE",
"612 561 LINE SMOOTH",
"663 561 OFFCURVE",
"688 589 OFFCURVE",
"688 625 CURVE SMOOTH",
"688 635 OFFCURVE",
"686 645 OFFCURVE",
"684 653 CURVE"
);
},
{
closed = 1;
nodes = (
"329 169 LINE SMOOTH",
"320 116 OFFCURVE",
"296 44 OFFCURVE",
"243 44 CURVE SMOOTH",
"210 44 OFFCURVE",
"206 73 OFFCURVE",
"206 107 CURVE SMOOTH",
"206 145 OFFCURVE",
"211 193 OFFCURVE",
"218 241 CURVE SMOOTH",
"244 417 OFFCURVE",
"274 470 OFFCURVE",
"326 470 CURVE SMOOTH",
"342 470 OFFCURVE",
"364 465 OFFCURVE",
"379 452 CURVE"
);
}
);
width = 602;
},
{
layerId = "C4C1D9D9-3F21-4BC7-A2AB-A5431E2D31D1";
paths = (
{
closed = 1;
nodes = (
"656 664 LINE",
"668 724 LINE",
"426 700 LINE",
"420 664 LINE",
"392 664 LINE SMOOTH",
"352 664 OFFCURVE",
"319 633 OFFCURVE",
"318 590 CURVE SMOOTH",
"318 582 OFFCURVE",
"318 571 OFFCURVE",
"322 562 CURVE",
"402 562 LINE",
"396 528 LINE",
"383 530 OFFCURVE",
"362 530 OFFCURVE",
"345 530 CURVE SMOOTH",
"140 530 OFFCURVE",
"14 398 OFFCURVE",
"14 182 CURVE SMOOTH",
"14 55 OFFCURVE",
"58 -20 OFFCURVE",
"180 -20 CURVE SMOOTH",
"252 -20 OFFCURVE",
"308 5 OFFCURVE",
"343 37 CURVE",
"362 -3 OFFCURVE",
"413 -20 OFFCURVE",
"461 -20 CURVE SMOOTH",
"519 -20 OFFCURVE",
"595 7 OFFCURVE",
"614 67 CURVE",
"575 71 OFFCURVE",
"559 101 OFFCURVE",
"559 131 CURVE SMOOTH",
"559 144 OFFCURVE",
"562 162 OFFCURVE",
"564 173 CURVE SMOOTH",
"637 562 LINE",
"645 562 LINE SMOOTH",
"698 562 OFFCURVE",
"727 594 OFFCURVE",
"727 634 CURVE SMOOTH",
"727 645 OFFCURVE",
"725 655 OFFCURVE",
"723 664 CURVE"
);
},
{
closed = 1;
nodes = (
"327 153 LINE SMOOTH",
"320 109 OFFCURVE",
"306 46 OFFCURVE",
"265 46 CURVE SMOOTH",
"240 46 OFFCURVE",
"235 79 OFFCURVE",
"235 119 CURVE SMOOTH",
"235 149 OFFCURVE",
"238 183 OFFCURVE",
"241 207 CURVE SMOOTH",
"270 434 OFFCURVE",
"303 470 OFFCURVE",
"343 470 CURVE SMOOTH",
"353 470 OFFCURVE",
"369 467 OFFCURVE",
"379 458 CURVE"
);
}
);
width = 635;
}
);
leftKerningGroup = o;
unicode = 0111;
},
{
glyphname = e;
layers = (
{
anchors = (
{
name = bottom;
position = "{220, 0}";
},
{
name = ogonek;
position = "{324, 10}";
},
{
name = top;
position = "{286, 510}";
}
);
layerId = UUID0;
paths = (
{
closed = 1;
nodes = (
"120 530 OFFCURVE",
"28 347 OFFCURVE",
"28 178 CURVE SMOOTH",
"28 43 OFFCURVE",
"86 -20 OFFCURVE",
"201 -20 CURVE SMOOTH",
"316 -20 OFFCURVE",
"389 43 OFFCURVE",
"389 102 CURVE SMOOTH",
"389 119 OFFCURVE",
"383 138 OFFCURVE",
"365 142 CURVE",
"340 92 OFFCURVE",
"293 63 OFFCURVE",
"235 63 CURVE SMOOTH",
"164 63 OFFCURVE",
"142 106 OFFCURVE",
"142 179 CURVE SMOOTH",
"142 195 OFFCURVE",
"143 217 OFFCURVE",
"145 239 CURVE",
"158 238 OFFCURVE",
"182 237 OFFCURVE",
"199 237 CURVE SMOOTH",
"337 237 OFFCURVE",
"452 299 OFFCURVE",
"452 416 CURVE SMOOTH",
"452 501 OFFCURVE",
"392 530 OFFCURVE",
"315 530 CURVE SMOOTH"
);
},
{
closed = 1;
nodes = (
"325 473 OFFCURVE",
"344 454 OFFCURVE",
"344 415 CURVE SMOOTH",
"344 325 OFFCURVE",
"243 288 OFFCURVE",
"152 288 CURVE",
"167 366 OFFCURVE",
"215 473 OFFCURVE",
"292 473 CURVE SMOOTH"
);
}
);
width = 438;
},
{
anchors = (
{
name = bottom;
position = "{245, 0}";
},
{
name = ogonek;
position = "{365, 10}";
},
{
name = top;
position = "{339, 510}";
}
);
layerId = "8C7E3CD8-8122-4AAB-8613-74D9DEE9A67D";
paths = (
{
closed = 1;
nodes = (
"121 530 OFFCURVE",
"16 372 OFFCURVE",
"16 199 CURVE SMOOTH",
"16 48 OFFCURVE",
"96 -20 OFFCURVE",
"225 -20 CURVE SMOOTH",
"338 -20 OFFCURVE",
"448 33 OFFCURVE",
"448 121 CURVE SMOOTH",
"448 143 OFFCURVE",
"441 158 OFFCURVE",
"423 169 CURVE",
"397 128 OFFCURVE",
"337 106 OFFCURVE",
"287 106 CURVE SMOOTH",
"227 106 OFFCURVE",
"205 137 OFFCURVE",
"205 193 CURVE SMOOTH",
"205 205 OFFCURVE",
"206 221 OFFCURVE",
"208 235 CURVE",
"226 235 OFFCURVE",
"243 235 OFFCURVE",
"259 236 CURVE SMOOTH",
"433 245 OFFCURVE",
"516 308 OFFCURVE",
"516 408 CURVE SMOOTH",
"516 507 OFFCURVE",
"434 530 OFFCURVE",
"348 530 CURVE SMOOTH"
);
},
{
closed = 1;
nodes = (
"354 479 OFFCURVE",
"362 457 OFFCURVE",
"362 425 CURVE SMOOTH",
"362 341 OFFCURVE",
"308 278 OFFCURVE",
"215 278 CURVE",
"239 421 OFFCURVE",
"281 479 OFFCURVE",
"326 479 CURVE SMOOTH"
);
}
);
width = 504;
},
{
anchors = (
{
name = bottom;
position = "{262, 0}";
},
{
name = ogonek;
position = "{384, 10}";
},
{
name = top;
position = "{343, 510}";
}
);
layerId = "C4C1D9D9-3F21-4BC7-A2AB-A5431E2D31D1";
paths = (
{
closed = 1;
nodes = (
"121 530 OFFCURVE",
"10 384 OFFCURVE",
"10 209 CURVE SMOOTH",
"10 50 OFFCURVE",
"100 -20 OFFCURVE",
"236 -20 CURVE SMOOTH",
"348 -20 OFFCURVE",
"476 28 OFFCURVE",
"476 130 CURVE SMOOTH",
"476 155 OFFCURVE",
"469 168 OFFCURVE",
"451 182 CURVE",
"424 146 OFFCURVE",
"358 127 OFFCURVE",
"312 127 CURVE SMOOTH",
"257 127 OFFCURVE",
"235 152 OFFCURVE",
"235 200 CURVE SMOOTH",
"235 210 OFFCURVE",
"236 223 OFFCURVE",
"238 233 CURVE",
"259 234 OFFCURVE",
"272 234 OFFCURVE",
"288 236 CURVE SMOOTH",
"479 249 OFFCURVE",
"547 312 OFFCURVE",
"547 404 CURVE SMOOTH",
"547 510 OFFCURVE",
"454 530 OFFCURVE",
"364 530 CURVE SMOOTH"
);
},
{
closed = 1;
nodes = (
"363 482 OFFCURVE",
"373 459 OFFCURVE",
"373 429 CURVE SMOOTH",
"373 367 OFFCURVE",
"330 273 OFFCURVE",
"245 273 CURVE",
"274 448 OFFCURVE",
"313 482 OFFCURVE",
"342 482 CURVE SMOOTH"
);
}
);
width = 531;
}
);
leftKerningGroup = o;
leftMetricsKey = o;
rightKerningGroup = e;
unicode = 0065;
},
{
glyphname = schwa;
layers = (
{
layerId = UUID0;
paths = (
{
closed = 1;
nodes = (
"348 -20 OFFCURVE",
"440 163 OFFCURVE",
"440 332 CURVE SMOOTH",
"440 467 OFFCURVE",
"382 530 OFFCURVE",
"267 530 CURVE SMOOTH",
"152 530 OFFCURVE",
"79 467 OFFCURVE",
"79 408 CURVE SMOOTH",
"79 391 OFFCURVE",
"85 372 OFFCURVE",
"103 368 CURVE",
"128 418 OFFCURVE",
"175 447 OFFCURVE",
"233 447 CURVE SMOOTH",
"304 447 OFFCURVE",
"326 404 OFFCURVE",
"326 331 CURVE SMOOTH",
"326 315 OFFCURVE",
"325 293 OFFCURVE",
"323 271 CURVE",
"310 272 OFFCURVE",
"286 273 OFFCURVE",
"269 273 CURVE SMOOTH",
"131 273 OFFCURVE",
"16 211 OFFCURVE",
"16 94 CURVE SMOOTH",
"16 9 OFFCURVE",
"76 -20 OFFCURVE",
"153 -20 CURVE SMOOTH"
);
},
{
closed = 1;
nodes = (
"143 37 OFFCURVE",
"124 56 OFFCURVE",
"124 95 CURVE SMOOTH",
"124 185 OFFCURVE",
"225 222 OFFCURVE",
"316 222 CURVE",
"301 144 OFFCURVE",
"253 37 OFFCURVE",
"176 37 CURVE SMOOTH"
);
}
);
width = 468;
},
{
layerId = "8C7E3CD8-8122-4AAB-8613-74D9DEE9A67D";
paths = (
{
closed = 1;
nodes = (
"389 -20 OFFCURVE",
"494 138 OFFCURVE",
"494 311 CURVE SMOOTH",
"494 462 OFFCURVE",
"414 530 OFFCURVE",
"285 530 CURVE SMOOTH",
"172 530 OFFCURVE",
"62 477 OFFCURVE",
"62 389 CURVE SMOOTH",
"62 367 OFFCURVE",
"69 352 OFFCURVE",
"87 341 CURVE",
"113 382 OFFCURVE",
"173 404 OFFCURVE",
"223 404 CURVE SMOOTH",
"283 404 OFFCURVE",
"305 373 OFFCURVE",
"305 317 CURVE SMOOTH",
"305 305 OFFCURVE",
"304 289 OFFCURVE",
"302 275 CURVE",
"284 275 OFFCURVE",
"267 275 OFFCURVE",
"251 274 CURVE SMOOTH",
"77 265 OFFCURVE",
"-6 202 OFFCURVE",
"-6 102 CURVE SMOOTH",
"-6 3 OFFCURVE",
"76 -20 OFFCURVE",
"162 -20 CURVE SMOOTH"
);
},
{
closed = 1;
nodes = (
"156 31 OFFCURVE",
"148 53 OFFCURVE",
"148 85 CURVE SMOOTH",
"148 169 OFFCURVE",
"202 232 OFFCURVE",
"295 232 CURVE",
"271 89 OFFCURVE",
"229 31 OFFCURVE",
"184 31 CURVE SMOOTH"
);
}
);
width = 511;
},
{
layerId = "C4C1D9D9-3F21-4BC7-A2AB-A5431E2D31D1";
paths = (
{
closed = 1;
nodes = (
"426 -20 OFFCURVE",
"537 126 OFFCURVE",
"537 301 CURVE SMOOTH",
"537 460 OFFCURVE",
"447 530 OFFCURVE",
"311 530 CURVE SMOOTH",
"199 530 OFFCURVE",
"71 482 OFFCURVE",
"71 380 CURVE SMOOTH",
"71 355 OFFCURVE",
"78 342 OFFCURVE",
"96 328 CURVE",
"123 364 OFFCURVE",
"189 383 OFFCURVE",
"235 383 CURVE SMOOTH",
"290 383 OFFCURVE",
"312 358 OFFCURVE",
"312 310 CURVE SMOOTH",
"312 300 OFFCURVE",
"311 287 OFFCURVE",
"309 277 CURVE",
"288 276 OFFCURVE",
"275 276 OFFCURVE",
"259 274 CURVE SMOOTH",
"68 261 OFFCURVE",
"0 198 OFFCURVE",
"0 106 CURVE SMOOTH",
"0 0 OFFCURVE",
"93 -20 OFFCURVE",
"183 -20 CURVE SMOOTH"
);
},
{
closed = 1;
nodes = (
"184 28 OFFCURVE",
"174 51 OFFCURVE",
"174 81 CURVE SMOOTH",
"174 143 OFFCURVE",
"217 237 OFFCURVE",
"302 237 CURVE",
"273 62 OFFCURVE",
"234 28 OFFCURVE",
"205 28 CURVE SMOOTH"
);
}
);
width = 547;
}
);
rightKerningGroup = o;
rightMetricsKey = o;
unicode = 0259;
},
{
glyphname = f;
layers = (
{
layerId = "C4C1D9D9-3F21-4BC7-A2AB-A5431E2D31D1";
paths = (
{
closed = 1;
nodes = (
"94 510 LINE",
"24 510 LINE",
"15 465 LINE",
"86 465 LINE",
"-9 -24 LINE",
"243 0 LINE",
"324 465 LINE",
"418 465 LINE",
"424 510 LINE",
"333 510 LINE",
"345 578 LINE SMOOTH",
"356 639 OFFCURVE",
"371 676 OFFCURVE",
"401 676 CURVE SMOOTH",
"417 676 OFFCURVE",
"421 664 OFFCURVE",
"421 646 CURVE SMOOTH",
"421 629 OFFCURVE",
"417 597 OFFCURVE",
"407 580 CURVE",
"429 571 OFFCURVE",
"453 568 OFFCURVE",
"474 568 CURVE SMOOTH",
"527 568 OFFCURVE",
"583 587 OFFCURVE",
"583 637 CURVE SMOOTH",
"583 712 OFFCURVE",
"460 720 OFFCURVE",
"383 720 CURVE SMOOTH",
"271 720 OFFCURVE",
"141 702 OFFCURVE",
"109 571 CURVE SMOOTH"
);
}
);
width = 326;
},
{
layerId = UUID0;
paths = (
{
closed = 1;
nodes = (
"125 510 LINE",
"55 510 LINE",
"46 465 LINE",
"117 465 LINE",
"24 -12 LINE",
"139 0 LINE",
"226 465 LINE",
"320 465 LINE",
"326 510 LINE",
"235 510 LINE",
"247 578 LINE SMOOTH",
"256 630 OFFCURVE",
"277 676 OFFCURVE",
"328 676 CURVE SMOOTH",
"359 676 OFFCURVE",
"372 658 OFFCURVE",
"372 630 CURVE SMOOTH",
"372 611 OFFCURVE",
"366 594 OFFCURVE",
"358 580 CURVE",
"368 572 OFFCURVE",
"385 569 OFFCURVE",
"400 569 CURVE SMOOTH",
"441 569 OFFCURVE",
"477 593 OFFCURVE",
"477 638 CURVE SMOOTH",
"477 697 OFFCURVE",
"414 720 OFFCURVE",
"340 720 CURVE SMOOTH",
"232 720 OFFCURVE",
"166 672 OFFCURVE",
"139 564 CURVE SMOOTH"
);
}
);
width = 308;
},
{
layerId = "8C7E3CD8-8122-4AAB-8613-74D9DEE9A67D";
paths = (
{
closed = 1;
nodes = (
"104 510 LINE",
"34 510 LINE",
"25 465 LINE",
"96 465 LINE",
"2 -20 LINE",
"209 0 LINE",
"292 465 LINE",
"386 465 LINE",
"392 510 LINE",
"301 510 LINE",
"313 578 LINE SMOOTH",
"323 636 OFFCURVE",
"340 676 OFFCURVE",
"377 676 CURVE SMOOTH",
"398 676 OFFCURVE",
"405 662 OFFCURVE",
"405 641 CURVE SMOOTH",
"405 623 OFFCURVE",
"400 596 OFFCURVE",
"391 580 CURVE",
"409 571 OFFCURVE",
"431 568 OFFCURVE",
"450 568 CURVE SMOOTH",
"499 568 OFFCURVE",
"548 589 OFFCURVE",
"548 637 CURVE SMOOTH",
"548 707 OFFCURVE",
"445 720 OFFCURVE",
"369 720 CURVE SMOOTH",
"258 720 OFFCURVE",
"149 692 OFFCURVE",
"119 569 CURVE SMOOTH"
);
}
);
width = 320;
}
);
leftKerningGroup = f;
rightKerningGroup = f;
unicode = 0066;
},
{
glyphname = g;
layers = (
{
anchors = (
{
name = top;
position = "{326, 510}";
}
);
layerId = UUID0;
paths = (
{
closed = 1;
nodes = (
"407 509 LINE",
"370 523 OFFCURVE",
"343 530 OFFCURVE",
"308 530 CURVE SMOOTH",
"142 530 OFFCURVE",
"41 373 OFFCURVE",
"41 223 CURVE SMOOTH",
"41 114 OFFCURVE",
"94 58 OFFCURVE",
"188 58 CURVE SMOOTH",
"238 58 OFFCURVE",
"294 74 OFFCURVE",
"323 115 CURVE",
"301 -26 OFFCURVE",
"273 -142 OFFCURVE",
"185 -142 CURVE SMOOTH",
"149 -142 OFFCURVE",
"122 -120 OFFCURVE",
"122 -81 CURVE SMOOTH",
"122 -63 OFFCURVE",
"130 -45 OFFCURVE",
"141 -33 CURVE",
"130 -13 OFFCURVE",
"108 -2 OFFCURVE",
"83 -2 CURVE SMOOTH",
"50 -2 OFFCURVE",
"10 -22 OFFCURVE",
"10 -77 CURVE SMOOTH",
"10 -160 OFFCURVE",
"86 -201 OFFCURVE",
"179 -201 CURVE SMOOTH",
"322 -201 OFFCURVE",
"381 -109 OFFCURVE",
"430 141 CURVE SMOOTH",
"506 522 LINE"
);
},
{
closed = 1;
nodes = (
"348 279 LINE SMOOTH",
"333 207 OFFCURVE",
"304 118 OFFCURVE",
"225 118 CURVE SMOOTH",
"176 118 OFFCURVE",
"155 152 OFFCURVE",
"155 210 CURVE SMOOTH",
"155 294 OFFCURVE",
"199 470 OFFCURVE",
"297 470 CURVE SMOOTH",
"320 470 OFFCURVE",
"355 460 OFFCURVE",
"380 439 CURVE"
);
}
);
width = 511;
},
{
anchors = (
{
name = top;
position = "{338, 510}";
}
);
layerId = "8C7E3CD8-8122-4AAB-8613-74D9DEE9A67D";
paths = (
{
closed = 1;
nodes = (
"422 513 LINE",
"395 525 OFFCURVE",
"364 530 OFFCURVE",
"330 530 CURVE SMOOTH",
"141 530 OFFCURVE",
"23 378 OFFCURVE",
"23 213 CURVE SMOOTH",
"23 100 OFFCURVE",
"78 58 OFFCURVE",
"164 58 CURVE SMOOTH",
"224 58 OFFCURVE",
"285 79 OFFCURVE",
"322 120 CURVE",
"291 -59 OFFCURVE",
"253 -131 OFFCURVE",
"195 -131 CURVE SMOOTH",
"167 -131 OFFCURVE",
"157 -106 OFFCURVE",
"157 -87 CURVE SMOOTH",
"157 -66 OFFCURVE",
"169 -47 OFFCURVE",
"180 -35 CURVE",
"156 -4 OFFCURVE",
"115 8 OFFCURVE",
"76 8 CURVE SMOOTH",
"18 8 OFFCURVE",
"-32 -26 OFFCURVE",
"-32 -85 CURVE SMOOTH",
"-32 -176 OFFCURVE",
"90 -200 OFFCURVE",
"187 -200 CURVE SMOOTH",
"404 -200 OFFCURVE",
"468 -81 OFFCURVE",
"510 137 CURVE SMOOTH",
"585 529 LINE"
);
},
{
closed = 1;
nodes = (
"338 257 LINE SMOOTH",
"328 204 OFFCURVE",
"306 135 OFFCURVE",
"253 135 CURVE SMOOTH",
"220 135 OFFCURVE",
"217 163 OFFCURVE",
"217 195 CURVE SMOOTH",
"217 283 OFFCURVE",
"240 470 OFFCURVE",
"333 470 CURVE SMOOTH",
"345 470 OFFCURVE",
"363 467 OFFCURVE",
"376 456 CURVE"
);
}
);
width = 585;
},
{
anchors = (
{
name = top;
position = "{363, 510}";
}
);
background = {
paths = (
{
closed = 1;
nodes = (
"333 246 LINE SMOOTH",
"326 203 OFFCURVE",
"307 143 OFFCURVE",
"267 143 CURVE SMOOTH",
"242 143 OFFCURVE",
"247 168 OFFCURVE",
"247 188 CURVE SMOOTH",
"247 278 OFFCURVE",
"260 470 OFFCURVE",
"351 470 CURVE SMOOTH",
"357 470 OFFCURVE",
"367 470 OFFCURVE",
"374 464 CURVE"
);
}
);
};
layerId = "C4C1D9D9-3F21-4BC7-A2AB-A5431E2D31D1";
paths = (
{
closed = 1;
nodes = (
"429 515 LINE",
"407 526 OFFCURVE",
"374 530 OFFCURVE",
"341 530 CURVE SMOOTH",
"141 530 OFFCURVE",
"14 380 OFFCURVE",
"14 208 CURVE SMOOTH",
"14 93 OFFCURVE",
"70 58 OFFCURVE",
"152 58 CURVE SMOOTH",
"217 58 OFFCURVE",
"281 81 OFFCURVE",
"322 122 CURVE",
"286 -75 OFFCURVE",
"243 -126 OFFCURVE",
"200 -126 CURVE SMOOTH",
"176 -126 OFFCURVE",
"174 -101 OFFCURVE",
"174 -92 CURVE SMOOTH",
"174 -69 OFFCURVE",
"188 -50 OFFCURVE",
"199 -38 CURVE",
"169 -2 OFFCURVE",
"118 11 OFFCURVE",
"73 11 CURVE SMOOTH",
"2 11 OFFCURVE",
"-53 -28 OFFCURVE",
"-53 -89 CURVE SMOOTH",
"-53 -184 OFFCURVE",
"92 -200 OFFCURVE",
"191 -200 CURVE SMOOTH",
"444 -200 OFFCURVE",
"511 -67 OFFCURVE",
"549 135 CURVE SMOOTH",
"624 532 LINE"
);
},
{
closed = 1;
nodes = (
"333 246 LINE SMOOTH",
"325 202 OFFCURVE",
"312 139 OFFCURVE",
"271 139 CURVE SMOOTH",
"247 139 OFFCURVE",
"240 171 OFFCURVE",
"240 208 CURVE SMOOTH",
"240 268 OFFCURVE",
"269 471 OFFCURVE",
"337 471 CURVE SMOOTH",
"347 471 OFFCURVE",
"363 468 OFFCURVE",
"373 459 CURVE"
);
}
);
width = 601;
}
);
leftKerningGroup = g;
rightMetricsKey = j;
unicode = 0067;
},
{
glyphname = h;
layers = (
{
anchors = (
{
name = bottom;
position = "{240, 0}";
},
{
name = center;
position = "{275, 255}";
},
{
name = top;
position = "{227, 660}";
}
);
layerId = UUID0;
paths = (
{
closed = 1;
nodes = (
"164 700 LINE",
"25 -12 LINE",
"137 0 LINE",
"191 278 LINE SMOOTH",
"207 358 OFFCURVE",
"247 453 OFFCURVE",
"326 453 CURVE SMOOTH",
"365 453 OFFCURVE",
"390 429 OFFCURVE",
"390 385 CURVE SMOOTH",
"390 316 OFFCURVE",
"328 140 OFFCURVE",
"328 55 CURVE SMOOTH",
"328 1 OFFCURVE",
"353 -20 OFFCURVE",
"394 -20 CURVE SMOOTH",
"428 -20 OFFCURVE",
"459 -5 OFFCURVE",
"468 27 CURVE",
"443 30 OFFCURVE",
"438 45 OFFCURVE",
"438 64 CURVE SMOOTH",
"438 129 OFFCURVE",
"500 294 OFFCURVE",
"500 402 CURVE SMOOTH",
"500 483 OFFCURVE",
"465 530 OFFCURVE",
"378 530 CURVE SMOOTH",
"315 530 OFFCURVE",
"252 505 OFFCURVE",
"214 443 CURVE",
"228 479 OFFCURVE",
"244 545 OFFCURVE",
"254 599 CURVE SMOOTH",
"276 712 LINE"
);
}
);
width = 539;
},
{
anchors = (
{
name = bottom;
position = "{281, 0}";
},
{
name = center;
position = "{301, 255}";
},
{
name = top;
position = "{252, 677}";
}
);
layerId = "8C7E3CD8-8122-4AAB-8613-74D9DEE9A67D";
paths = (
{
closed = 1;
nodes = (
"137 700 LINE",
"-4 -20 LINE",
"197 0 LINE",
"256 304 LINE SMOOTH",
"269 368 OFFCURVE",
"292 453 OFFCURVE",
"346 453 CURVE SMOOTH",
"375 453 OFFCURVE",
"381 429 OFFCURVE",
"381 404 CURVE SMOOTH",
"381 325 OFFCURVE",
"323 158 OFFCURVE",
"323 83 CURVE SMOOTH",
"323 14 OFFCURVE",
"371 -20 OFFCURVE",
"438 -20 CURVE SMOOTH",
"493 -20 OFFCURVE",
"552 3 OFFCURVE",
"568 54 CURVE",
"534 58 OFFCURVE",
"521 79 OFFCURVE",
"521 112 CURVE SMOOTH",
"521 179 OFFCURVE",
"576 328 OFFCURVE",
"576 412 CURVE SMOOTH",
"576 498 OFFCURVE",
"519 530 OFFCURVE",
"435 530 CURVE SMOOTH",
"375 530 OFFCURVE",
"318 514 OFFCURVE",
"278 474 CURVE",
"296 514 OFFCURVE",
"309 571 OFFCURVE",
"315 603 CURVE SMOOTH",
"338 720 LINE"
);
}
);
width = 602;
},
{
anchors = (
{
name = bottom;
position = "{301, 0}";
},
{
name = center;
position = "{317, 255}";
},
{
name = top;
position = "{259, 681}";
}
);
layerId = "C4C1D9D9-3F21-4BC7-A2AB-A5431E2D31D1";
paths = (
{
closed = 1;
nodes = (
"124 700 LINE",
"-18 -24 LINE",
"226 0 LINE",
"288 317 LINE SMOOTH",
"299 373 OFFCURVE",
"314 453 OFFCURVE",
"356 453 CURVE SMOOTH",
"373 453 OFFCURVE",
"379 437 OFFCURVE",
"379 412 CURVE SMOOTH",
"379 336 OFFCURVE",
"321 173 OFFCURVE",
"321 97 CURVE SMOOTH",
"321 20 OFFCURVE",
"380 -20 OFFCURVE",
"459 -20 CURVE SMOOTH",
"525 -20 OFFCURVE",
"597 7 OFFCURVE",
"617 67 CURVE",
"578 72 OFFCURVE",
"562 96 OFFCURVE",
"562 135 CURVE SMOOTH",
"562 203 OFFCURVE",
"613 345 OFFCURVE",
"613 417 CURVE SMOOTH",
"613 505 OFFCURVE",
"545 530 OFFCURVE",
"463 530 CURVE SMOOTH",
"404 530 OFFCURVE",
"350 518 OFFCURVE",
"309 489 CURVE",
"329 531 OFFCURVE",
"341 584 OFFCURVE",
"345 605 CURVE SMOOTH",
"368 724 LINE"
);
}
);
width = 633;
}
);
leftMetricsKey = n;
rightMetricsKey = n;
unicode = 0068;
},
{
glyphname = hbar;
layers = (
{
layerId = UUID0;
paths = (
{
closed = 1;
nodes = (
"370 567 LINE SMOOTH",
"416 567 OFFCURVE",
"433 586 OFFCURVE",
"433 615 CURVE SMOOTH",
"433 622 OFFCURVE",
"432 632 OFFCURVE",
"430 639 CURVE",
"262 639 LINE",
"276 712 LINE",
"164 700 LINE",
"152 639 LINE",
"128 639 LINE SMOOTH",
"92 639 OFFCURVE",
"73 622 OFFCURVE",
"72 591 CURVE SMOOTH",
"72 586 OFFCURVE",
"72 575 OFFCURVE",
"74 567 CURVE",
"138 567 LINE",
"25 -12 LINE",
"137 0 LINE",
"191 278 LINE SMOOTH",
"207 358 OFFCURVE",
"247 453 OFFCURVE",
"326 453 CURVE SMOOTH",
"365 453 OFFCURVE",
"390 429 OFFCURVE",
"390 385 CURVE SMOOTH",
"390 316 OFFCURVE",
"328 140 OFFCURVE",
"328 55 CURVE SMOOTH",
"328 1 OFFCURVE",
"353 -20 OFFCURVE",
"394 -20 CURVE SMOOTH",
"428 -20 OFFCURVE",
"459 -5 OFFCURVE",
"468 27 CURVE",
"443 30 OFFCURVE",
"438 45 OFFCURVE",
"438 64 CURVE SMOOTH",
"438 129 OFFCURVE",
"500 294 OFFCURVE",
"500 402 CURVE SMOOTH",
"500 483 OFFCURVE",
"465 530 OFFCURVE",
"378 530 CURVE SMOOTH",
"315 530 OFFCURVE",
"252 505 OFFCURVE",
"214 443 CURVE",
"225 472 OFFCURVE",
"238 521 OFFCURVE",
"248 567 CURVE"
);
}
);
width = 539;
},
{
layerId = "8C7E3CD8-8122-4AAB-8613-74D9DEE9A67D";
paths = (
{
closed = 1;
nodes = (
"366 557 LINE SMOOTH",
"417 557 OFFCURVE",
"442 585 OFFCURVE",
"442 621 CURVE SMOOTH",
"442 631 OFFCURVE",
"440 641 OFFCURVE",
"438 649 CURVE",
"324 649 LINE",
"338 720 LINE",
"137 700 LINE",
"127 649 LINE",
"117 649 LINE SMOOTH",
"78 649 OFFCURVE",
"50 623 OFFCURVE",
"49 584 CURVE SMOOTH",
"49 577 OFFCURVE",
"49 566 OFFCURVE",
"52 557 CURVE",
"109 557 LINE",
"-4 -20 LINE",
"197 0 LINE",
"256 304 LINE SMOOTH",
"269 368 OFFCURVE",
"292 453 OFFCURVE",
"346 453 CURVE SMOOTH",
"375 453 OFFCURVE",
"381 429 OFFCURVE",
"381 404 CURVE SMOOTH",
"381 325 OFFCURVE",
"323 158 OFFCURVE",
"323 83 CURVE SMOOTH",
"323 14 OFFCURVE",
"371 -20 OFFCURVE",
"438 -20 CURVE SMOOTH",
"493 -20 OFFCURVE",
"552 3 OFFCURVE",
"568 54 CURVE",
"534 58 OFFCURVE",
"521 79 OFFCURVE",
"521 112 CURVE SMOOTH",
"521 179 OFFCURVE",
"576 328 OFFCURVE",
"576 412 CURVE SMOOTH",
"576 498 OFFCURVE",
"519 530 OFFCURVE",
"435 530 CURVE SMOOTH",
"375 530 OFFCURVE",
"318 514 OFFCURVE",
"278 474 CURVE",
"289 499 OFFCURVE",
"298 529 OFFCURVE",
"305 557 CURVE"
);
}
);
width = 602;
},
{
layerId = "C4C1D9D9-3F21-4BC7-A2AB-A5431E2D31D1";
paths = (
{
closed = 1;
nodes = (
"364 552 LINE SMOOTH",
"417 552 OFFCURVE",
"446 585 OFFCURVE",
"446 624 CURVE SMOOTH",
"446 635 OFFCURVE",
"444 645 OFFCURVE",
"442 654 CURVE",
"354 654 LINE",
"368 724 LINE",
"124 700 LINE",
"115 654 LINE",
"112 654 LINE SMOOTH",
"71 654 OFFCURVE",
"39 623 OFFCURVE",
"38 581 CURVE SMOOTH",
"38 573 OFFCURVE",
"38 562 OFFCURVE",
"41 552 CURVE",
"95 552 LINE",
"-18 -24 LINE",
"226 0 LINE",
"288 317 LINE SMOOTH",
"299 373 OFFCURVE",
"314 453 OFFCURVE",
"356 453 CURVE SMOOTH",
"373 453 OFFCURVE",
"379 437 OFFCURVE",
"379 412 CURVE SMOOTH",
"379 336 OFFCURVE",
"321 173 OFFCURVE",
"321 97 CURVE SMOOTH",
"321 20 OFFCURVE",
"380 -20 OFFCURVE",
"459 -20 CURVE SMOOTH",
"525 -20 OFFCURVE",
"597 7 OFFCURVE",
"617 67 CURVE",
"578 72 OFFCURVE",
"562 96 OFFCURVE",
"562 135 CURVE SMOOTH",
"562 203 OFFCURVE",
"613 345 OFFCURVE",
"613 417 CURVE SMOOTH",
"613 505 OFFCURVE",
"545 530 OFFCURVE",
"463 530 CURVE SMOOTH",
"404 530 OFFCURVE",
"350 518 OFFCURVE",
"309 489 CURVE",
"320 512 OFFCURVE",
"327 533 OFFCURVE",
"333 552 CURVE"
);
}
);
width = 633;
}
);
rightMetricsKey = n;
unicode = 0127;
},
{
glyphname = i;
layers = (
{
anchors = (
{
name = bottom;
position = "{101, 0}";
}
);
components = (
{
name = dotaccent;
transform = "{1, 0, 0, 1, 29, 0}";
}
);
layerId = UUID0;
paths = (
{
closed = 1;
nodes = (
"129 510 LINE",
"61 172 LINE SMOOTH",
"55 142 OFFCURVE",
"42 77 OFFCURVE",
"42 47 CURVE SMOOTH",
"42 5 OFFCURVE",
"67 -20 OFFCURVE",
"109 -20 CURVE SMOOTH",
"142 -20 OFFCURVE",
"173 -5 OFFCURVE",
"182 27 CURVE",
"162 29 OFFCURVE",
"152 41 OFFCURVE",
"152 61 CURVE SMOOTH",
"152 72 OFFCURVE",
"155 92 OFFCURVE",
"157 103 CURVE SMOOTH",
"241 522 LINE"
);
}
);
width = 261;
},
{
anchors = (
{
name = bottom;
position = "{121, 0}";
}
);
components = (
{
name = dotaccent;
transform = "{1, 0, 0, 1, 47, 0}";
}
);
layerId = "8C7E3CD8-8122-4AAB-8613-74D9DEE9A67D";
paths = (
{
closed = 1;
nodes = (
"100 510 LINE",
"62 316 LINE SMOOTH",
"52 264 OFFCURVE",
"25 135 OFFCURVE",
"25 83 CURVE SMOOTH",
"25 14 OFFCURVE",
"73 -20 OFFCURVE",
"140 -20 CURVE SMOOTH",
"195 -20 OFFCURVE",
"254 3 OFFCURVE",
"270 54 CURVE",
"237 57 OFFCURVE",
"223 81 OFFCURVE",
"223 108 CURVE SMOOTH",
"223 121 OFFCURVE",
"226 139 OFFCURVE",
"228 150 CURVE SMOOTH",
"302 530 LINE"
);
}
);
width = 315;
},
{
anchors = (
{
name = bottom;
position = "{141, 0}";
}
);
components = (
{
name = dotaccent;
transform = "{1, 0, 0, 1, 47, 0}";
}
);
layerId = "C4C1D9D9-3F21-4BC7-A2AB-A5431E2D31D1";
paths = (
{
closed = 1;
nodes = (
"84 510 LINE",
"60 386 LINE SMOOTH",
"49 324 OFFCURVE",
"15 163 OFFCURVE",
"15 101 CURVE SMOOTH",
"15 18 OFFCURVE",
"74 -20 OFFCURVE",
"153 -20 CURVE SMOOTH",
"219 -20 OFFCURVE",
"292 7 OFFCURVE",
"311 67 CURVE",
"272 71 OFFCURVE",
"256 101 OFFCURVE",
"256 131 CURVE SMOOTH",
"256 145 OFFCURVE",
"259 162 OFFCURVE",
"261 173 CURVE SMOOTH",
"330 534 LINE"
);
}
);
width = 332;
}
);
unicode = 0069;
},
{
glyphname = dotlessi;
layers = (
{
anchors = (
{
name = ogonek;
position = "{174, 10}";
},
{
name = top;
position = "{186, 510}";
}
);
layerId = UUID0;
paths = (
{
closed = 1;
nodes = (
"241 522 LINE",
"129 510 LINE",
"61 172 LINE SMOOTH",
"55 142 OFFCURVE",
"42 77 OFFCURVE",
"42 47 CURVE SMOOTH",
"42 5 OFFCURVE",
"67 -20 OFFCURVE",
"109 -20 CURVE SMOOTH",
"142 -20 OFFCURVE",
"173 -5 OFFCURVE",
"182 27 CURVE",
"162 29 OFFCURVE",
"152 41 OFFCURVE",
"152 61 CURVE SMOOTH",
"152 72 OFFCURVE",
"155 92 OFFCURVE",
"157 103 CURVE SMOOTH"
);
}
);
width = 261;
},
{
anchors = (
{
name = ogonek;
position = "{237, 10}";
},
{
name = top;
position = "{199, 510}";
}
);
layerId = "8C7E3CD8-8122-4AAB-8613-74D9DEE9A67D";
paths = (
{
closed = 1;
nodes = (
"302 530 LINE",
"100 510 LINE",
"62 316 LINE SMOOTH",
"52 264 OFFCURVE",
"25 135 OFFCURVE",
"25 83 CURVE SMOOTH",
"25 14 OFFCURVE",
"73 -20 OFFCURVE",
"140 -20 CURVE SMOOTH",
"195 -20 OFFCURVE",
"254 3 OFFCURVE",
"270 54 CURVE",
"237 57 OFFCURVE",
"223 81 OFFCURVE",
"223 108 CURVE SMOOTH",
"223 121 OFFCURVE",
"226 139 OFFCURVE",
"228 150 CURVE SMOOTH"
);
}
);
width = 303;
},
{
anchors = (
{
name = ogonek;
position = "{261, 10}";
},
{
name = top;
position = "{202, 510}";
}
);
layerId = "C4C1D9D9-3F21-4BC7-A2AB-A5431E2D31D1";
paths = (
{
closed = 1;
nodes = (
"324 534 LINE",
"78 510 LINE",
"54 386 LINE SMOOTH",
"43 324 OFFCURVE",
"9 163 OFFCURVE",
"9 101 CURVE SMOOTH",
"9 18 OFFCURVE",
"68 -20 OFFCURVE",
"147 -20 CURVE SMOOTH",
"213 -20 OFFCURVE",
"286 7 OFFCURVE",
"305 67 CURVE",
"266 71 OFFCURVE",
"250 101 OFFCURVE",
"250 131 CURVE SMOOTH",
"250 145 OFFCURVE",
"253 162 OFFCURVE",
"255 173 CURVE SMOOTH"
);
}
);
width = 326;
}
);
unicode = 0131;
},
{
glyphname = dotlessj;
layers = (
{
anchors = (
{
name = top;
position = "{192, 510}";
}
);
layerId = UUID0;
paths = (
{
closed = 1;
nodes = (
"135 510 LINE",
"52 99 LINE SMOOTH",
"18 -72 OFFCURVE",
"-15 -139 OFFCURVE",
"-91 -142 CURVE",
"-85 -181 OFFCURVE",
"-60 -200 OFFCURVE",
"-21 -200 CURVE SMOOTH",
"49 -200 OFFCURVE",
"114 -139 OFFCURVE",
"148 30 CURVE SMOOTH",
"247 522 LINE"
);
}
);
width = 262;
},
{
anchors = (
{
name = top;
position = "{193, 510}";
}
);
layerId = "8C7E3CD8-8122-4AAB-8613-74D9DEE9A67D";
paths = (
{
closed = 1;
nodes = (
"101 510 LINE",
"24 112 LINE SMOOTH",
"-9 -57 OFFCURVE",
"-39 -123 OFFCURVE",
"-118 -126 CURVE",
"-104 -179 OFFCURVE",
"-55 -200 OFFCURVE",
"1 -200 CURVE SMOOTH",
"122 -200 OFFCURVE",
"179 -104 OFFCURVE",
"217 92 CURVE SMOOTH",
"302 530 LINE"
);
}
);
width = 303;
},
{
anchors = (
{
name = top;
position = "{200, 510}";
}
);
layerId = "C4C1D9D9-3F21-4BC7-A2AB-A5431E2D31D1";
paths = (
{
closed = 1;
nodes = (
"84 510 LINE",
"10 118 LINE SMOOTH",
"-22 -50 OFFCURVE",
"-51 -115 OFFCURVE",
"-131 -118 CURVE",
"-113 -178 OFFCURVE",
"-53 -200 OFFCURVE",
"12 -200 CURVE SMOOTH",
"158 -200 OFFCURVE",
"211 -87 OFFCURVE",
"251 122 CURVE SMOOTH",
"329 534 LINE"
);
}
);
width = 306;
}
);
unicode = 0237;
},
{
glyphname = k;
layers = (
{
anchors = (
{
name = bottom;
position = "{224, 0}";
}
);
layerId = UUID0;
paths = (
{
closed = 1;
nodes = (
"143 700 LINE",
"4 -12 LINE",
"116 0 LINE",
"170 278 LINE SMOOTH",
"187 364 OFFCURVE",
"217 453 OFFCURVE",
"297 453 CURVE SMOOTH",
"337 453 OFFCURVE",
"359 431 OFFCURVE",
"359 390 CURVE SMOOTH",
"359 308 OFFCURVE",
"271 261 OFFCURVE",
"191 241 CURVE",
"244 57 OFFCURVE",
"276 -20 OFFCURVE",
"354 -20 CURVE SMOOTH",
"395 -20 OFFCURVE",
"419 2 OFFCURVE",
"424 35 CURVE",
"385 39 OFFCURVE",
"361 74 OFFCURVE",
"348 107 CURVE SMOOTH",
"302 226 LINE",
"383 255 OFFCURVE",
"469 310 OFFCURVE",
"469 414 CURVE SMOOTH",
"469 483 OFFCURVE",
"431 530 OFFCURVE",
"351 530 CURVE SMOOTH",
"290 530 OFFCURVE",
"229 502 OFFCURVE",
"193 443 CURVE",
"207 479 OFFCURVE",
"223 545 OFFCURVE",
"233 599 CURVE SMOOTH",
"255 712 LINE"
);
}
);
width = 469;
},
{
anchors = (
{
name = bottom;
position = "{270, 0}";
}
);
layerId = "8C7E3CD8-8122-4AAB-8613-74D9DEE9A67D";
paths = (
{
closed = 1;
nodes = (
"128 700 LINE",
"-13 -20 LINE",
"188 0 LINE",
"247 304 LINE SMOOTH",
"259 365 OFFCURVE",
"283 453 OFFCURVE",
"337 453 CURVE SMOOTH",
"362 453 OFFCURVE",
"375 434 OFFCURVE",
"375 397 CURVE SMOOTH",
"375 320 OFFCURVE",
"319 253 OFFCURVE",
"255 235 CURVE",
"261 118 OFFCURVE",
"291 -20 OFFCURVE",
"414 -20 CURVE SMOOTH",
"469 -20 OFFCURVE",
"522 7 OFFCURVE",
"538 61 CURVE",
"505 64 OFFCURVE",
"485 94 OFFCURVE",
"471 131 CURVE SMOOTH",
"431 235 LINE",
"516 259 OFFCURVE",
"569 319 OFFCURVE",
"569 404 CURVE SMOOTH",
"569 489 OFFCURVE",
"517 530 OFFCURVE",
"425 530 CURVE SMOOTH",
"371 530 OFFCURVE",
"312 516 OFFCURVE",
"269 474 CURVE",
"287 514 OFFCURVE",
"300 571 OFFCURVE",
"306 603 CURVE SMOOTH",
"329 720 LINE"
);
}
);
width = 548;
},
{
anchors = (
{
name = bottom;
position = "{306, 0}";
}
);
layerId = "C4C1D9D9-3F21-4BC7-A2AB-A5431E2D31D1";
paths = (
{
closed = 1;
nodes = (
"117 700 LINE",
"-25 -24 LINE",
"219 0 LINE",
"281 317 LINE SMOOTH",
"290 365 OFFCURVE",
"311 453 OFFCURVE",
"353 453 CURVE SMOOTH",
"370 453 OFFCURVE",
"379 435 OFFCURVE",
"379 400 CURVE SMOOTH",
"379 326 OFFCURVE",
"339 249 OFFCURVE",
"282 232 CURVE",
"265 148 OFFCURVE",
"294 -20 OFFCURVE",
"439 -20 CURVE SMOOTH",
"501 -20 OFFCURVE",
"568 9 OFFCURVE",
"590 74 CURVE",
"560 76 OFFCURVE",
"542 104 OFFCURVE",
"527 143 CURVE SMOOTH",
"490 239 LINE",
"577 261 OFFCURVE",
"614 323 OFFCURVE",
"614 399 CURVE SMOOTH",
"614 492 OFFCURVE",
"555 530 OFFCURVE",
"457 530 CURVE SMOOTH",
"407 530 OFFCURVE",
"349 523 OFFCURVE",
"302 489 CURVE",
"322 531 OFFCURVE",
"334 584 OFFCURVE",
"338 605 CURVE SMOOTH",
"361 724 LINE"
);
}
);
width = 610;
}
);
leftMetricsKey = l;
unicode = 006B;
},
{
glyphname = kgreenlandic;
layers = (
{
layerId = UUID0;
paths = (
{
closed = 1;
nodes = (
"127 510 LINE",
"25 -12 LINE",
"137 0 LINE",
"191 278 LINE SMOOTH",
"208 364 OFFCURVE",
"238 453 OFFCURVE",
"318 453 CURVE SMOOTH",
"358 453 OFFCURVE",
"380 431 OFFCURVE",
"380 390 CURVE SMOOTH",
"380 308 OFFCURVE",
"292 261 OFFCURVE",
"212 241 CURVE",
"265 57 OFFCURVE",
"297 -20 OFFCURVE",
"375 -20 CURVE SMOOTH",
"416 -20 OFFCURVE",
"440 2 OFFCURVE",
"445 35 CURVE",
"406 39 OFFCURVE",
"382 74 OFFCURVE",
"369 107 CURVE SMOOTH",
"323 226 LINE",
"404 255 OFFCURVE",
"490 310 OFFCURVE",
"490 414 CURVE SMOOTH",
"490 483 OFFCURVE",
"452 530 OFFCURVE",
"372 530 CURVE SMOOTH",
"311 530 OFFCURVE",
"249 505 OFFCURVE",
"208 431 CURVE",
"220 521 LINE"
);
}
);
width = 490;
},
{
layerId = "8C7E3CD8-8122-4AAB-8613-74D9DEE9A67D";
paths = (
{
closed = 1;
nodes = (
"100 510 LINE",
"-4 -20 LINE",
"197 0 LINE",
"256 304 LINE SMOOTH",
"268 365 OFFCURVE",
"292 453 OFFCURVE",
"346 453 CURVE SMOOTH",
"371 453 OFFCURVE",
"384 434 OFFCURVE",
"384 397 CURVE SMOOTH",
"384 320 OFFCURVE",
"328 253 OFFCURVE",
"264 235 CURVE",
"270 118 OFFCURVE",
"300 -20 OFFCURVE",
"423 -20 CURVE SMOOTH",
"478 -20 OFFCURVE",
"531 7 OFFCURVE",
"547 61 CURVE",
"514 64 OFFCURVE",
"494 94 OFFCURVE",
"480 131 CURVE SMOOTH",
"440 235 LINE",
"525 259 OFFCURVE",
"578 319 OFFCURVE",
"578 404 CURVE SMOOTH",
"578 489 OFFCURVE",
"526 530 OFFCURVE",
"434 530 CURVE SMOOTH",
"380 530 OFFCURVE",
"291 519 OFFCURVE",
"248 431 CURVE",
"264 530 LINE"
);
}
);
width = 557;
},
{
layerId = "C4C1D9D9-3F21-4BC7-A2AB-A5431E2D31D1";
paths = (
{
closed = 1;
nodes = (
"87 510 LINE",
"-18 -24 LINE",
"226 0 LINE",
"288 317 LINE SMOOTH",
"297 365 OFFCURVE",
"318 453 OFFCURVE",
"360 453 CURVE SMOOTH",
"377 453 OFFCURVE",
"386 435 OFFCURVE",
"386 400 CURVE SMOOTH",
"386 326 OFFCURVE",
"346 249 OFFCURVE",
"289 232 CURVE",
"272 148 OFFCURVE",
"301 -20 OFFCURVE",
"446 -20 CURVE SMOOTH",
"508 -20 OFFCURVE",
"575 9 OFFCURVE",
"597 74 CURVE",
"567 76 OFFCURVE",
"549 104 OFFCURVE",
"534 143 CURVE SMOOTH",
"497 239 LINE",
"584 261 OFFCURVE",
"621 323 OFFCURVE",
"621 399 CURVE SMOOTH",
"621 492 OFFCURVE",
"562 530 OFFCURVE",
"464 530 CURVE SMOOTH",
"414 530 OFFCURVE",
"312 526 OFFCURVE",
"268 431 CURVE",
"286 534 LINE"
);
}
);
width = 617;
}
);
leftMetricsKey = n;
rightMetricsKey = k;
unicode = 0138;
},
{
glyphname = l;
layers = (
{
anchors = (
{
name = bottom;
position = "{111, 0}";
},
{
name = caron;
position = "{297, 510}";
},
{
name = center;
position = "{294, 329}";
},
{
name = top;
position = "{202, 677}";
},
{
name = topright;
position = "{221, 510}";
}
);
layerId = UUID0;
paths = (
{
closed = 1;
nodes = (
"147 700 LINE",
"41 172 LINE SMOOTH",
"35 142 OFFCURVE",
"22 77 OFFCURVE",
"22 47 CURVE SMOOTH",
"22 5 OFFCURVE",
"47 -20 OFFCURVE",
"89 -20 CURVE SMOOTH",
"122 -20 OFFCURVE",
"153 -5 OFFCURVE",
"162 27 CURVE",
"142 29 OFFCURVE",
"132 41 OFFCURVE",
"132 61 CURVE SMOOTH",
"132 72 OFFCURVE",
"135 92 OFFCURVE",
"137 103 CURVE SMOOTH",
"259 712 LINE"
);
}
);
width = 241;
},
{
anchors = (
{
name = bottom;
position = "{149, 0}";
},
{
name = caron;
position = "{342, 510}";
},
{
name = center;
position = "{374, 329}";
},
{
name = top;
position = "{197, 680}";
},
{
name = topright;
position = "{286, 510}";
}
);
layerId = "8C7E3CD8-8122-4AAB-8613-74D9DEE9A67D";
paths = (
{
closed = 1;
nodes = (
"126 700 LINE",
"53 316 LINE SMOOTH",
"43 264 OFFCURVE",
"16 135 OFFCURVE",
"16 83 CURVE SMOOTH",
"16 14 OFFCURVE",
"64 -20 OFFCURVE",
"131 -20 CURVE SMOOTH",
"186 -20 OFFCURVE",
"245 3 OFFCURVE",
"261 54 CURVE",
"228 57 OFFCURVE",
"214 81 OFFCURVE",
"214 108 CURVE SMOOTH",
"214 121 OFFCURVE",
"217 139 OFFCURVE",
"219 150 CURVE SMOOTH",
"329 720 LINE"
);
}
);
width = 306;
},
{
anchors = (
{
name = bottom;
position = "{144, 0}";
},
{
name = caron;
position = "{375, 510}";
},
{
name = center;
position = "{424, 329}";
},
{
name = top;
position = "{207, 682}";
},
{
name = topright;
position = "{305, 510}";
}
);
layerId = "C4C1D9D9-3F21-4BC7-A2AB-A5431E2D31D1";
paths = (
{
closed = 1;
nodes = (
"110 700 LINE",
"53 386 LINE SMOOTH",
"42 324 OFFCURVE",
"8 163 OFFCURVE",
"8 101 CURVE SMOOTH",
"8 18 OFFCURVE",
"67 -20 OFFCURVE",
"146 -20 CURVE SMOOTH",
"212 -20 OFFCURVE",
"285 7 OFFCURVE",
"304 67 CURVE",
"265 71 OFFCURVE",
"249 101 OFFCURVE",
"249 131 CURVE SMOOTH",
"249 145 OFFCURVE",
"252 162 OFFCURVE",
"254 173 CURVE SMOOTH",
"358 724 LINE"
);
}
);
width = 325;
}
);
leftMetricsKey = i;
rightMetricsKey = i;
unicode = 006C;
},
{
glyphname = ldot;
layers = (
{
components = (
{
name = l;
}
);
layerId = UUID0;
paths = (
{
closed = 1;
nodes = (
"242 388 OFFCURVE",
"208 367 OFFCURVE",
"201 329 CURVE SMOOTH",
"194 293 OFFCURVE",
"216 272 OFFCURVE",
"247 272 CURVE SMOOTH",
"278 272 OFFCURVE",
"313 293 OFFCURVE",
"320 331 CURVE SMOOTH",
"327 367 OFFCURVE",
"304 388 OFFCURVE",
"273 388 CURVE SMOOTH"
);
}
);
width = 269;
},
{
components = (
{
name = l;
}
);
layerId = "8C7E3CD8-8122-4AAB-8613-74D9DEE9A67D";
paths = (
{
closed = 1;
nodes = (
"309 403 OFFCURVE",
"275 375 OFFCURVE",
"266 331 CURVE SMOOTH",
"258 291 OFFCURVE",
"277 264 OFFCURVE",
"319 264 CURVE SMOOTH",
"361 264 OFFCURVE",
"392 291 OFFCURVE",
"401 334 CURVE SMOOTH",
"409 376 OFFCURVE",
"390 403 OFFCURVE",
"350 403 CURVE SMOOTH"
);
}
);
width = 356;
},
{
components = (
{
name = l;
}
);
layerId = "C4C1D9D9-3F21-4BC7-A2AB-A5431E2D31D1";
paths = (
{
closed = 1;
nodes = (
"351 407 OFFCURVE",
"311 373 OFFCURVE",
"303 330 CURVE SMOOTH",
"296 292 OFFCURVE",
"317 260 OFFCURVE",
"363 260 CURVE SMOOTH",
"409 260 OFFCURVE",
"445 292 OFFCURVE",
"453 334 CURVE SMOOTH",
"461 374 OFFCURVE",
"440 407 OFFCURVE",
"396 407 CURVE SMOOTH"
);
}
);
width = 419;
}
);
leftMetricsKey = l;
unicode = 0140;
},
{
glyphname = lslash;
layers = (
{
layerId = UUID0;
paths = (
{
closed = 1;
nodes = (
"247 412 LINE",
"307 712 LINE",
"195 700 LINE",
"128 368 LINE",
"36 334 LINE SMOOTH",
"8 323 OFFCURVE",
"-2 304 OFFCURVE",
"-2 283 CURVE SMOOTH",
"-2 265 OFFCURVE",
"6 255 OFFCURVE",
"16 244 CURVE",
"110 278 LINE",
"103 243 OFFCURVE",
"96 207 OFFCURVE",
"89 172 CURVE SMOOTH",
"83 142 OFFCURVE",
"70 77 OFFCURVE",
"70 47 CURVE SMOOTH",
"70 5 OFFCURVE",
"95 -20 OFFCURVE",
"137 -20 CURVE SMOOTH",
"170 -20 OFFCURVE",
"201 -5 OFFCURVE",
"210 27 CURVE",
"190 29 OFFCURVE",
"180 41 OFFCURVE",
"180 61 CURVE SMOOTH",
"180 72 OFFCURVE",
"183 92 OFFCURVE",
"185 103 CURVE SMOOTH",
"229 321 LINE",
"311 351 LINE SMOOTH",
"350 365 OFFCURVE",
"371 380 OFFCURVE",
"371 410 CURVE SMOOTH",
"371 423 OFFCURVE",
"367 441 OFFCURVE",
"355 452 CURVE"
);
}
);
width = 305;
},
{
layerId = "8C7E3CD8-8122-4AAB-8613-74D9DEE9A67D";
paths = (
{
closed = 1;
nodes = (
"317 426 LINE",
"374 720 LINE",
"171 700 LINE",
"104 347 LINE",
"35 322 LINE SMOOTH",
"1 310 OFFCURVE",
"-10 286 OFFCURVE",
"-10 263 CURVE SMOOTH",
"-10 243 OFFCURVE",
"-1 228 OFFCURVE",
"11 217 CURVE",
"84 243 LINE",
"80 222 OFFCURVE",
"76 200 OFFCURVE",
"72 178 CURVE SMOOTH",
"66 141 OFFCURVE",
"61 105 OFFCURVE",
"61 83 CURVE SMOOTH",
"61 14 OFFCURVE",
"109 -20 OFFCURVE",
"176 -20 CURVE SMOOTH",
"231 -20 OFFCURVE",
"290 3 OFFCURVE",
"306 54 CURVE",
"273 57 OFFCURVE",
"259 81 OFFCURVE",
"259 108 CURVE SMOOTH",
"259 121 OFFCURVE",
"262 139 OFFCURVE",
"264 150 CURVE SMOOTH",
"297 320 LINE",
"333 333 LINE SMOOTH",
"382 350 OFFCURVE",
"403 370 OFFCURVE",
"403 402 CURVE SMOOTH",
"403 417 OFFCURVE",
"398 439 OFFCURVE",
"384 451 CURVE"
);
}
);
width = 393;
},
{
layerId = "C4C1D9D9-3F21-4BC7-A2AB-A5431E2D31D1";
paths = (
{
closed = 1;
nodes = (
"331 433 LINE",
"387 724 LINE",
"139 700 LINE",
"72 337 LINE",
"15 316 LINE SMOOTH",
"-22 304 OFFCURVE",
"-34 277 OFFCURVE",
"-34 253 CURVE SMOOTH",
"-34 232 OFFCURVE",
"-24 215 OFFCURVE",
"-11 204 CURVE",
"51 226 LINE",
"49 212 OFFCURVE",
"46 197 OFFCURVE",
"44 181 CURVE SMOOTH",
"38 141 OFFCURVE",
"37 119 OFFCURVE",
"37 101 CURVE SMOOTH",
"37 18 OFFCURVE",
"96 -20 OFFCURVE",
"175 -20 CURVE SMOOTH",
"241 -20 OFFCURVE",
"313 7 OFFCURVE",
"333 67 CURVE",
"294 71 OFFCURVE",
"278 101 OFFCURVE",
"278 131 CURVE SMOOTH",
"278 145 OFFCURVE",
"281 162 OFFCURVE",
"283 173 CURVE SMOOTH",
"310 320 LINE",
"324 324 LINE SMOOTH",
"378 343 OFFCURVE",
"399 365 OFFCURVE",
"399 398 CURVE SMOOTH",
"399 414 OFFCURVE",
"393 438 OFFCURVE",
"378 451 CURVE"
);
}
);
width = 368;
}
);
unicode = 0142;
},
{
glyphname = m;
layers = (
{
layerId = UUID0;
paths = (
{
closed = 1;
nodes = (
"220 522 LINE",
"127 510 LINE",
"25 -12 LINE",
"137 0 LINE",
"191 278 LINE SMOOTH",
"207 361 OFFCURVE",
"236 453 OFFCURVE",
"318 453 CURVE SMOOTH",
"360 453 OFFCURVE",
"384 429 OFFCURVE",
"384 383 CURVE SMOOTH",
"384 347 OFFCURVE",
"369 280 OFFCURVE",
"361 241 CURVE SMOOTH",
"310 -12 LINE",
"422 0 LINE",
"476 278 LINE SMOOTH",
"491 357 OFFCURVE",
"520 453 OFFCURVE",
"603 453 CURVE SMOOTH",
"644 453 OFFCURVE",
"668 429 OFFCURVE",
"668 385 CURVE SMOOTH",
"668 316 OFFCURVE",
"606 141 OFFCURVE",
"606 55 CURVE SMOOTH",
"606 1 OFFCURVE",
"631 -20 OFFCURVE",
"672 -20 CURVE SMOOTH",
"706 -20 OFFCURVE",
"737 -5 OFFCURVE",
"746 27 CURVE",
"726 29 OFFCURVE",
"716 40 OFFCURVE",
"716 65 CURVE SMOOTH",
"716 129 OFFCURVE",
"785 295 OFFCURVE",
"785 401 CURVE SMOOTH",
"785 482 OFFCURVE",
"744 530 OFFCURVE",
"657 530 CURVE SMOOTH",
"591 530 OFFCURVE",
"526 503 OFFCURVE",
"490 439 CURVE",
"478 500 OFFCURVE",
"443 530 OFFCURVE",
"372 530 CURVE SMOOTH",
"300 530 OFFCURVE",
"243 499 OFFCURVE",
"208 432 CURVE"
);
}
);
width = 817;
},
{
layerId = "8C7E3CD8-8122-4AAB-8613-74D9DEE9A67D";
paths = (
{
closed = 1;
nodes = (
"264 530 LINE",
"100 510 LINE",
"-4 -20 LINE",
"197 0 LINE",
"256 304 LINE SMOOTH",
"266 357 OFFCURVE",
"289 453 OFFCURVE",
"346 453 CURVE SMOOTH",
"375 453 OFFCURVE",
"381 428 OFFCURVE",
"381 406 CURVE SMOOTH",
"381 367 OFFCURVE",
"361 275 OFFCURVE",
"354 244 CURVE SMOOTH",
"298 -20 LINE",
"499 0 LINE",
"558 304 LINE SMOOTH",
"567 349 OFFCURVE",
"589 453 OFFCURVE",
"645 453 CURVE SMOOTH",
"673 453 OFFCURVE",
"679 428 OFFCURVE",
"679 403 CURVE SMOOTH",
"679 325 OFFCURVE",
"621 158 OFFCURVE",
"621 83 CURVE SMOOTH",
"621 14 OFFCURVE",
"669 -20 OFFCURVE",
"736 -20 CURVE SMOOTH",
"791 -20 OFFCURVE",
"850 3 OFFCURVE",
"866 54 CURVE",
"832 58 OFFCURVE",
"819 79 OFFCURVE",
"819 112 CURVE SMOOTH",
"819 179 OFFCURVE",
"874 328 OFFCURVE",
"874 412 CURVE SMOOTH",
"874 498 OFFCURVE",
"817 530 OFFCURVE",
"731 530 CURVE SMOOTH",
"660 530 OFFCURVE",
"599 508 OFFCURVE",
"561 450 CURVE",
"542 510 OFFCURVE",
"491 530 OFFCURVE",
"426 530 CURVE SMOOTH",
"349 530 OFFCURVE",
"284 503 OFFCURVE",
"248 432 CURVE"
);
}
);
width = 900;
},
{
layerId = "C4C1D9D9-3F21-4BC7-A2AB-A5431E2D31D1";
paths = (
{
closed = 1;
nodes = (
"286 534 LINE",
"87 510 LINE",
"-18 -24 LINE",
"226 0 LINE",
"288 317 LINE SMOOTH",
"295 355 OFFCURVE",
"315 453 OFFCURVE",
"360 453 CURVE SMOOTH",
"375 453 OFFCURVE",
"380 436 OFFCURVE",
"380 411 CURVE SMOOTH",
"380 361 OFFCURVE",
"359 281 OFFCURVE",
"351 245 CURVE SMOOTH",
"292 -24 LINE",
"537 0 LINE",
"598 317 LINE SMOOTH",
"604 345 OFFCURVE",
"623 453 OFFCURVE",
"666 453 CURVE SMOOTH",
"680 453 OFFCURVE",
"685 439 OFFCURVE",
"685 416 CURVE SMOOTH",
"685 341 OFFCURVE",
"628 171 OFFCURVE",
"628 97 CURVE SMOOTH",
"628 20 OFFCURVE",
"688 -20 OFFCURVE",
"767 -20 CURVE SMOOTH",
"833 -20 OFFCURVE",
"905 7 OFFCURVE",
"925 67 CURVE",
"884 72 OFFCURVE",
"869 98 OFFCURVE",
"869 135 CURVE SMOOTH",
"869 203 OFFCURVE",
"917 344 OFFCURVE",
"917 417 CURVE SMOOTH",
"917 506 OFFCURVE",
"853 530 OFFCURVE",
"767 530 CURVE SMOOTH",
"694 530 OFFCURVE",
"635 510 OFFCURVE",
"596 455 CURVE",
"573 515 OFFCURVE",
"514 530 OFFCURVE",
"452 530 CURVE SMOOTH",
"373 530 OFFCURVE",
"304 505 OFFCURVE",
"268 432 CURVE"
);
}
);
width = 941;
}
);
leftKerningGroup = n;
leftMetricsKey = n;
rightMetricsKey = n;
unicode = 006D;
},
{
glyphname = n;
layers = (
{
anchors = (
{
name = bottom;
position = "{236, 0}";
},
{
name = top;
position = "{331, 510}";
}
);
layerId = UUID0;
paths = (
{
closed = 1;
nodes = (
"220 522 LINE",
"127 510 LINE",
"25 -12 LINE",
"137 0 LINE",
"191 278 LINE SMOOTH",
"207 358 OFFCURVE",
"247 453 OFFCURVE",
"326 453 CURVE SMOOTH",
"365 453 OFFCURVE",
"390 429 OFFCURVE",
"390 385 CURVE SMOOTH",
"390 316 OFFCURVE",
"328 140 OFFCURVE",
"328 55 CURVE SMOOTH",
"328 1 OFFCURVE",
"353 -20 OFFCURVE",
"394 -20 CURVE SMOOTH",
"428 -20 OFFCURVE",
"459 -5 OFFCURVE",
"468 27 CURVE",
"443 30 OFFCURVE",
"438 45 OFFCURVE",
"438 64 CURVE SMOOTH",
"438 129 OFFCURVE",
"500 294 OFFCURVE",
"500 402 CURVE SMOOTH",
"500 483 OFFCURVE",
"465 530 OFFCURVE",
"378 530 CURVE SMOOTH",
"310 530 OFFCURVE",
"244 501 OFFCURVE",
"208 432 CURVE"
);
}
);
width = 539;
},
{
anchors = (
{
name = bottom;
position = "{271, 0}";
},
{
name = top;
position = "{345, 510}";
}
);
layerId = "8C7E3CD8-8122-4AAB-8613-74D9DEE9A67D";
paths = (
{
closed = 1;
nodes = (
"264 530 LINE",
"100 510 LINE",
"-4 -20 LINE",
"197 0 LINE",
"256 304 LINE SMOOTH",
"269 368 OFFCURVE",
"292 453 OFFCURVE",
"346 453 CURVE SMOOTH",
"375 453 OFFCURVE",
"381 429 OFFCURVE",
"381 404 CURVE SMOOTH",
"381 325 OFFCURVE",
"323 158 OFFCURVE",
"323 83 CURVE SMOOTH",
"323 14 OFFCURVE",
"371 -20 OFFCURVE",
"438 -20 CURVE SMOOTH",
"493 -20 OFFCURVE",
"552 3 OFFCURVE",
"568 54 CURVE",
"534 58 OFFCURVE",
"521 79 OFFCURVE",
"521 112 CURVE SMOOTH",
"521 179 OFFCURVE",
"576 328 OFFCURVE",
"576 413 CURVE SMOOTH",
"576 498 OFFCURVE",
"520 530 OFFCURVE",
"432 530 CURVE SMOOTH",
"352 530 OFFCURVE",
"285 503 OFFCURVE",
"248 432 CURVE"
);
}
);
width = 602;
},
{
anchors = (
{
name = bottom;
position = "{298, 0}";
},
{
name = top;
position = "{374, 510}";
}
);
layerId = "C4C1D9D9-3F21-4BC7-A2AB-A5431E2D31D1";
paths = (
{
closed = 1;
nodes = (
"286 534 LINE",
"87 510 LINE",
"-18 -24 LINE",
"226 0 LINE",
"288 317 LINE SMOOTH",
"299 373 OFFCURVE",
"314 453 OFFCURVE",
"356 453 CURVE SMOOTH",
"373 453 OFFCURVE",
"379 437 OFFCURVE",
"379 412 CURVE SMOOTH",
"379 336 OFFCURVE",
"321 173 OFFCURVE",
"321 97 CURVE SMOOTH",
"321 20 OFFCURVE",
"380 -20 OFFCURVE",
"459 -20 CURVE SMOOTH",
"525 -20 OFFCURVE",
"597 7 OFFCURVE",
"617 67 CURVE",
"578 72 OFFCURVE",
"562 96 OFFCURVE",
"562 135 CURVE SMOOTH",
"562 203 OFFCURVE",
"613 345 OFFCURVE",
"613 418 CURVE SMOOTH",
"613 505 OFFCURVE",
"547 530 OFFCURVE",
"458 530 CURVE SMOOTH",
"373 530 OFFCURVE",
"305 504 OFFCURVE",
"268 432 CURVE"
);
}
);
width = 633;
}
);
leftKerningGroup = n;
unicode = 006E;
},
{
glyphname = napostrophe;
layers = (
{
layerId = UUID0;
paths = (
{
closed = 1;
nodes = (
"310 530 OFFCURVE",
"244 501 OFFCURVE",
"208 432 CURVE",
"220 522 LINE",
"127 510 LINE",
"25 -12 LINE",
"137 0 LINE",
"191 278 LINE SMOOTH",
"207 358 OFFCURVE",
"247 453 OFFCURVE",
"326 453 CURVE SMOOTH",
"365 453 OFFCURVE",
"390 429 OFFCURVE",
"390 385 CURVE SMOOTH",
"390 316 OFFCURVE",
"328 140 OFFCURVE",
"328 55 CURVE SMOOTH",
"328 1 OFFCURVE",
"353 -20 OFFCURVE",
"394 -20 CURVE SMOOTH",
"428 -20 OFFCURVE",
"459 -5 OFFCURVE",
"468 27 CURVE",
"443 30 OFFCURVE",
"438 45 OFFCURVE",
"438 64 CURVE SMOOTH",
"438 129 OFFCURVE",
"500 294 OFFCURVE",
"500 402 CURVE SMOOTH",
"500 483 OFFCURVE",
"465 530 OFFCURVE",
"378 530 CURVE SMOOTH"
);
},
{
closed = 1;
nodes = (
"84 699 OFFCURVE",
"60 694 OFFCURVE",
"49 687 CURVE",
"56 676 OFFCURVE",
"57 662 OFFCURVE",
"57 648 CURVE SMOOTH",
"57 586 OFFCURVE",
"41 543 OFFCURVE",
"0 508 CURVE",
"12 504 OFFCURVE",
"23 502 OFFCURVE",
"33 502 CURVE SMOOTH",
"110 502 OFFCURVE",
"160 556 OFFCURVE",
"160 637 CURVE SMOOTH",
"160 677 OFFCURVE",
"136 699 OFFCURVE",
"102 699 CURVE SMOOTH"
);
}
);
width = 539;
},
{
layerId = "8C7E3CD8-8122-4AAB-8613-74D9DEE9A67D";
paths = (
{
closed = 1;
nodes = (
"352 530 OFFCURVE",
"285 503 OFFCURVE",
"248 432 CURVE",
"264 530 LINE",
"100 510 LINE",
"-4 -20 LINE",
"197 0 LINE",
"256 304 LINE SMOOTH",
"269 368 OFFCURVE",
"292 453 OFFCURVE",
"346 453 CURVE SMOOTH",
"375 453 OFFCURVE",
"381 429 OFFCURVE",
"381 404 CURVE SMOOTH",
"381 325 OFFCURVE",
"323 158 OFFCURVE",
"323 83 CURVE SMOOTH",
"323 14 OFFCURVE",
"371 -20 OFFCURVE",
"438 -20 CURVE SMOOTH",
"493 -20 OFFCURVE",
"552 3 OFFCURVE",
"568 54 CURVE",
"534 58 OFFCURVE",
"521 79 OFFCURVE",
"521 112 CURVE SMOOTH",
"521 179 OFFCURVE",
"576 328 OFFCURVE",
"576 413 CURVE SMOOTH",
"576 498 OFFCURVE",
"520 530 OFFCURVE",
"432 530 CURVE SMOOTH"
);
},
{
closed = 1;
nodes = (
"36 731 OFFCURVE",
"-1 723 OFFCURVE",
"-17 712 CURVE",
"-10 693 OFFCURVE",
"-6 674 OFFCURVE",
"-6 644 CURVE SMOOTH",
"-6 606 OFFCURVE",
"-16 553 OFFCURVE",
"-69 496 CURVE",
"-57 493 OFFCURVE",
"-44 490 OFFCURVE",
"-23 490 CURVE SMOOTH",
"85 490 OFFCURVE",
"157 575 OFFCURVE",
"157 643 CURVE SMOOTH",
"157 707 OFFCURVE",
"119 731 OFFCURVE",
"63 731 CURVE SMOOTH"
);
}
);
width = 602;
},
{
layerId = "C4C1D9D9-3F21-4BC7-A2AB-A5431E2D31D1";
paths = (
{
closed = 1;
nodes = (
"373 530 OFFCURVE",
"305 504 OFFCURVE",
"268 432 CURVE",
"286 534 LINE",
"87 510 LINE",
"-18 -24 LINE",
"226 0 LINE",
"288 317 LINE SMOOTH",
"299 373 OFFCURVE",
"314 453 OFFCURVE",
"356 453 CURVE SMOOTH",
"373 453 OFFCURVE",
"379 437 OFFCURVE",
"379 412 CURVE SMOOTH",
"379 336 OFFCURVE",
"321 173 OFFCURVE",
"321 97 CURVE SMOOTH",
"321 20 OFFCURVE",
"380 -20 OFFCURVE",
"459 -20 CURVE SMOOTH",
"525 -20 OFFCURVE",
"597 7 OFFCURVE",
"617 67 CURVE",
"578 72 OFFCURVE",
"562 96 OFFCURVE",
"562 135 CURVE SMOOTH",
"562 203 OFFCURVE",
"613 345 OFFCURVE",
"613 418 CURVE SMOOTH",
"613 505 OFFCURVE",
"547 530 OFFCURVE",
"458 530 CURVE SMOOTH"
);
},
{
closed = 1;
nodes = (
"13 747 OFFCURVE",
"-31 737 OFFCURVE",
"-49 724 CURVE",
"-42 701 OFFCURVE",
"-37 680 OFFCURVE",
"-37 642 CURVE SMOOTH",
"-37 616 OFFCURVE",
"-44 558 OFFCURVE",
"-103 490 CURVE",
"-91 488 OFFCURVE",
"-77 484 OFFCURVE",
"-50 484 CURVE SMOOTH",
"73 484 OFFCURVE",
"156 584 OFFCURVE",
"156 646 CURVE SMOOTH",
"156 722 OFFCURVE",
"111 747 OFFCURVE",
"44 747 CURVE SMOOTH"
);
}
);
width = 633;
}
);
leftKerningGroup = n;
unicode = 0149;
},
{
glyphname = eng;
layers = (
{
layerId = UUID0;
paths = (
{
closed = 1;
nodes = (
"25 -12 LINE",
"137 0 LINE",
"191 278 LINE SMOOTH",
"207 358 OFFCURVE",
"247 453 OFFCURVE",
"326 453 CURVE SMOOTH",
"365 453 OFFCURVE",
"390 429 OFFCURVE",
"390 385 CURVE SMOOTH",
"390 353 OFFCURVE",
"373 277 OFFCURVE",
"338 99 CURVE SMOOTH",
"304 -72 OFFCURVE",
"271 -139 OFFCURVE",
"195 -142 CURVE",
"201 -181 OFFCURVE",
"227 -200 OFFCURVE",
"263 -200 CURVE SMOOTH",
"333 -200 OFFCURVE",
"398 -139 OFFCURVE",
"432 30 CURVE SMOOTH",
"471 228 LINE SMOOTH",
"483 289 OFFCURVE",
"500 351 OFFCURVE",
"500 402 CURVE SMOOTH",
"500 483 OFFCURVE",
"465 530 OFFCURVE",
"378 530 CURVE SMOOTH",
"310 530 OFFCURVE",
"244 501 OFFCURVE",
"208 432 CURVE",
"220 522 LINE",
"127 510 LINE"
);
}
);
width = 540;
},
{
layerId = "8C7E3CD8-8122-4AAB-8613-74D9DEE9A67D";
paths = (
{
closed = 1;
nodes = (
"-4 -20 LINE",
"197 0 LINE",
"256 304 LINE SMOOTH",
"268 364 OFFCURVE",
"291 453 OFFCURVE",
"347 453 CURVE SMOOTH",
"375 453 OFFCURVE",
"381 430 OFFCURVE",
"381 401 CURVE SMOOTH",
"381 340 OFFCURVE",
"355 211 OFFCURVE",
"332 112 CURVE SMOOTH",
"292 -60 OFFCURVE",
"263 -122 OFFCURVE",
"183 -126 CURVE",
"197 -179 OFFCURVE",
"246 -200 OFFCURVE",
"302 -200 CURVE SMOOTH",
"426 -200 OFFCURVE",
"480 -100 OFFCURVE",
"518 92 CURVE SMOOTH",
"570 354 LINE SMOOTH",
"574 376 OFFCURVE",
"576 395 OFFCURVE",
"576 411 CURVE SMOOTH",
"576 498 OFFCURVE",
"520 530 OFFCURVE",
"432 530 CURVE SMOOTH",
"352 530 OFFCURVE",
"285 503 OFFCURVE",
"248 432 CURVE",
"264 530 LINE",
"100 510 LINE"
);
}
);
width = 602;
},
{
background = {
paths = (
{
closed = 1;
nodes = (
"-18 -24 LINE",
"226 0 LINE",
"288 317 LINE SMOOTH",
"298 367 OFFCURVE",
"313 453 OFFCURVE",
"357 453 CURVE SMOOTH",
"380 453 OFFCURVE",
"377 430 OFFCURVE",
"377 409 CURVE SMOOTH",
"377 334 OFFCURVE",
"346 179 OFFCURVE",
"329 118 CURVE SMOOTH",
"286 -54 OFFCURVE",
"259 -114 OFFCURVE",
"177 -118 CURVE",
"195 -178 OFFCURVE",
"255 -200 OFFCURVE",
"321 -200 CURVE SMOOTH",
"471 -200 OFFCURVE",
"520 -81 OFFCURVE",
"560 122 CURVE SMOOTH",
"618 416 LINE SMOOTH",
"618 419 OFFCURVE",
"613 417 OFFCURVE",
"613 415 CURVE SMOOTH",
"613 505 OFFCURVE",
"547 530 OFFCURVE",
"458 530 CURVE SMOOTH",
"373 530 OFFCURVE",
"305 504 OFFCURVE",
"268 432 CURVE",
"286 534 LINE",
"87 510 LINE"
);
}
);
};
layerId = "C4C1D9D9-3F21-4BC7-A2AB-A5431E2D31D1";
paths = (
{
closed = 1;
nodes = (
"-18 -24 LINE",
"226 0 LINE",
"288 317 LINE SMOOTH",
"298 367 OFFCURVE",
"313 453 OFFCURVE",
"357 453 CURVE SMOOTH",
"374 453 OFFCURVE",
"380 439 OFFCURVE",
"380 412 CURVE SMOOTH",
"380 361 OFFCURVE",
"355 260 OFFCURVE",
"329 118 CURVE SMOOTH",
"297 -56 OFFCURVE",
"259 -114 OFFCURVE",
"177 -118 CURVE",
"195 -178 OFFCURVE",
"255 -200 OFFCURVE",
"321 -200 CURVE SMOOTH",
"471 -200 OFFCURVE",
"520 -80 OFFCURVE",
"560 122 CURVE SMOOTH",
"604 344 LINE SMOOTH",
"607 360 OFFCURVE",
"613 393 OFFCURVE",
"613 415 CURVE SMOOTH",
"613 506 OFFCURVE",
"547 530 OFFCURVE",
"458 530 CURVE SMOOTH",
"373 530 OFFCURVE",
"305 504 OFFCURVE",
"268 432 CURVE",
"286 534 LINE",
"87 510 LINE"
);
}
);
width = 632;
}
);
unicode = 014B;
},
{
glyphname = o;
layers = (
{
anchors = (
{
name = bottom;
position = "{201, 0}";
},
{
name = ogonek;
position = "{308, 10}";
},
{
name = top;
position = "{321, 510}";
}
);
layerId = UUID0;
paths = (
{
closed = 1;
nodes = (
"112 530 OFFCURVE",
"27 349 OFFCURVE",
"27 167 CURVE SMOOTH",
"27 73 OFFCURVE",
"50 -20 OFFCURVE",
"194 -20 CURVE SMOOTH",
"396 -20 OFFCURVE",
"481 161 OFFCURVE",
"481 343 CURVE SMOOTH",
"481 437 OFFCURVE",
"458 530 OFFCURVE",
"314 530 CURVE SMOOTH"
);
},
{
closed = 1;
nodes = (
"349 470 OFFCURVE",
"367 426 OFFCURVE",
"367 366 CURVE SMOOTH",
"367 319 OFFCURVE",
"356 249 OFFCURVE",
"344 200 CURVE SMOOTH",
"325 121 OFFCURVE",
"293 40 OFFCURVE",
"216 40 CURVE SMOOTH",
"159 40 OFFCURVE",
"141 84 OFFCURVE",
"141 144 CURVE SMOOTH",
"141 191 OFFCURVE",
"152 261 OFFCURVE",
"164 310 CURVE SMOOTH",
"183 389 OFFCURVE",
"215 470 OFFCURVE",
"292 470 CURVE SMOOTH"
);
}
);
width = 508;
},
{
anchors = (
{
name = bottom;
position = "{261, 0}";
},
{
name = ogonek;
position = "{369, 10}";
},
{
name = top;
position = "{344, 510}";
}
);
layerId = "8C7E3CD8-8122-4AAB-8613-74D9DEE9A67D";
paths = (
{
closed = 1;
nodes = (
"134 530 OFFCURVE",
"16 385 OFFCURVE",
"16 198 CURVE SMOOTH",
"16 46 OFFCURVE",
"94 -20 OFFCURVE",
"229 -20 CURVE SMOOTH",
"432 -20 OFFCURVE",
"550 129 OFFCURVE",
"550 315 CURVE SMOOTH",
"550 465 OFFCURVE",
"474 530 OFFCURVE",
"338 530 CURVE SMOOTH"
);
},
{
closed = 1;
nodes = (
"356 470 OFFCURVE",
"362 443 OFFCURVE",
"362 404 CURVE SMOOTH",
"362 365 OFFCURVE",
"356 312 OFFCURVE",
"350 269 CURVE SMOOTH",
"327 105 OFFCURVE",
"298 40 OFFCURVE",
"244 40 CURVE SMOOTH",
"210 40 OFFCURVE",
"204 67 OFFCURVE",
"204 106 CURVE SMOOTH",
"204 145 OFFCURVE",
"210 198 OFFCURVE",
"216 241 CURVE SMOOTH",
"239 405 OFFCURVE",
"268 470 OFFCURVE",
"322 470 CURVE SMOOTH"
);
}
);
width = 566;
},
{
anchors = (
{
name = bottom;
position = "{271, 0}";
},
{
name = ogonek;
position = "{399, 10}";
},
{
name = top;
position = "{359, 510}";
}
);
layerId = "C4C1D9D9-3F21-4BC7-A2AB-A5431E2D31D1";
paths = (
{
closed = 1;
nodes = (
"145 530 OFFCURVE",
"11 403 OFFCURVE",
"11 213 CURVE SMOOTH",
"11 33 OFFCURVE",
"116 -20 OFFCURVE",
"246 -20 CURVE SMOOTH",
"450 -20 OFFCURVE",
"584 113 OFFCURVE",
"584 301 CURVE SMOOTH",
"584 479 OFFCURVE",
"482 530 OFFCURVE",
"350 530 CURVE SMOOTH"
);
},
{
closed = 1;
nodes = (
"355 470 OFFCURVE",
"360 444 OFFCURVE",
"360 410 CURVE SMOOTH",
"360 385 OFFCURVE",
"357 330 OFFCURVE",
"349 270 CURVE SMOOTH",
"336 164 OFFCURVE",
"310 40 OFFCURVE",
"266 40 CURVE SMOOTH",
"240 40 OFFCURVE",
"234 69 OFFCURVE",
"234 104 CURVE SMOOTH",
"234 125 OFFCURVE",
"236 171 OFFCURVE",
"242 223 CURVE SMOOTH",
"254 332 OFFCURVE",
"284 470 OFFCURVE",
"330 470 CURVE SMOOTH"
);
}
);
width = 594;
}
);
leftKerningGroup = o;
rightKerningGroup = o;
unicode = 006F;
},
{
glyphname = oslash;
layers = (
{
anchors = (
{
name = top;
position = "{319, 510}";
}
);
background = {
paths = (
{
closed = 1;
nodes = (
"475 569 OFFCURVE",
"465 556 OFFCURVE",
"445 534 CURVE SMOOTH",
"418 504 LINE",
"394 520 OFFCURVE",
"360 530 OFFCURVE",
"314 530 CURVE SMOOTH",
"112 530 OFFCURVE",
"27 349 OFFCURVE",
"27 167 CURVE SMOOTH",
"27 136 OFFCURVE",
"29 106 OFFCURVE",
"38 79 CURVE",
"-3 33 LINE",
"-16 20 OFFCURVE",
"-21 3 OFFCURVE",
"-21 -11 CURVE SMOOTH",
"-21 -34 OFFCURVE",
"-6 -54 OFFCURVE",
"20 -54 CURVE",
"32 -34 OFFCURVE",
"41 -20 OFFCURVE",
"64 5 CURVE SMOOTH",
"75 17 LINE",
"100 -6 OFFCURVE",
"138 -20 OFFCURVE",
"194 -20 CURVE SMOOTH",
"396 -20 OFFCURVE",
"481 161 OFFCURVE",
"481 343 CURVE SMOOTH",
"481 380 OFFCURVE",
"477 417 OFFCURVE",
"464 448 CURVE",
"511 499 LINE SMOOTH",
"525 513 OFFCURVE",
"530 529 OFFCURVE",
"530 542 CURVE SMOOTH",
"530 570 OFFCURVE",
"506 589 OFFCURVE",
"489 589 CURVE"
);
},
{
closed = 1;
nodes = (
"363 295 OFFCURVE",
"354 240 OFFCURVE",
"344 200 CURVE SMOOTH",
"325 121 OFFCURVE",
"293 40 OFFCURVE",
"216 40 CURVE SMOOTH",
"163 40 OFFCURVE",
"143 79 OFFCURVE",
"141 134 CURVE",
"113 60 LINE",
"366 339 LINE"
);
},
{
closed = 1;
nodes = (
"324 470 OFFCURVE",
"344 456 OFFCURVE",
"355 433 CURVE",
"144 198 LINE",
"149 236 OFFCURVE",
"156 278 OFFCURVE",
"164 310 CURVE SMOOTH",
"183 389 OFFCURVE",
"215 470 OFFCURVE",
"292 470 CURVE SMOOTH"
);
}
);
};
layerId = UUID0;
paths = (
{
closed = 1;
nodes = (
"475 569 OFFCURVE",
"465 556 OFFCURVE",
"445 534 CURVE SMOOTH",
"418 504 LINE",
"394 520 OFFCURVE",
"360 530 OFFCURVE",
"314 530 CURVE SMOOTH",
"112 530 OFFCURVE",
"27 349 OFFCURVE",
"27 167 CURVE SMOOTH",
"27 136 OFFCURVE",
"29 106 OFFCURVE",
"38 79 CURVE",
"-3 33 LINE SMOOTH",
"-16 20 OFFCURVE",
"-21 3 OFFCURVE",
"-21 -11 CURVE SMOOTH",
"-21 -34 OFFCURVE",
"-6 -54 OFFCURVE",
"20 -54 CURVE",
"32 -34 OFFCURVE",
"41 -20 OFFCURVE",
"64 5 CURVE SMOOTH",
"84 27 LINE",
"58 36 LINE",
"82 2 OFFCURVE",
"124 -20 OFFCURVE",
"194 -20 CURVE SMOOTH",
"396 -20 OFFCURVE",
"481 161 OFFCURVE",
"481 343 CURVE SMOOTH",
"481 380 OFFCURVE",
"477 417 OFFCURVE",
"464 448 CURVE",
"511 499 LINE SMOOTH",
"525 513 OFFCURVE",
"530 529 OFFCURVE",
"530 542 CURVE SMOOTH",
"530 570 OFFCURVE",
"506 589 OFFCURVE",
"489 589 CURVE"
);
},
{
closed = 1;
nodes = (
"367 368 LINE",
"367 280 OFFCURVE",
"334 40 OFFCURVE",
"216 40 CURVE SMOOTH",
"165 40 OFFCURVE",
"138 77 OFFCURVE",
"138 157 CURVE SMOOTH",
"138 163 OFFCURVE",
"138 174 OFFCURVE",
"138 180 CURVE",
"94 39 LINE",
"399 375 LINE"
);
},
{
closed = 1;
nodes = (
"324 470 OFFCURVE",
"344 456 OFFCURVE",
"355 433 CURVE",
"144 198 LINE",
"149 236 OFFCURVE",
"156 278 OFFCURVE",
"164 310 CURVE SMOOTH",
"183 389 OFFCURVE",
"215 470 OFFCURVE",
"292 470 CURVE SMOOTH"
);
}
);
width = 508;
},
{
anchors = (
{
name = top;
position = "{335, 510}";
}
);
layerId = "8C7E3CD8-8122-4AAB-8613-74D9DEE9A67D";
paths = (
{
closed = 1;
nodes = (
"497 570 OFFCURVE",
"485 555 OFFCURVE",
"462 529 CURVE SMOOTH",
"446 511 LINE",
"416 524 OFFCURVE",
"380 530 OFFCURVE",
"338 530 CURVE SMOOTH",
"134 530 OFFCURVE",
"16 385 OFFCURVE",
"16 198 CURVE SMOOTH",
"16 143 OFFCURVE",
"26 99 OFFCURVE",
"46 66 CURVE",
"27 45 LINE SMOOTH",
"13 29 OFFCURVE",
"7 9 OFFCURVE",
"7 -7 CURVE SMOOTH",
"7 -34 OFFCURVE",
"24 -58 OFFCURVE",
"55 -58 CURVE",
"69 -34 OFFCURVE",
"80 -16 OFFCURVE",
"107 13 CURVE SMOOTH",
"118 24 LINE",
"86 19 LINE",
"123 -8 OFFCURVE",
"171 -20 OFFCURVE",
"229 -20 CURVE SMOOTH",
"432 -20 OFFCURVE",
"550 129 OFFCURVE",
"550 315 CURVE SMOOTH",
"550 377 OFFCURVE",
"537 424 OFFCURVE",
"512 459 CURVE",
"539 488 LINE SMOOTH",
"555 505 OFFCURVE",
"561 523 OFFCURVE",
"561 538 CURVE SMOOTH",
"561 571 OFFCURVE",
"533 594 OFFCURVE",
"513 594 CURVE"
);
},
{
closed = 1;
nodes = (
"359 328 LINE",
"348 258 OFFCURVE",
"333 40 OFFCURVE",
"244 40 CURVE SMOOTH",
"210 40 OFFCURVE",
"204 67 OFFCURVE",
"204 106 CURVE SMOOTH",
"204 131 OFFCURVE",
"206 158 OFFCURVE",
"209 185 CURVE",
"135 43 LINE",
"385 318 LINE"
);
},
{
closed = 1;
nodes = (
"352 470 OFFCURVE",
"360 449 OFFCURVE",
"362 417 CURVE",
"218 258 LINE",
"223 292 OFFCURVE",
"228 321 OFFCURVE",
"234 346 CURVE SMOOTH",
"255 434 OFFCURVE",
"281 470 OFFCURVE",
"322 470 CURVE SMOOTH"
);
}
);
width = 566;
},
{
anchors = (
{
name = top;
position = "{339, 510}";
}
);
background = {
paths = (
{
closed = 1;
nodes = (
"355 470 OFFCURVE",
"360 444 OFFCURVE",
"360 410 CURVE SMOOTH",
"360 385 OFFCURVE",
"357 330 OFFCURVE",
"349 270 CURVE SMOOTH",
"336 164 OFFCURVE",
"310 40 OFFCURVE",
"266 40 CURVE SMOOTH",
"240 40 OFFCURVE",
"234 69 OFFCURVE",
"234 104 CURVE SMOOTH",
"234 125 OFFCURVE",
"236 171 OFFCURVE",
"242 223 CURVE SMOOTH",
"254 332 OFFCURVE",
"284 470 OFFCURVE",
"330 470 CURVE SMOOTH"
);
}
);
};
layerId = "C4C1D9D9-3F21-4BC7-A2AB-A5431E2D31D1";
paths = (
{
closed = 1;
nodes = (
"508 570 OFFCURVE",
"495 555 OFFCURVE",
"470 527 CURVE SMOOTH",
"460 514 LINE",
"427 526 OFFCURVE",
"390 530 OFFCURVE",
"350 530 CURVE SMOOTH",
"145 530 OFFCURVE",
"11 403 OFFCURVE",
"11 213 CURVE SMOOTH",
"11 146 OFFCURVE",
"25 96 OFFCURVE",
"50 60 CURVE",
"42 51 LINE SMOOTH",
"27 33 OFFCURVE",
"21 12 OFFCURVE",
"21 -5 CURVE SMOOTH",
"21 -34 OFFCURVE",
"39 -60 OFFCURVE",
"72 -60 CURVE",
"87 -34 OFFCURVE",
"99 -14 OFFCURVE",
"128 17 CURVE SMOOTH",
"135 23 LINE",
"100 11 LINE",
"143 -13 OFFCURVE",
"194 -20 OFFCURVE",
"246 -20 CURVE SMOOTH",
"450 -20 OFFCURVE",
"584 113 OFFCURVE",
"584 301 CURVE SMOOTH",
"584 376 OFFCURVE",
"566 427 OFFCURVE",
"535 464 CURVE",
"553 483 LINE SMOOTH",
"570 501 OFFCURVE",
"576 520 OFFCURVE",
"576 536 CURVE SMOOTH",
"576 571 OFFCURVE",
"546 596 OFFCURVE",
"525 596 CURVE"
);
},
{
closed = 1;
nodes = (
"355 308 LINE",
"337 143 OFFCURVE",
"302 40 OFFCURVE",
"265 40 CURVE SMOOTH",
"239 40 OFFCURVE",
"234 78 OFFCURVE",
"234 117 CURVE SMOOTH",
"234 145 OFFCURVE",
"237 174 OFFCURVE",
"239 192 CURVE",
"155 45 LINE",
"378 290 LINE"
);
},
{
closed = 1;
nodes = (
"362 470 OFFCURVE",
"365 435 OFFCURVE",
"365 409 CURVE",
"254 287 LINE",
"259 319 OFFCURVE",
"263 342 OFFCURVE",
"268 364 CURVE SMOOTH",
"290 456 OFFCURVE",
"311 470 OFFCURVE",
"331 470 CURVE SMOOTH"
);
}
);
width = 594;
}
);
leftKerningGroup = o;
rightKerningGroup = o;
unicode = 00F8;
},
{
glyphname = oe;
layers = (
{
anchors = (
{
name = top;
position = "{379, 510}";
}
);
layerId = UUID0;
paths = (
{
closed = 1;
nodes = (
"557 530 OFFCURVE",
"501 505 OFFCURVE",
"457 463 CURVE",
"434 506 OFFCURVE",
"381 530 OFFCURVE",
"310 530 CURVE SMOOTH",
"114 530 OFFCURVE",
"27 348 OFFCURVE",
"27 169 CURVE SMOOTH",
"27 47 OFFCURVE",
"67 -20 OFFCURVE",
"199 -20 CURVE SMOOTH",
"273 -20 OFFCURVE",
"327 1 OFFCURVE",
"376 48 CURVE",
"407 -1 OFFCURVE",
"465 -20 OFFCURVE",
"525 -20 CURVE SMOOTH",
"634 -20 OFFCURVE",
"709 43 OFFCURVE",
"709 102 CURVE SMOOTH",
"709 119 OFFCURVE",
"703 138 OFFCURVE",
"685 142 CURVE",
"660 92 OFFCURVE",
"613 63 OFFCURVE",
"555 63 CURVE SMOOTH",
"484 63 OFFCURVE",
"462 106 OFFCURVE",
"462 179 CURVE SMOOTH",
"462 195 OFFCURVE",
"463 217 OFFCURVE",
"465 239 CURVE",
"478 238 OFFCURVE",
"502 237 OFFCURVE",
"520 237 CURVE SMOOTH",
"658 237 OFFCURVE",
"772 299 OFFCURVE",
"772 417 CURVE SMOOTH",
"772 502 OFFCURVE",
"712 530 OFFCURVE",
"632 530 CURVE SMOOTH"
);
},
{
closed = 1;
nodes = (
"645 473 OFFCURVE",
"664 454 OFFCURVE",
"664 415 CURVE SMOOTH",
"664 325 OFFCURVE",
"563 288 OFFCURVE",
"472 288 CURVE",
"487 366 OFFCURVE",
"535 473 OFFCURVE",
"612 473 CURVE SMOOTH"
);
},
{
closed = 1;
nodes = (
"159 40 OFFCURVE",
"141 84 OFFCURVE",
"141 144 CURVE SMOOTH",
"141 191 OFFCURVE",
"152 261 OFFCURVE",
"164 310 CURVE SMOOTH",
"183 389 OFFCURVE",
"215 470 OFFCURVE",
"292 470 CURVE SMOOTH",
"349 470 OFFCURVE",
"367 426 OFFCURVE",
"367 366 CURVE SMOOTH",
"367 319 OFFCURVE",
"356 249 OFFCURVE",
"344 200 CURVE SMOOTH",
"325 121 OFFCURVE",
"293 40 OFFCURVE",
"216 40 CURVE SMOOTH"
);
}
);
width = 758;
},
{
anchors = (
{
name = top;
position = "{486, 510}";
}
);
layerId = "8C7E3CD8-8122-4AAB-8613-74D9DEE9A67D";
paths = (
{
closed = 1;
nodes = (
"591 530 OFFCURVE",
"537 514 OFFCURVE",
"487 485 CURVE",
"450 515 OFFCURVE",
"397 530 OFFCURVE",
"333 530 CURVE SMOOTH",
"134 530 OFFCURVE",
"16 383 OFFCURVE",
"16 197 CURVE SMOOTH",
"16 48 OFFCURVE",
"91 -20 OFFCURVE",
"231 -20 CURVE SMOOTH",
"301 -20 OFFCURVE",
"357 -3 OFFCURVE",
"404 26 CURVE",
"440 -5 OFFCURVE",
"498 -20 OFFCURVE",
"554 -20 CURVE SMOOTH",
"655 -20 OFFCURVE",
"772 30 OFFCURVE",
"772 121 CURVE SMOOTH",
"772 143 OFFCURVE",
"765 158 OFFCURVE",
"747 169 CURVE",
"718 124 OFFCURVE",
"654 106 OFFCURVE",
"612 106 CURVE SMOOTH",
"546 106 OFFCURVE",
"529 149 OFFCURVE",
"529 200 CURVE SMOOTH",
"529 212 OFFCURVE",
"530 224 OFFCURVE",
"532 235 CURVE",
"560 235 OFFCURVE",
"586 236 OFFCURVE",
"610 238 CURVE SMOOTH",
"753 250 OFFCURVE",
"840 307 OFFCURVE",
"840 409 CURVE SMOOTH",
"840 507 OFFCURVE",
"759 530 OFFCURVE",
"667 530 CURVE SMOOTH"
);
},
{
closed = 1;
nodes = (
"678 479 OFFCURVE",
"686 457 OFFCURVE",
"686 425 CURVE SMOOTH",
"686 341 OFFCURVE",
"632 278 OFFCURVE",
"539 278 CURVE",
"563 421 OFFCURVE",
"605 479 OFFCURVE",
"650 479 CURVE SMOOTH"
);
},
{
closed = 1;
nodes = (
"210 40 OFFCURVE",
"204 67 OFFCURVE",
"204 106 CURVE SMOOTH",
"204 145 OFFCURVE",
"210 198 OFFCURVE",
"216 241 CURVE SMOOTH",
"239 405 OFFCURVE",
"268 470 OFFCURVE",
"322 470 CURVE SMOOTH",
"356 470 OFFCURVE",
"362 443 OFFCURVE",
"362 404 CURVE SMOOTH",
"362 365 OFFCURVE",
"356 312 OFFCURVE",
"350 269 CURVE SMOOTH",
"327 105 OFFCURVE",
"298 40 OFFCURVE",
"244 40 CURVE SMOOTH"
);
}
);
width = 814;
},
{
anchors = (
{
name = top;
position = "{504, 510}";
}
);
layerId = "C4C1D9D9-3F21-4BC7-A2AB-A5431E2D31D1";
paths = (
{
closed = 1;
nodes = (
"608 530 OFFCURVE",
"555 518 OFFCURVE",
"502 496 CURVE",
"458 519 OFFCURVE",
"405 530 OFFCURVE",
"344 530 CURVE SMOOTH",
"144 530 OFFCURVE",
"11 400 OFFCURVE",
"11 211 CURVE SMOOTH",
"11 48 OFFCURVE",
"103 -20 OFFCURVE",
"247 -20 CURVE SMOOTH",
"315 -20 OFFCURVE",
"372 -5 OFFCURVE",
"418 15 CURVE",
"456 -7 OFFCURVE",
"514 -20 OFFCURVE",
"568 -20 CURVE SMOOTH",
"665 -20 OFFCURVE",
"803 24 OFFCURVE",
"803 130 CURVE SMOOTH",
"803 155 OFFCURVE",
"795 168 OFFCURVE",
"777 182 CURVE",
"746 140 OFFCURVE",
"674 127 OFFCURVE",
"640 127 CURVE SMOOTH",
"576 127 OFFCURVE",
"562 170 OFFCURVE",
"562 210 CURVE SMOOTH",
"562 220 OFFCURVE",
"563 227 OFFCURVE",
"565 233 CURVE",
"600 234 OFFCURVE",
"627 236 OFFCURVE",
"654 238 CURVE SMOOTH",
"799 256 OFFCURVE",
"873 311 OFFCURVE",
"873 405 CURVE SMOOTH",
"873 509 OFFCURVE",
"782 530 OFFCURVE",
"684 530 CURVE SMOOTH"
);
},
{
closed = 1;
nodes = (
"690 482 OFFCURVE",
"700 459 OFFCURVE",
"700 429 CURVE SMOOTH",
"700 367 OFFCURVE",
"657 273 OFFCURVE",
"572 273 CURVE",
"601 448 OFFCURVE",
"640 482 OFFCURVE",
"669 482 CURVE SMOOTH"
);
},
{
closed = 1;
nodes = (
"240 40 OFFCURVE",
"234 69 OFFCURVE",
"234 104 CURVE SMOOTH",
"234 125 OFFCURVE",
"236 171 OFFCURVE",
"242 223 CURVE SMOOTH",
"254 332 OFFCURVE",
"284 470 OFFCURVE",
"330 470 CURVE SMOOTH",
"355 470 OFFCURVE",
"360 444 OFFCURVE",
"360 410 CURVE SMOOTH",
"360 385 OFFCURVE",
"357 330 OFFCURVE",
"349 270 CURVE SMOOTH",
"336 164 OFFCURVE",
"310 40 OFFCURVE",
"266 40 CURVE SMOOTH"
);
}
);
width = 841;
}
);
leftKerningGroup = o;
rightKerningGroup = e;
unicode = 0153;
},
